<?xml version="1.0" encoding="UTF-8"?> <!-- Generator: Adobe Illustrator 22.0.1, SVG Export Plug-In . SVG Version: 6.00 Build 0) --> <svg xmlns="http://www.w3.org/2000/svg" xmlns:xlink="http://www.w3.org/1999/xlink" id="Layer_1" x="0px" y="0px" viewBox="0 0 110.7 66.1" style="enable-background:new 0 0 110.7 66.1;" xml:space="preserve"> <style type="text/css"> .st0{fill:#D2AA41;} .st1{fill:#002B5C;} .st2{fill:#FFFFFF;} .st3{fill:#E31837;} .st4{fill:#231F20;} .st5{fill:url(#SVGID_1_);} .st6{fill:#D1A941;} .st7{fill:url(#SVGID_2_);} .st8{fill:#00002A;} .st9{fill:url(#SVGID_3_);} .st10{fill:#001846;} .st11{fill:#DCE5EB;} .st12{fill:#E21936;} .st13{fill:url(#SVGID_4_);} .st14{fill:url(#SVGID_5_);} .st15{fill:url(#SVGID_6_);} .st16{fill:url(#SVGID_7_);} .st17{fill:url(#SVGID_8_);} .st18{fill:#828E96;} .st19{fill:#9D0620;} .st20{fill:#022E61;} .st21{fill:#9C8C85;} .st22{fill:#FDFDFD;} .st23{fill:#F17636;} .st24{fill:#EF7636;} .st25{fill:#37246A;} .st26{fill:#FFC425;} .st27{fill:#00A160;} .st28{fill:#00483A;} .st29{fill:#FFD200;} .st30{fill:#B0B7BC;} .st31{fill:#652D89;} .st32{fill:#C4CED4;} .st33{fill:#0080C5;} .st34{fill:#00539B;} .st35{fill:#002D62;} .st36{fill:#D31245;} .st37{fill:#98002E;} </style> <g> <path class="st2" d="M106.8,3l-10,1.2l-1.3,2L95.3,6l-5.1,0.6c-0.1-0.1-0.3-0.3-0.4-0.4c-1.5-1.7-3.3-2.5-4.2-2.8 c-0.9-0.3-1.9-0.5-2.9-0.5c-2.7,0-5.5,1.2-8,3.4c-0.2,0.1-0.3,0.3-0.5,0.5c-0.3-0.4-0.6-0.7-1-1c-1.1-1.3-2.5-2.2-4-2.6 c-0.8-0.3-1.7-0.4-2.6-0.4c-3,0-6.2,1.5-8.8,4.2l-3.5-3.5l-20,3.5l-0.5,2.7c-1.2-0.5-2.5-0.7-4-0.7c-0.2,0-0.5,0-0.7,0l0.9-5.4 L26.6,0l-2.8,0.8C17,2.8,10.3,5.3,3.8,8.2L1.9,9L0,20.4l3.8,3.8l1.5-0.7L1.3,46.5l4,4l2.2-1.3c2.3-1.4,4.7-2.7,7.1-3.9l1.5-0.7 l0.4-2.2l1.3,1.3l2.1-0.9c1.9-0.8,3.8-1.6,5.7-2.3l1.8-0.7l0.2-1.4l1,1l1.9-0.6c2.6-0.9,5.3-1.7,8-2.4c-0.8,2-1.2,4-1.2,6.2 c0,4.3,1.7,8.4,4.8,11.5c1.5,1.7,2.7,3.4,2.7,8l-0.1,2.7c0,0.8,0.5,1.5,1.3,1.5c1.1,0,1.1-1.7,1.1-2.4l0.1-4.3 c0-0.6,0.1-1.2,0.2-1.2c0.1,0,0.2,0.5,0.3,1.2c0.1,0.5,0.1,1.3,0,2.2c-0.1,1.1,0.1,1.8,0.4,2.1c0.1,0.2,0.4,0.4,0.8,0.4 c0.4,0,1.1-0.3,1.3-2c0.2-1.3,0.6-2.1,1-2.1h0c0.6,0,0.8,0.9,0.9,1.3c0.1,0.5,0.5,0.9,1.1,0.9c0.3,0,0.7-0.1,1.1-0.9 c0.1-0.1,0.1-0.3,0.2-0.4c0.3-0.7,0.7-1.8,1.2-1.8c0.1,0,0.1,0,0.2,0c0.7,0.3,1.4,0.5,2,0.5c0.6,0,1.1-0.2,1.6-0.8 c0.2-0.2,0.3-0.4,0.4-0.6c0.2-0.4,0.5-1,2-1.9c1.1-0.7,2.2-1.5,3.1-2.4c3.1-3.1,4.7-7.1,4.7-11.4c0-3.8-1.3-7.4-3.7-10.3 c1.7-0.6,3.3-1.6,4.7-3c0.3,0.3,0.6,0.6,0.9,0.9c1.7,2,4.2,3.1,6.9,3.1c0.9,0,1.8-0.1,2.8-0.4l4.6,0.6l1.8,1.8l9.6-2.4l2-8 l11.7-17.8L106.8,3z"></path> <g> <path class="st3" d="M53.3,28.6c6.8,0,12.5,4.9,13.7,11.3c-0.8-0.9-1.9-1.6-3.4-2.3l0,0c-3.7-1.4-6-1-8-0.6 c-0.8,0.1-1.5,0.3-2.3,0.3c-0.7,0-1.5-0.1-2.3-0.3c-2-0.4-4.3-0.8-8,0.6l0,0c-1.5,0.7-2.6,1.4-3.4,2.3 C40.9,33.5,46.6,28.6,53.3,28.6z"></path> <path class="st3" d="M43.4,38.4c1.2-0.4,2.2-0.7,3.1-0.8c0,0.3-0.1,0.5-0.1,0.8c0,3.8,3.1,6.9,6.9,6.9c3.8,0,6.9-3.1,6.9-6.9 c0-0.3,0-0.6-0.1-0.8c0.9,0.1,1.9,0.4,3.1,0.8c2.5,1.1,3.9,2.6,3.9,4.1c0,1.5-1.4,3-3.9,4.1c-2.7,1.2-6.2,1.8-10,1.8 c-3.8,0-7.3-0.6-10-1.8c-2.5-1.1-3.9-2.6-3.9-4.1C39.4,41,40.9,39.5,43.4,38.4z"></path> <path class="st3" d="M53.3,56.4c-6.8,0-12.5-4.9-13.7-11.3c0.8,0.9,1.9,1.6,3.4,2.3c2.8,1.2,6.4,1.9,10.3,1.9 c3.9,0,7.5-0.7,10.3-1.9c1.5-0.7,2.6-1.4,3.4-2.3C65.8,51.5,60.1,56.4,53.3,56.4z"></path> <g> <path class="st2" d="M53.3,41.7c1.8,0,3.3-1.5,3.3-3.3c0-0.3,0-0.5-0.1-0.7c0.8-0.1,1.6-0.2,2.5-0.2c0,0.3,0.1,0.6,0.1,0.9 c0,3.2-2.6,5.8-5.8,5.8c-3.2,0-5.8-2.6-5.8-5.8c0-0.3,0-0.6,0.1-0.9c0.9,0,1.8,0.1,2.5,0.2c-0.1,0.2-0.1,0.5-0.1,0.7 C50.1,40.2,51.5,41.7,53.3,41.7z"></path> <g> <path class="st37" d="M39.7,40c0.8-0.9,1.9-1.6,3.4-2.3l0,0c0,0,0,0,0,0c1.1-4.1,4-7.3,7.9-8.8C45.3,29.8,40.8,34.3,39.7,40z"></path> <g> <path class="st37" d="M43.4,46.6c0.3,0.1,0.5,0.2,0.8,0.3c-1-1.8-1.5-3.9-1.5-6.1c0-0.5,0-0.9,0.1-1.4c-2,0.9-3.2,2-3.3,3 C39.5,44,40.9,45.5,43.4,46.6z"></path> <path class="st37" d="M53.3,56.4c5.2,0,9.7-2.9,12.1-7.1c-2.4,2.8-5.9,4.5-9.8,4.5c-4.1,0-7.8-1.9-10.2-5 c-0.9-0.3-1.8-0.6-2.6-0.9c-1.2-0.5-2.1-1.1-2.9-1.8C41.6,52.1,47,56.4,53.3,56.4z"></path> </g> </g> <g> <path class="st3" d="M48.8,42.1c0.1,0.1,0.2,0.2,0.2,0.3l0.4-0.3l1.3,0.4l-1.1-0.7l0-1.5L47.8,40l0,0c0,0.1,0,0.1,0.1,0.2 c0,0,0,0,0,0c0,0.1,0,0.1,0.1,0.2c0,0,0,0,0,0l1.4,0.2l0,1.2L48.8,42.1z"></path> <path class="st3" d="M49.2,37.6c-0.1,0-0.2,0-0.4,0l-0.3,0.7l-1,0.5c0,0.1,0,0.3,0,0.4l1.3-0.6L49.2,37.6z"></path> <path class="st3" d="M55.7,41.6l1.6-0.2l0.8,0.4c0.1-0.1,0.1-0.2,0.2-0.3L57.4,41L55.7,41.6z"></path> <path class="st3" d="M58.6,38.3l-0.3-0.8c-0.1,0-0.3,0-0.4,0l0.3,0.9l-1.3,1l1.6-0.7l0.7,0.2c0-0.1,0-0.2,0-0.4L58.6,38.3z"></path> <path class="st3" d="M53.5,43.3L52,42.4l1.3,1.2l-0.1,0.7c0,0,0.1,0,0.1,0c0.1,0,0.2,0,0.3,0l0.1-0.6l1.3-0.7l1.2,0.7 c0.1-0.1,0.2-0.1,0.4-0.2L55,42.4L53.5,43.3z"></path> </g> </g> <path d="M106.6,3.5l-9.5,1.1L95.6,7l-0.5-0.5l-5.1,0.6c-0.2-0.2-0.4-0.4-0.6-0.6c-1.4-1.7-3.1-2.4-4-2.7c-0.9-0.3-1.8-0.4-2.7-0.4 c-2.6,0-5.3,1.2-7.7,3.3c-0.3,0.3-0.6,0.5-0.9,0.8c-0.4-0.5-0.8-1-1.3-1.4c-1-1.2-2.4-2.1-3.8-2.5c-0.8-0.2-1.6-0.4-2.5-0.4 c-3.4,0-6.8,2-9.4,5.2l0.2-1.2l-3.2-3.2L34.7,7.3l-0.5,3c-1.1-0.5-2.5-0.9-4.4-0.9c-0.4,0-0.8,0-1.3,0.1l1-5.8l-3.1-3.1l-2.6,0.8 C17.1,3.3,10.5,5.7,4,8.6L2.4,9.3L0.5,20.2l3.3,3.3l2-0.9l-4,23.7l3.5,3.5l1.9-1.1c2.3-1.4,4.7-2.7,7.2-3.9l1.3-0.6l0.5-2.8 l1.8,1.8l1.8-0.8c1.9-0.8,3.8-1.6,5.7-2.3l1.5-0.6l0.3-2l1.4,1.4l1.6-0.5c3-1,6-1.9,9.1-2.6c-1,2.1-1.6,4.5-1.6,6.9 c0,4.2,1.7,8.2,4.6,11.1c1.6,1.8,2.8,3.6,2.8,8.3L45,64.6c0,0.6,0.4,1,0.8,1c0.4,0,0.6-0.6,0.6-2l0.1-4.2c0-2.4,1.9-2.9,1.5,2.2 c-0.1,1.7,0.4,2,0.8,2c0.3,0,0.7-0.3,0.9-1.6c0.2-1.2,0.6-2.6,1.5-2.5c0.9,0,1.2,1.2,1.3,1.7c0.1,0.5,0.8,1,1.2-0.1 c0.4-1,0.9-2.9,2.1-2.5c1.5,0.6,2.2,0.7,3.1-0.1c0.5-0.5,0.2-1.2,2.5-2.6c1.1-0.7,2.1-1.5,3-2.4c3-3,4.6-6.9,4.6-11.1 c0-3.9-1.4-7.7-4.1-10.5c2-0.6,3.9-1.7,5.6-3.4c0.4,0.5,0.7,0.9,1.2,1.2c1.7,1.9,4,3,6.5,3c0.9,0,1.8-0.1,2.7-0.4l4.9,0.6l1.7,1.7 l9-2.3l2-7.8L110.1,7L106.6,3.5z M53.3,56.4c-6.8,0-12.5-4.9-13.7-11.3c0.8,0.9,1.9,1.6,3.4,2.3c2.8,1.2,6.4,1.9,10.3,1.9 s7.5-0.7,10.3-1.9c1.5-0.7,2.6-1.4,3.4-2.3C65.8,51.5,60.1,56.4,53.3,56.4z M63.3,46.6c-2.7,1.2-6.2,1.8-10,1.8 c-3.8,0-7.3-0.6-10-1.8c-2.5-1.1-3.9-2.6-3.9-4.1c0-1.5,1.4-3,3.9-4.1c1.2-0.4,2.2-0.7,3.1-0.8c0,0.3-0.1,0.5-0.1,0.8 c0,3.8,3.1,6.9,6.9,6.9c3.8,0,6.9-3.1,6.9-6.9c0-0.3,0-0.6-0.1-0.8c0.9,0.1,1.9,0.4,3.1,0.8c2.5,1.1,3.9,2.6,3.9,4.1 C67.2,44,65.8,45.5,63.3,46.6z M53.3,41.7c1.8,0,3.3-1.5,3.3-3.3c0-0.3,0-0.5-0.1-0.7c0.8-0.1,1.6-0.2,2.5-0.2 c0,0.3,0.1,0.6,0.1,0.9c0,3.2-2.6,5.8-5.8,5.8c-3.2,0-5.8-2.6-5.8-5.8c0-0.3,0-0.6,0.1-0.9c0.9,0,1.8,0.1,2.5,0.2 c-0.1,0.2-0.1,0.5-0.1,0.7C50.1,40.2,51.5,41.7,53.3,41.7z M63.6,37.7L63.6,37.7c-3.7-1.4-6-1-8-0.6c-0.8,0.1-1.5,0.3-2.3,0.3 c-0.7,0-1.5-0.1-2.3-0.3c-2-0.4-4.3-0.8-8,0.6l0,0c-1.5,0.7-2.6,1.4-3.4,2.3c1.2-6.4,6.9-11.3,13.7-11.3c6.8,0,12.5,4.9,13.7,11.3 C66.3,39.1,65.1,38.3,63.6,37.7z"></path> <g> <polygon points="97.6,31.6 97.9,31.6 97.9,32.6 98.2,32.6 98.2,31.6 98.5,31.6 98.5,31.4 97.6,31.4 "></polygon> <polygon points="99.7,31.4 99.4,32.2 99.4,32.2 99.1,31.4 98.7,31.4 98.7,32.6 99,32.6 99,31.7 99,31.7 99.3,32.6 99.5,32.6 99.9,31.7 99.9,31.7 99.9,32.6 100.1,32.6 100.1,31.4 "></polygon> </g> <g> <g> <g> <g> <path class="st3" d="M105.6,6.5l-6.9,0.8l-3.5,5.3L95,10.3l-0.9-0.9l-5.3,0.6c-0.4-0.7-0.9-1.2-1.4-1.6 c-1.1-1.3-2.4-1.9-2.9-2c-0.6-0.2-1.2-0.3-1.8-0.3c-1.9,0-4,0.9-5.8,2.6c-1.6,1.4-3,3.3-4,5.4c-0.2-1-0.6-1.9-1.2-2.8l1-0.8 l-0.2-0.5c-0.4-0.8-1-1.5-1.7-2.1c-0.7-0.9-1.6-1.5-2.7-1.8C67.7,6,67.2,6,66.6,6c-3.9,0-8.1,3.8-10.1,9.1 c-1.1,2.9-1.3,5.8-0.8,8.2c-1.3,0.1-2.7,0.3-4,0.4l2.7-15.7l-0.9-0.9l-5.6,0.7l-0.1,0.6l-0.6-0.6l-10,1.9l-1,5.8l0.9,0.9 l1.1-0.2l-1.8,10.3L34.3,27l-0.7,4.3c-0.6-1.4-1.4-3-2.4-4.8c2.4-1.9,4.1-4.2,4.8-6.4c0.5-1.7,0.4-3.4-0.4-4.7 c-0.3-0.5-0.7-0.9-1.1-1.3c-0.9-1.3-2.5-2-4.7-2c-2.8,0-6.7,1.1-10.5,3.1l-0.4,0.2l0.3,5.3l1.2,1.2l-2.9,16.9l0.9,0.9 c1.9-0.8,3.9-1.6,5.8-2.4l1.3-7.4l0.6-0.3c0.7,1.4,2.2,4.9,2.2,4.9l1,1c4-1.3,8.1-2.5,12.2-3.4c0.2-0.3,0.5-0.5,0.7-0.8 c3-3,6.9-4.6,11.1-4.6c3.2,0,6.2,1,8.8,2.7c0.1,0,0.1,0,0.2,0c0,0,0,0,0,0c3.2,0,6.6-2.6,8.9-6.5c0.2,1.3,0.6,2.4,1.2,3.3 c0.4,0.5,0.8,1,1.3,1.4c1.1,1.4,2.7,2.2,4.5,2.2c0.9,0,1.8-0.2,2.8-0.6l0.2,0.2l4.9,0.6l3-13l-0.9-0.9l-7.5-0.7l-1.2,5.3 l0.9,0.9l1.2,0.1c-0.5,0.9-1.3,1.7-2.7,1.7c-0.5,0-0.8-0.1-1-0.2c-0.5-1.1-0.5-3.1,0.2-5.1c1.4-4,3.4-5.4,4.8-5.4 c0.3,0,0.7,0.1,1,0.2c0.1,0.1,0.1,0.2,0.2,0.3l0.2,0.5l0.9,0.9l3.9-1l0.8,7.5l-2.3,9.2l0.9,0.9l5.9-1.5l1.7-6.7l10.5-16 L105.6,6.5z M26.9,22.3l0.5-3.2l-0.1,0l0.7-0.2l0,0c0.5-0.2,0.9-0.2,1.3-0.2c0.1,0,0.2,0,0.3,0C29.6,19.4,28.9,20.9,26.9,22.3 z M44.8,25.3l-0.6-0.6l-1,0.2l1.7-9.7l-0.3-0.2l2-0.4L44.8,25.3z M66.2,19.3c-0.8,1.9-2.4,3.5-3.5,3.5c-0.1,0-0.3,0-0.4-0.1 c-0.1,0-0.1,0-0.2-0.1c-0.5-1-0.4-2.6,0.2-4.8c0.4-1.3,1.1-2.6,2-3.5c0.8-0.8,1.6-1.3,2.4-1.3l-1.4,1.1l0.5,0.5 C66.2,15.1,67.3,16.5,66.2,19.3z"></path> </g> <path class="st3" d="M5.5,19.6c1.3-0.6,2.6-1.2,4-1.8L4.8,45.4l0.9,0.9c2.4-1.4,4.8-2.8,7.3-4l4.5-26.8l-1-0.5l0-0.2 c2.7-1,5.5-2,8.2-2.9l0.4-0.1l1.2-7.3l-0.9-0.9l-1,0.3C18,5.9,11.5,8.3,5.2,11.2l-0.3,0.1l-1.4,8l0.9,0.9L5.5,19.6z"></path> </g> <g> <path class="st2" d="M34.3,14.8c-2-3.5-9-1.8-14.7,1l0.2,3.9c0.6-0.3,1.2-0.6,1.8-0.8l-3.2,18.8c1-0.4,2.5-1.1,4.5-1.8l1.2-7.3 l1.7-0.9c0.8,1.5,1.8,3.6,2.9,6.1c1.3-0.5,2.7-0.9,4.2-1.4c-1.2-2.9-2.5-5.4-3.4-7C34,22.1,35.9,17.7,34.3,14.8z M24.9,24.1 l0.9-5.6l-1.3-0.5l2.4-0.8C31.4,15.8,32,20.9,24.9,24.1z"></path> <polygon class="st2" points="43.3,14.6 42,13.8 45.6,13.2 46.4,8.7 37.7,10.3 37,14.8 39.2,14.4 37,27 34.9,27.5 34.1,32 42.7,30 43.5,25.5 41.4,26 "></polygon> <polygon class="st2" points="99.1,7.9 94.1,15.5 93.6,10.1 89.4,10.6 90.5,21.4 88.4,29.7 92.9,28.6 94.5,22.2 104.3,7.3 "></polygon> <path class="st2" d="M71.1,9.5c-0.7-1.3-1.7-2.3-3-2.7c-3.9-1.2-8.8,2.7-11,8.5c-1.1,2.9-1.3,5.7-0.8,7.9l1.9-0.2l0.9,0.9 l-0.5,3.1c0.4,0.3,0.8,0.5,1.2,0.6c3.7,1.3,8.6-2.1,11-7.9c1.7-4.4,0.7-7.7-0.7-9.5L71.1,9.5z M66.2,14.1 c3.2,3.2-1.3,10.1-4.1,9.1c-1.5-0.5-2.6-2.3-1.3-6.5c1.3-4.3,5.3-7.1,7-3.8L66.2,14.1z"></path> <path class="st2" d="M23.8,10.5l1-5.9c-6.7,2-13.1,4.3-19.4,7.1l-1.1,6.4c2-1,4.1-1.9,6.2-2.8L5.7,44.2c2-1.1,3.9-2.2,6-3.3 L16,15l-2-1.1C17.3,12.7,20.5,11.5,23.8,10.5z"></path> <path class="st2" d="M53.3,26.8c1.2,0,2.4,0.1,3.5,0.4l0.6-3.4c-2.6,0.2-5.2,0.5-7.7,0.9l2.9-16.7l-4.3,0.5l-3.6,20.9 C47.3,27.7,50.2,26.8,53.3,26.8z"></path> <path class="st2" d="M84.6,13.2l3.8-0.9c-0.5-3.2-2.5-4.7-4-5.2c-3.9-1.3-8.9,2.5-11.3,8.4c-4,9.8,1.8,15.6,8.2,11.8l-0.2,0.9 l3.6,0.4l2.7-11.8l-6.2-0.5l-0.9,4.1l2.5,0.2c-0.9,3.9-3.9,4.1-5.2,3.5c-1.7-0.7-2.1-3.6-1-6.8C79,10.4,83.3,10.2,84.6,13.2z"></path> </g> </g> </g> <path class="st2" d="M54.6,38.6c0-0.4,0.3-0.6,0.6-0.6s0.6,0.3,0.6,0.6s-0.3,0.6-0.6,0.6S54.6,39,54.6,38.6z"></path> </g> </g> </svg> 