<?xml version="1.0" encoding="UTF-8"?> <!-- Generator: Adobe Illustrator 22.0.1, SVG Export Plug-In . SVG Version: 6.00 Build 0) --> <svg xmlns="http://www.w3.org/2000/svg" xmlns:xlink="http://www.w3.org/1999/xlink" id="Layer_1" x="0px" y="0px" viewBox="0 0 99.2 89.1" style="enable-background:new 0 0 99.2 89.1;" xml:space="preserve"> <style type="text/css"> .st0{fill:#D2AA41;} .st1{fill:#002B5C;} .st2{fill:#FFFFFF;} .st3{fill:#E31837;} .st4{fill:#231F20;} .st5{fill:url(#SVGID_1_);} .st6{fill:#D1A941;} .st7{fill:url(#SVGID_2_);} .st8{fill:#00002A;} .st9{fill:url(#SVGID_3_);} .st10{fill:#001846;} .st11{fill:#DCE5EB;} .st12{fill:#E21936;} .st13{fill:url(#SVGID_4_);} .st14{fill:url(#SVGID_5_);} .st15{fill:url(#SVGID_6_);} .st16{fill:url(#SVGID_7_);} .st17{fill:url(#SVGID_8_);} .st18{fill:#828E96;} .st19{fill:#9D0620;} .st20{fill:#022E61;} .st21{fill:#9C8C85;} .st22{fill:#FDFDFD;} .st23{fill:#F17636;} .st24{fill:#EF7636;} .st25{fill:#37246A;} .st26{fill:#FFC425;} .st27{fill:#00A160;} .st28{fill:#00483A;} .st29{fill:#FFD200;} .st30{fill:#B0B7BC;} .st31{fill:#652D89;} .st32{fill:#C4CED4;} .st33{fill:#0080C5;} .st34{fill:#00539B;} .st35{fill:#002D62;} .st36{fill:#D31245;} .st37{fill:#98002E;} </style> <g> <path class="st2" d="M79,42.9v-7.1H65.3c0.1-0.1,0.1-0.2,0.1-0.3c0.1-1.4,1.2-2.4,2.1-3c2.6,0.2,4.3,1,4.8,2.4 c0,0.1,0.2,0.2,0.3,0.3c0.1,0,0.3,0,0.4,0c1.3-0.7,2.8-1.1,4.3-1c2.2,0.1,4.2,0.9,5.6,2.4c0.1,0.1,0.2,0.2,0.4,0.1 c0.1,0,0.3-0.1,0.3-0.2c1.2-1.4,3-2.2,4.9-2.2c1.3,0,2.5,0.4,3.5,1.2c0.1,0.1,0.3,0.1,0.5,0c0.2-0.1,0.3-0.3,0.2-0.4 c-0.1-2.5-1.5-4.8-2.6-6.2c-1.4-1.7-3.2-3.2-4.7-3.9c-2.3-1-4.9-2.3-5.2-3.5c-0.1-0.4,0-0.8,0.4-1.3c0.1-0.1,0.1-0.3,0.1-0.4 c0-0.1-0.2-0.3-0.3-0.3c-0.1,0-1.3-0.4-3-0.4c-2.2,0-4.1,0.7-5.5,2.1c-1.9,1.8-3.8,3-5.5,3.7c-0.4,0.1-0.8,0.3-1.2,0.3 c-0.3,0.1-0.7,0.1-1,0.1c-2.3,0-4.4-1.2-5.2-2.9c-0.3-0.7-0.3-1.4-0.1-2.1c0.3-0.8,0.9-1.4,1.8-1.8c0.8,0.5,2.1,0.6,2.6,0.6 c0.1,0,0.2,0,0.3,0c0,0,0,0,0,0c0.6,0,0.8,0.9,0.9,1.4c0.1,0.4,0.3,0.7,0.5,0.9c0,0.1-0.1,0.2,0,0.3c0,0.2,0.1,0.3,0.3,0.4 c0.3,0.1,0.6,0.2,0.9,0.2c0.5,0,0.9-0.2,1.1-0.5c0.1-0.1,0.2-0.3,0.2-0.4c0.6,0,0.9-0.2,1-0.4c0.2-0.2,0.4-0.6,0.3-1.2 c0-0.2-0.1-0.3-0.3-0.4c-0.2-0.1-0.4,0-0.5,0.1c0,0-0.2,0.1-0.3,0.1c0,0-0.1,0-0.1,0c0,0,0,0,0,0c0,0,0,0,0,0 c0.2-0.2,0.3-0.5,0.3-0.7c0.2-0.1,0.4-0.2,0.5-0.3c0.3,0.2,0.6,0.4,0.8,0.6v0.1c0,0.2,0.2,0.5,0.4,0.5c0.8,0.1,1.6-0.6,1.7-1.5 c0.1-0.7-0.1-1.7-1.2-2.1c-0.3-0.3-1.3-1.3-2.2-1.7c-0.2-0.5-0.7-1.4-1.8-1.8c-0.2-0.3-0.6-1-1.3-1.7c-0.2-1.3-0.9-3.1-2.9-4.6 C62,6,61.7,6,61.6,6.1c-0.2,0.1-0.2,0.4-0.1,0.6c0,0,0.5,1,0.7,2.3c-0.2-0.1-0.5-0.2-0.8-0.2c-0.2,0-0.3,0-0.4,0.1c0,0,0,0-0.1,0.1 c-0.6-0.2-1.6-0.4-2.6-0.4c-0.2,0-0.3,0-0.5,0c-0.1,0-0.3,0.1-0.4,0.2S57.3,9,57.4,9.2c0,0.1,0.2,0.8-1,1.4 c-0.1,0.1-0.2,0.2-0.2,0.3c0,0.1,0,0.3,0.1,0.4c0,0,0.6,1-0.5,2.4c-0.1,0.1-0.1,0.2-0.1,0.4c0,0.1,0.1,1.1-1.2,1.5 c-0.2,0-0.3,0.2-0.3,0.3c0,0,0,0.1,0,0.1c-0.7-1.5-1.9-2.9-3-4.1c-0.2-0.2-0.4-0.4-0.6-0.7c-0.6-0.6-1.2-1.2-1.7-2.2c0,0,0,0,0,0 c1.2,0,2.1-0.6,2.4-0.8c0.1,0,0.2,0,0.3,0c0.8,0,2.1,0.3,2.5,0.5C54.2,9,54.5,9,54.8,9.1c0,0.1,0.1,0.2,0.1,0.3 c0.1,0.1,0.3,0.2,0.5,0.1c1-0.3,1.2-0.9,1.3-1.2c0-0.2,0-0.4,0-0.6c0.3-0.2,0.6-0.5,0.7-0.8c0.1-0.4,0-0.9-0.4-1.3 c-0.1-0.1-0.2-0.1-0.3-0.2c0-0.1-0.1-0.2-0.1-0.3c0-0.1,0.1-0.2,0.1-0.3C56.7,5,57,5,57.2,4.9c0.5-0.4,0.8-1.1,0.5-1.8 c-0.3-0.8-0.9-1.3-1.7-1.3c-0.2,0-0.4,0-0.7,0.1c-0.3,0-1.1-0.1-1.9-0.1c-0.8,0-1.5,0.1-1.9,0.2c-0.3-0.2-0.9-0.4-1.7-0.4 c-0.3,0-0.5,0-0.8,0.1c-0.3-0.1-1-0.3-1.9-0.4C46.5,0.8,45.1,0,43.1,0c-0.6,0-1.2,0.1-1.9,0.2c-0.2,0.1-0.4,0.3-0.4,0.5 c0,0.2,0.2,0.4,0.4,0.5c0,0,1.1,0.2,2.2,0.9c-0.1,0-0.2,0.1-0.2,0.1C43.1,2.2,43,2.4,43,2.5c0,0,0,0.1,0,0.1 c-0.7,0.3-1.7,0.8-2.6,1.6c-0.1,0.1-0.2,0.3-0.1,0.4c0,0.2,0.1,0.3,0.3,0.4c0,0,0.3,0.1,0.4,0.4c0.1,0.3,0,0.7-0.3,1.1 c-0.1,0.1-0.1,0.3,0,0.4c0,0.1,0.2,0.2,0.3,0.3c0,0,1.1,0.4,1.1,2.1c0,0.2,0.1,0.4,0.3,0.4c0,0,0.8,0.3,1,0.9 c0.1,0.3,0.1,0.6-0.1,0.9c-0.1,0.1-0.1,0.3,0,0.4c0.1,0.1,0.2,0.2,0.4,0.2l1.5,0.2c0,0,0,0,0,0c0.7,0.9,1,1.7,0.9,2.5 c-0.1,0.7-0.6,1.2-1.2,1.5l0.1-0.1c0.1-0.1,0.2-0.3,0.1-0.5c0-0.2-0.2-0.3-0.3-0.3c-1.4-0.4-1.2-1.4-1.2-1.5c0-0.1,0-0.3-0.1-0.4 c-1.1-1.4-0.5-2.4-0.5-2.4C43,11.2,43,11,43,10.9c0-0.1-0.1-0.2-0.2-0.3c-1.2-0.6-1-1.3-1-1.4c0-0.1,0-0.3-0.1-0.4 c-0.1-0.1-0.2-0.2-0.4-0.2c-0.2,0-0.3,0-0.5,0c-1.1,0-2,0.2-2.6,0.4c0,0,0-0.1-0.1-0.1c-0.1-0.1-0.3-0.2-0.4-0.1 C37.5,8.8,37.3,8.9,37,9c0.2-1.3,0.7-2.3,0.7-2.3c0.1-0.2,0.1-0.4-0.1-0.6C37.4,6,37.2,6,37,6.1c-1.9,1.4-2.6,3.2-2.9,4.6 c-0.7,0.7-1.2,1.3-1.3,1.7c-1.1,0.5-1.6,1.4-1.8,1.8c-0.9,0.3-1.9,1.3-2.2,1.7c-1.1,0.4-1.4,1.4-1.2,2.1c0.2,0.9,0.9,1.6,1.7,1.5 c0.2,0,0.4-0.2,0.4-0.5v-0.1c0.2-0.2,0.5-0.4,0.8-0.6c0.1,0.1,0.3,0.2,0.5,0.3c0,0.2,0.1,0.5,0.3,0.7l0,0c0,0,0,0,0,0 c0,0-0.1,0-0.1,0c-0.1,0-0.3-0.1-0.3-0.1C30.8,19,30.6,19,30.4,19c-0.2,0.1-0.3,0.2-0.3,0.4c-0.1,0.6,0.1,1,0.3,1.2 c0.2,0.2,0.5,0.4,1,0.4c0.1,0.2,0.1,0.3,0.2,0.4c0.3,0.3,0.7,0.5,1.1,0.5c0.3,0,0.6-0.1,0.9-0.2c0.2-0.1,0.3-0.2,0.3-0.4 c0-0.1,0-0.2,0-0.3c0.2-0.2,0.4-0.5,0.5-0.9c0.1-0.5,0.4-1.4,0.9-1.4c0,0,0,0,0,0c0.1,0,0.2,0,0.3,0c0.5,0,1.7-0.1,2.6-0.6 c0.9,0.4,1.5,1,1.8,1.8c0.3,0.7,0.2,1.4-0.1,2.1c-0.8,1.7-2.9,2.9-5.2,2.9c-0.4,0-0.7,0-1-0.1c-0.4-0.1-0.8-0.2-1.2-0.3 c-1.7-0.6-3.6-1.9-5.5-3.7c-1.4-1.3-3.3-2.1-5.5-2.1c-1.7,0-3,0.4-3,0.4c-0.1,0-0.3,0.2-0.3,0.3c0,0.1,0,0.3,0.1,0.4 c0.4,0.5,0.5,0.9,0.4,1.3c-0.3,1.3-2.9,2.5-5.2,3.5c-1.5,0.7-3.4,2.2-4.7,3.9c-1.1,1.4-2.5,3.7-2.6,6.2c0,0.2,0.1,0.4,0.2,0.4 c0.2,0.1,0.4,0.1,0.5,0c1-0.7,2.2-1.1,3.5-1.2c1.9-0.1,3.7,0.7,4.9,2.2c0.1,0.1,0.2,0.2,0.3,0.2c0.1,0,0.3-0.1,0.4-0.1 c1.4-1.5,3.4-2.3,5.6-2.4c1.5,0,3,0.3,4.3,1c0.1,0.1,0.3,0.1,0.4,0c0.1,0,0.2-0.1,0.3-0.3c0.5-1.4,2.2-2.2,4.8-2.4 c0.9,0.6,2,1.6,2.1,3c0,0.1,0.1,0.2,0.1,0.3H20.1v7.1H0l0,45.4l5.5-3.1c3.3-1.9,6.8-3.5,10.4-4.9c1-0.4,2.8-0.9,4.4,0.6l8.8-8.6 c1.8,9.6,10.3,16.9,20.4,16.9c10.1,0,18.6-7.3,20.4-16.9l8.8,8.6c1.6-1.5,3.4-1,4.4-0.6c3.6,1.4,7.1,3.1,10.4,4.9l5.5,3.1l0-45.4 H79z"></path> <g> <path class="st25" d="M78.5,43.3v-7.1H61.8l-0.3-0.8c2-0.5,3.5,0,3.5,0c0.1-1.7,1.4-2.9,2.5-3.5c3.4,0.2,4.8,1.4,5.3,2.7 c1.3-0.7,2.9-1.1,4.5-1.1c2.4,0.1,4.5,1,5.9,2.5c1.3-1.5,3.2-2.4,5.3-2.3c1.4,0,2.7,0.5,3.8,1.3c-0.2-4.2-4.1-8.4-7-9.7 c-3.4-1.6-6.9-3.2-5-5.6c0,0-4.7-1.6-8,1.5c-1.6,1.5-3.6,3-5.7,3.8c-0.4,0.1-0.9,0.3-1.3,0.4c-2.8,0.5-5.7-0.9-6.7-3.1 c-0.9-1.9,0.2-3.8,2.2-4.6c0.8,0.6,2.4,0.6,2.8,0.6c0.8,0,1.3,0.8,1.5,1.8c0.1,0.7,0.8,0.9,0.8,0.9l-0.4,0.3 c1.4,0.6,1.7-0.5,1.6-0.8c0.9,0.2,1.4-0.3,1.3-1.1c0,0-0.5,0.5-1,0.2c-0.4-0.3-0.9-1.4-1.7-1.9c0.1-0.1,0.2-0.1,0.4,0 c0.7,0.2,1.2,1.2,1.2,1.2c0.3-0.3,0.1-0.8,0.1-0.8c0.4,0.1,0.7-0.3,0.7-0.3C67.8,18,67,17.2,66.1,17c0.2-0.1,0.5-0.2,0.9-0.1 c1.1,0.2,2.9,1.7,2.9,1.7v0.3c1.3,0.1,1.9-2.1,0.2-2.7c0,0-1.3-1.5-2.3-1.7c0,0-0.3-1.3-1.7-1.8c0,0-0.4-0.9-1.4-1.8 c-0.2-1.2-0.8-3-2.7-4.4c0,0,0.8,1.5,0.9,3.2c-0.4-0.2-0.9-0.4-1.4-0.5l0.1,0.4c0,0-1.7-0.8-3.6-0.7c0,0,0.4,1.2-1.2,2 c0,0,0.8,1.3-0.5,3c0,0,0.3,1.5-1.6,2l0.5,0.5c-0.3,0.5-0.6,1-0.8,1.7c-0.1-2.1-1.6-4-3.5-6c-0.9-1-2.1-1.9-2.8-3.7 c1.7,0.4,3-0.6,3-0.6c0.7-0.2,2.6,0.2,3.3,0.5c0.6,0.3,1.2,0.1,1.2,0.1L55.2,9c1.4-0.4,1-1.4,0.7-1.6c0.9-0.1,1.2-0.9,0.7-1.4 c0,0,0,0.6-0.8,0.7c-0.4,0.1-1.5-0.4-2.5-0.5c0.1-0.2,0.4-0.4,1.1-0.5c0.7-0.1,1.8,0.2,1.8,0.2c0-0.4-0.4-0.7-0.4-0.7 c0.3-0.1,0.4-0.6,0.4-0.6c-0.3,0.4-2.1,0.2-3.5,1.1c0.2-0.2,0.4-0.5,0.9-0.8c0.9-0.6,3.2-0.5,3.2-0.5l0.2,0.2 c1-0.7,0.1-2.8-1.5-2.1c0,0-3-0.3-3.9,0.2c0,0-1.2-0.7-2.5-0.3c-0.2-0.1-0.9-0.4-2-0.4c-0.8-0.6-2.8-1.8-5.6-1.1 c0,0,1.7,0.4,3.1,1.5c-0.3,0.1-0.7,0.2-1,0.4l0.4,0.3c0,0-1.7,0.4-3.1,1.7c0,0,1.3,0.5,0.3,2.2c0,0,1.4,0.4,1.4,2.5 c0,0,1.9,0.8,1.2,2.4l1.7,0.2c0,0,0.1,0.1,0.1,0.2c2.3,2.8,0.3,4.4-1,5.1c-0.1-0.2-0.3-0.4-0.4-0.7l0.5-0.5c-1.9-0.5-1.6-2-1.6-2 c-1.3-1.7-0.5-3-0.5-3c-1.6-0.8-1.2-2-1.2-2c-1.9-0.1-3.6,0.7-3.6,0.7l0.1-0.4c-0.5,0.1-1,0.3-1.4,0.5c0.1-1.7,0.9-3.2,0.9-3.2 c-1.9,1.4-2.5,3.2-2.7,4.4c-1,0.9-1.4,1.8-1.4,1.8c-1.4,0.5-1.7,1.8-1.7,1.8c-1,0.2-2.3,1.7-2.3,1.7c-1.8,0.6-1.1,2.8,0.2,2.7 v-0.3c0,0,1.8-1.5,2.9-1.7c0.4-0.1,0.7,0,0.9,0.1c-1,0.1-1.7,0.9-2.2,0.8c0,0,0.4,0.4,0.7,0.3c0,0-0.2,0.5,0.1,0.8 c0,0,0.5-1,1.2-1.2c0.2,0,0.3,0,0.4,0c-0.8,0.5-1.2,1.7-1.7,1.9c-0.5,0.3-1-0.2-1-0.2c-0.1,0.8,0.4,1.3,1.3,1.1 c-0.1,0.3,0.3,1.4,1.6,0.8l-0.4-0.3c0,0,0.7-0.2,0.8-0.9c0.2-1,0.6-1.9,1.5-1.8c0.4,0,2,0,2.8-0.6c2,0.8,3.1,2.7,2.2,4.6 c-1,2.2-3.9,3.5-6.7,3.1c-0.4-0.1-0.9-0.2-1.3-0.4c-2.1-0.8-4.1-2.3-5.7-3.8c-3.3-3.1-8-1.5-8-1.5c1.9,2.4-1.6,4-5,5.6 c-2.8,1.3-6.8,5.5-7,9.7c1.1-0.8,2.4-1.2,3.8-1.3c2.1-0.1,4,0.8,5.3,2.3c1.4-1.5,3.5-2.5,5.9-2.5c1.7,0,3.2,0.4,4.5,1.1 c0.5-1.3,2-2.5,5.3-2.7c1,0.6,2.3,1.7,2.5,3.5c0,0,1.5-0.5,3.5,0l-0.3,0.8H20.6v7.1H0.5v44.1l4.9-2.7c3.3-1.9,6.8-3.5,10.4-5 c1.9-0.7,3.5-0.4,4.6,0.4l9-8.8c0,0,0.1,0,0.1,0c1.5,9.8,9.9,17.3,20.1,17.3c10.2,0,18.6-7.5,20.1-17.3c0,0,0.1,0,0.1,0l9,8.8 c1.1-0.8,2.6-1.1,4.6-0.4c3.6,1.4,7.1,3.1,10.4,5l4.8,2.7l0-44.1H78.5z"></path> </g> <g> <polygon class="st25" points="80,80.4 80.2,80.4 80.2,81.1 80.4,81.1 80.4,80.4 80.7,80.4 80.7,80.3 80,80.3 "></polygon> <polygon class="st25" points="81.6,80.3 81.3,80.8 81.3,80.8 81.1,80.3 80.8,80.3 80.8,81.1 81,81.1 81,80.5 81,80.5 81.3,81.1 81.4,81.1 81.7,80.5 81.7,80.5 81.7,81.1 81.9,81.1 81.9,80.3 "></polygon> </g> <g> <polygon class="st2" points="37.5,39.3 37.5,41.9 35.4,41.9 35.4,39.3 33.8,39.3 33.8,46.1 35.4,46.1 35.4,43.5 37.5,43.5 37.5,46.1 39.1,46.1 39.1,39.3 "></polygon> <polygon class="st2" points="42.8,43.5 45,43.5 45,41.9 42.8,41.9 42.8,40.9 46.1,40.9 46.1,39.3 41.2,39.3 41.2,46.1 46.1,46.1 46.1,44.5 42.8,44.5 "></polygon> <polygon class="st2" points="64.5,43.5 66.7,43.5 66.7,41.9 64.5,41.9 64.5,40.9 67.8,40.9 67.8,39.3 62.9,39.3 62.9,46.1 67.8,46.1 67.8,44.5 64.5,44.5 "></polygon> <path class="st2" d="M60,39.3h-4.4v6.9H60l0.9-0.9v-5L60,39.3z M59.2,44.5h-2.1v-3.6h2.1V44.5z"></path> <path class="st2" d="M74.3,39.3h-4.4v6.9h4.4l0.9-0.9v-5L74.3,39.3z M73.5,44.5h-2.1v-3.6h2.1V44.5z"></path> <path class="st2" d="M52.6,39.3H49l-0.9,0.9v6h1.6v-2h2.1v2h1.6v-6L52.6,39.3z M49.8,42.5v-1.6h2.1v1.6H49.8z"></path> <polygon class="st2" points="28.8,42.7 29.3,42.2 29.3,40.2 28.4,39.3 24.9,39.3 24,40.2 24,41.2 25.6,41.2 25.6,40.9 27.7,40.9 27.7,41.9 26.2,41.9 26.2,43.5 27.7,43.5 27.7,44.5 25.6,44.5 25.6,44.2 24,44.2 24,45.2 24.9,46.1 28.4,46.1 29.3,45.2 29.3,43.2 "></polygon> </g> <g> <path class="st26" d="M51.9,52.5c0.3-0.3,0.8-0.5,1.4-0.5H55v11c0,0.6-0.2,1-0.5,1.3l3.9,0.2c-0.3-0.3-0.5-0.8-0.5-1.4V51.9h1.9 c0.6,0,1.1,0.2,1.4,0.5l0-3.3h-9.1V52.5z"></path> <path class="st26" d="M69.4,51.9c0.6,0,1.1,0.2,1.4,0.5l0-3.3H62c0.3,0.3,0.5,0.8,0.5,1.4v13.1c0,0.5-0.2,1-0.5,1.3 c2.8,0.3,5.9,0.8,8.7,1.3v-3.5c-0.3,0.3-0.8,0.4-1.4,0.3c-1.2-0.2-2.7-0.5-4-0.7v-4.7h3.3c0.6,0,1.1,0.2,1.4,0.5v-3.9 c-0.3,0.3-0.8,0.5-1.4,0.5h-3.3v-2.9L69.4,51.9z"></path> <path class="st26" d="M39.2,49.1h-3.9c0.3,0.3,0.5,0.8,0.5,1.4v4.1L32,51.1v-0.6c0-0.6,0.2-1.1,0.5-1.4h-3.9 c0.3,0.3,0.5,0.8,0.5,1.4v14.2c0,0.6-0.2,1.1-0.5,1.5l3.9-0.7c-0.3-0.2-0.5-0.7-0.5-1.3v-9.3l3.9,3.4v5.4c0,0.6-0.2,1.1-0.5,1.4 c1.3-0.2,2.6-0.3,3.9-0.5c-0.3-0.3-0.5-0.7-0.5-1.3V50.5C38.7,49.9,38.9,49.4,39.2,49.1z"></path> <path class="st26" d="M51.1,54.9h-6.9v-2.9l4.7,0c0.6,0,1.1,0.2,1.4,0.5l0-3.3h-6.2c-1.5,0-2.7,1.2-2.7,2.7v5.9h6.1v3.5 c-1.8,0-2.9,0.1-4.7,0.2c-0.6,0-1.1-0.1-1.4-0.4l0,3.5c2.9-0.2,5.1-0.3,8.1-0.3c0.3,0,0.5,0,0.8,0v-7.3 C50.3,56.1,50.6,55.4,51.1,54.9z"></path> <path class="st26" d="M87.9,56.5L87.9,56.5v-7.2l6.4,0c0.6,0,1.1,0.2,1.4,0.5l0-3.3h-7.8c-1.5,0-2.7,1.2-2.7,2.7v10.1h7.7v17.9 c-3.4-1.7-6.9-3.1-10.5-4.4c-2.9-1-5.9-1.9-8.9-2.6l6.4,6.2c1.2-1,2.8-0.5,4.9,0.3c3.8,1.5,7.4,3.2,10.9,5.2V58.5 c0-0.8,0.3-1.5,0.9-1.9H87.9z"></path> <path class="st26" d="M24.1,49.1h-6.7v17.2c0,1.5,1.1,2.5,2.8,2c2.2-0.6,4.2-1.2,6.5-1.7V51.8C26.8,50.3,25.6,49.1,24.1,49.1z M24,64.2c-1.3,0.3-2.5,0.6-3.8,1V51.9H24V64.2z"></path> <path class="st26" d="M83,69.6c-0.3-0.6-0.4-1.1-0.4-1.4v-8.3l-1.1-1.1c0.7-0.5,1.1-1.3,1.1-2.2v-4.8c0-1.5-1.2-2.7-2.7-2.7h-7.5 c0.3,0.3,0.5,0.8,0.5,1.4v14.9c0,0.5-0.2,1-0.5,1.2c1.3,0.3,2.6,0.6,3.8,0.9c-0.3-0.4-0.5-0.9-0.5-1.5v-6.7H78l1.7,1.7v7.5 C80.8,68.9,81.9,69.2,83,69.6z M75.7,56.5v-4.6h4.1v4.6H75.7z"></path> <path class="st26" d="M6.4,77.3V54.9l3,4.8l2.8-4.8v14.6c0,0.6-0.2,1.1-0.5,1.6l3.9-1.4c-0.3-0.2-0.5-0.6-0.5-1.2V47.9 c0-0.6,0.2-1.1,0.5-1.4h-3.9c0.3,0.3,0.5,0.8,0.5,1.4v1.4l-2.9,5l-2.9-4.7v-1.7c0-0.6,0.2-1.1,0.5-1.4H3c0.3,0.3,0.5,0.8,0.5,1.4 l0,34c3.5-2,7.1-3.7,10.9-5.2c2.1-0.8,3.7-1.3,4.9-0.3l6.4-6.2c-3,0.7-6,1.6-8.9,2.6C13.2,74.1,9.7,75.6,6.4,77.3z"></path> </g> <g> <g> <path class="st27" d="M43,20.9V28c0,4.2,2.7,7.9,6.6,9.4c3.9-1.5,6.6-5.1,6.6-9.4v-7.1H43z"></path> </g> <g> <path class="st26" d="M47.9,32.3v-6l1.8,2.8l1.6-2.8v2.4c0,0.3-0.1,0.7-0.3,0.9l2.2-0.8c-0.2-0.1-0.3-0.4-0.3-0.7v-5.3 c0-0.3,0.1-0.6,0.3-0.8H51c0.2,0.2,0.3,0.5,0.3,0.8v0.2L49.6,26l-1.7-2.7v-0.4c0-0.3,0.1-0.6,0.3-0.8H46c0.2,0.2,0.3,0.5,0.3,0.8 v11.6l3.6-1.3c0.9-0.3,1.5,0.5,1.5,0.5l3.2-3.8L47.9,32.3z"></path> </g> </g> <g> <path class="st27" d="M33.7,14.1c-0.1,0-0.2,0.1-0.2,0.2c0,0.1,0.1,0.2,0.2,0.2s0.2-0.1,0.2-0.2C33.9,14.2,33.8,14.1,33.7,14.1z"></path> <path class="st27" d="M50,3.4c-0.1,0.1-0.1,0.2-0.1,0.3c0.1,0.1,0.2,0.1,0.3,0.1c0.1-0.1,0.1-0.2,0.1-0.3 C50.3,3.4,50.1,3.4,50,3.4z"></path> <path class="st27" d="M65.4,14.1c-0.1,0-0.2,0.1-0.2,0.2c0,0.1,0.1,0.2,0.2,0.2c0.1,0,0.2-0.1,0.2-0.2 C65.7,14.2,65.6,14.1,65.4,14.1z"></path> </g> <g> <path class="st26" d="M26.2,22.1c-1.2-1.2-2.8-1.7-4.8-1.7c0,0,2.6,0.6,5.1,3.2c3.4,3.5,9.5,5.6,11,2.6c-0.6,0.2-1.3,0.3-2,0.3 C31.6,26.6,28,23.8,26.2,22.1z"></path> <path class="st26" d="M73,22.1c-1.8,1.7-5.4,4.6-9.3,4.5c-0.7,0-1.4-0.1-2-0.3c1.4,3,7.6,0.9,11-2.6c2.5-2.6,5.1-3.2,5.1-3.2 C75.8,20.3,74.2,20.9,73,22.1z"></path> </g> <g> <path class="st27" d="M15.9,34.8c0.6-0.5,1.4-1,2.2-1.3c0.1-0.9,0.4-2.3,1.1-3.4c0,0,0,1.6,0.3,2.9c0.8-0.2,1.5-0.3,2.4-0.3 c-1.3-3.6-1-7.1,0.6-9.8C16.5,27.2,15.9,34.8,15.9,34.8z"></path> <path class="st27" d="M23.8,23.4C21.4,28.9,26,33.5,26,33.5c0.3-0.5,0.9-1,1.6-1.4l-0.7-0.8l2.2,0.2c0.7-0.2,1.6-0.4,2.7-0.5 C31.7,31,24.7,30.4,23.8,23.4z"></path> <path class="st27" d="M34.8,34.6l1.4-1.5l-1.3-0.5c1.7-0.2,3-2.1,3.5-2.8c-1.3,1.1-3.2,1.8-5.4,2.1C33.7,32.5,34.5,33.4,34.8,34.6 z"></path> <path class="st27" d="M20.4,22.1c0-0.4-0.2-0.2-0.3,0c-0.6,1.7-3,2.9-6,4.2c-1.9,0.9-4.5,3.3-5.7,6.1c0.1,0.4,0.6,0.7,1.2,0.4 c0.2-0.7,0.9-2.2,2.3-3.4l0.7,0c0.9-0.9,2.1-1.9,3.8-3C19.5,24.5,20.3,23.2,20.4,22.1z"></path> <path class="st27" d="M76.7,22.9c1.7,2.7,1.9,6.2,0.6,9.8c0.8,0,1.6,0.1,2.4,0.3c0.3-1.3,0.3-2.9,0.3-2.9c0.7,1.1,1,2.5,1.1,3.4 c0.8,0.3,1.5,0.8,2.2,1.3C83.3,34.8,82.7,27.2,76.7,22.9z"></path> <path class="st27" d="M67.4,31c1.1,0.1,2,0.2,2.7,0.5l2.2-0.2l-0.7,0.8c0.7,0.4,1.2,0.9,1.6,1.4c0,0,4.5-4.5,2.2-10.1 C74.5,30.4,67.4,31,67.4,31z"></path> <path class="st27" d="M64.3,32.6L63,33.1l1.4,1.5c0.3-1.2,1.1-2.1,1.9-2.7c-2.3-0.3-4.1-1-5.4-2.1C61.4,30.6,62.7,32.4,64.3,32.6z "></path> <path class="st27" d="M85,26.3c-3-1.4-5.4-2.5-6-4.2c-0.1-0.2-0.3-0.4-0.3,0c0.1,1.1,1,2.4,4,4.3c1.7,1,2.9,2.1,3.8,3l0.7,0 c1.4,1.2,2,2.7,2.3,3.4c0.6,0.3,1.1,0,1.2-0.4C89.5,29.6,86.9,27.2,85,26.3z"></path> </g> <g> <path class="st27" d="M36.7,12l1-0.9l0.9-0.2l-1.1,1.2c0.5,0.1,1,0.2,1.5,0.4l0.7-0.7l0.9-0.2l-1,1.1c0.8,0.3,1.5,0.8,2.3,1.5 c-0.7-1.1-0.7-2.2-0.6-2.8c-0.6-0.5-0.9-1-1-1.5c-1.3,0.1-2.3,0.6-2.3,0.6l-1.7,0.8l0.2-0.7c-0.9,0.4-1.7,1.1-2.1,1.6 C35,12.1,35.8,12,36.7,12z"></path> </g> <g> <path class="st27" d="M62.4,12l-1-0.9l-0.9-0.2l1.1,1.2c-0.5,0.1-1,0.2-1.5,0.4l-0.7-0.7l-0.9-0.2l1,1.1c-0.8,0.3-1.5,0.8-2.3,1.5 c0.7-1.1,0.7-2.2,0.6-2.8c0.6-0.5,0.9-1,1-1.5C60,10,61,10.5,61,10.5l1.7,0.8l-0.2-0.7c0.9,0.4,1.7,1.1,2.1,1.6 C64.2,12.1,63.4,12,62.4,12z"></path> </g> <path class="st27" d="M44,6.5l-1-0.1l0.8-0.6c0,0,0.2,0,0.4,0c0.1-0.4,0.3-0.8,0.5-1.1l-0.9-0.1L44.6,4c0,0,0.3,0,0.6,0 c0.5-0.6,1.1-1.1,1.8-1.5c-0.6-0.1-1.4-0.1-2.4,0.3l0.5,0.4c-1.8,0.5-3,1.3-3,1.3c0.1,0.1,0.1,0.2,0.1,0.3c0.2,0.5,0.2,1,0,1.5 c0.5,0.4,1,1.1,1.2,2.3c0.2,0.2,0.5,0.4,0.8,0.7c-0.2-0.6-0.3-1.2-0.3-1.8C43.9,7.2,44,6.8,44,6.5z"></path> <g> <path class="st26" d="M34.4,13.9c0,0.1,0.1,0.2,0.1,0.3c0,0.3-0.3,0.6-0.6,0.6c-0.2,0-0.4-0.1-0.5-0.3h-0.5c0.1,0.3,0.5,0.7,1,0.7 c1.3,0,1.7-1.3,1.7-2.3C35.1,13.3,34.7,13.6,34.4,13.9z"></path> <path class="st26" d="M49.4,3.5c0,0.1,0,0.2,0.1,0.3C49.6,4.1,50,4.2,50.3,4c0.2-0.1,0.3-0.3,0.3-0.5L51,3.3 c0.1,0.3-0.1,0.8-0.5,1C49.3,5,48.2,4,47.9,3.1C48.4,3.3,49,3.4,49.4,3.5z"></path> <path class="st26" d="M64.8,13.9c0,0.1-0.1,0.2-0.1,0.3c0,0.3,0.3,0.6,0.6,0.6c0.2,0,0.4-0.1,0.5-0.3h0.5c-0.1,0.3-0.5,0.7-1,0.7 c-1.3,0-1.7-1.3-1.7-2.3C64,13.3,64.5,13.6,64.8,13.9z"></path> </g> <g> <path class="st27" d="M41.6,69.6c-2.8,0.2-5.6,0.6-8.3,1c2.3,1.6,5.1,2.8,8,3.6c0.7,0.2,1.1,0,1.1-0.7 C42.3,72.3,42.1,71,41.6,69.6z"></path> <path class="st27" d="M42,77c0.2-0.7-0.1-1.2-0.6-1.3c-3.6-0.9-7-2.4-9.7-4.5c0.6,3.9,2.5,7.3,5.1,10c0.5,0.5,0.9,0.4,1.1,0.3 C39.9,80.5,41.3,79,42,77z"></path> <path class="st27" d="M48.1,76.7c-1.3-0.1-2.5-0.2-3.7-0.4c-0.8-0.1-1,0.9-1.1,1c-0.7,2.1-2,3.8-4.1,4.9c-0.5,0.2-0.3,0.8,0.1,1.1 c2.5,1.7,5.4,2.8,8.6,3.1c0.4,0,0.9-0.3,0.9-1.2l0-7.5C48.9,76.7,48.3,76.7,48.1,76.7z"></path> <path class="st27" d="M43.1,69.5c0.4,1.6,0.7,3.1,0.7,4.4c0,0.6,0.5,0.9,0.9,1c1.1,0.2,2.2,0.3,3.3,0.3c0.6,0,0.9-0.3,0.9-1l0-4.9 C46.9,69.3,45,69.4,43.1,69.5z"></path> <path class="st27" d="M57.5,69.6c-0.4,1.4-0.6,2.6-0.7,3.8c0,0.7,0.3,1,1.1,0.7c2.9-0.8,5.6-2,8-3.6 C63.1,70.2,60.3,69.9,57.5,69.6z"></path> <path class="st27" d="M57.2,77c0.6,2,2,3.4,4.1,4.4c0.2,0.1,0.5,0.2,1.1-0.3c2.6-2.6,4.5-6.1,5.1-10c-2.8,2-6.1,3.6-9.7,4.5 C57.3,75.8,57,76.4,57.2,77z"></path> <path class="st27" d="M59.9,82.3c-2-1.2-3.4-2.8-4.1-4.9c-0.1-0.2-0.3-1.2-1.1-1c-1.2,0.2-2.5,0.3-3.7,0.4c-0.2,0-0.7,0-0.7,1 l0,7.5c0,0.9,0.4,1.2,0.9,1.2c3.2-0.3,6.1-1.4,8.6-3.1C60.2,83.1,60.3,82.5,59.9,82.3z"></path> <path class="st27" d="M50.3,69.3l0,4.9c0,0.7,0.3,1,0.9,1c1.1-0.1,2.2-0.2,3.3-0.3c0.3-0.1,0.9-0.4,0.9-1c0-1.3,0.3-2.8,0.7-4.4 C54.2,69.4,52.2,69.3,50.3,69.3z"></path> </g> </g> </svg> 