<?xml version="1.0" encoding="UTF-8"?> <!-- Generator: Adobe Illustrator 23.0.1, SVG Export Plug-In . SVG Version: 6.00 Build 0) --> <svg xmlns="http://www.w3.org/2000/svg" xmlns:xlink="http://www.w3.org/1999/xlink" id="Layer_1" x="0px" y="0px" viewBox="0 0 3000 3000" style="enable-background:new 0 0 3000 3000;" xml:space="preserve"> <style type="text/css"> .st0{fill:#FFFFFF;} .st1{fill:#002D62;} .st2{fill:#6CADDF;} .st3{fill:#E31837;} </style> <g> <path class="st0" d="M2923,253H76.98l133.73,222.35h-19.48l-75.32,302.08h253.36L241.8,1288.76h337.27l32.34-129.7h10.52 l147.95,245.99c-68.66,69.21-111.14,164.42-111.14,269.38c0,211.02,171.68,382.7,382.7,382.7c37.8,0,75.07-5.68,110.71-16.48 L1499.99,2619l347.84-578.34c35.65,10.8,72.92,16.48,110.72,16.48c211.02,0,382.7-171.68,382.7-382.7 c0-104.96-42.48-200.17-111.14-269.38l69.94-116.29h416.38l167.63-672.33h-179.65L2923,253z"></path> <path class="st1" d="M2865.79,285.35H134.19L267.92,507.7h-51.41l-59.19,237.38h253.36L283.2,1256.41h270.59l32.34-129.7h54.09 l170.82,284.02c-73.47,64.27-119.95,158.66-119.95,263.71c0,193.18,157.17,350.35,350.35,350.35c44.03,0,86.19-8.18,125.04-23.07 l333.51,554.52l333.51-554.52c38.86,14.9,81.01,23.08,125.04,23.08c193.18,0,350.35-157.17,350.35-350.35 c0-105.05-46.49-199.44-119.95-263.71l92.81-154.31h409.4l151.5-607.63h-195.45L2865.79,285.35z"></path> <g> <path class="st2" d="M1869.67,507.7l-36.15,144.98c10.53-2.47,21.31-3.9,32.23-3.9h177.65c25.31,0,49.19,6.99,69.34,19.77 l40.11-160.85h271.56l-35.18,141.08h157.31l166.7-277.17H286.74l81.85,136.08H1869.67z"></path> <g> <path class="st2" d="M1041.44,1324.08c87.6,0,167.79,32.32,229.28,85.65c61.49-53.33,141.68-85.65,229.28-85.65 c87.6,0,167.79,32.32,229.28,85.65c61.49-53.33,141.68-85.65,229.28-85.65c57.17,0,111.18,13.77,158.9,38.15l63.65-105.82 H1040.59l32.34-129.7H890.01l40.6-162.85h-85.53l-40.6,162.85h-63.59l141.65,235.53 C930.26,1337.85,984.27,1324.08,1041.44,1324.08z"></path> <path class="st2" d="M1729.27,1939.14c-61.49,53.33-141.68,85.65-229.28,85.65c-87.6,0-167.79-32.32-229.28-85.65 c-8.95,7.76-18.34,15.02-28.05,21.86l257.33,427.86L1757.32,1961C1747.61,1954.16,1738.22,1946.9,1729.27,1939.14z"></path> </g> </g> <g> <g> <polygon class="st1" points="1853.68,2078.04 1861.06,2078.04 1861.06,2098.28 1866.12,2098.28 1866.12,2078.04 1873.55,2078.04 1873.55,2073.64 1853.68,2073.64 "></polygon> <polygon class="st1" points="1898.55,2073.64 1892.63,2089.75 1892.52,2089.75 1886.77,2073.64 1878.06,2073.64 1878.06,2098.28 1883.09,2098.28 1883.09,2078.7 1883.22,2078.7 1890.09,2098.28 1894.98,2098.28 1902.08,2078.7 1902.21,2078.7 1902.21,2098.28 1907.22,2098.28 1907.22,2073.64 "></polygon> </g> <g> <g> <polygon class="st0" points="1000.42,1040.44 1093.2,1040.44 1169.34,735.05 1076.57,735.05 "></polygon> <polygon class="st0" points="283.91,593.97 267.74,658.82 521.11,658.82 393.62,1170.14 486.39,1170.14 613.88,658.82 1559.75,658.82 1575.92,593.97 "></polygon> <path class="st0" d="M883.94,808.38l-17.26,69.22h93.74l22.69-91.02c7.09-28.45-10.22-51.52-38.67-51.52H720.45l-76.14,305.39 h92.77l59.97-240.54h80.52C882.25,799.9,885.1,803.69,883.94,808.38z"></path> <path class="st0" d="M1850.11,967.12l11.71-46.95h186.94l33.31-133.6c7.09-28.45-10.22-51.52-38.67-51.52h-177.65 c-28.45,0-57.27,23.07-64.36,51.52l-50.45,202.35c-7.09,28.45,10.22,51.52,38.67,51.52h229.16l16.17-64.85h-178.47 C1851.79,975.6,1848.94,971.8,1850.11,967.12z M1889.69,808.38c1.17-4.68,5.91-8.48,10.59-8.48h76.25 c4.68,0,7.53,3.79,6.36,8.48l-11.71,46.95h-93.19L1889.69,808.38z"></path> <path class="st0" d="M2541.71,799.9h174.36l16.17-64.85h-225.06c-28.45,0-57.27,23.07-64.36,51.52l-33.31,133.6h182.83 l-11.71,46.95c-1.17,4.68-5.91,8.47-10.59,8.47h-342.74c-4.68,0-7.53-3.79-6.36-8.47l41.69-167.22h107.81l16.17-64.85h-107.81 l35.18-141.08h-93.74l-98.47,394.96c-7.09,28.45,10.22,51.52,38.67,51.52h444.14c28.45,0,57.27-23.07,64.36-51.52l33.31-133.6 h-182.83l11.71-46.95C2532.29,803.69,2537.03,799.9,2541.71,799.9z"></path> <polygon class="st0" points="1665.51,593.97 1554.19,1040.44 1647.93,1040.44 1759.25,593.97 "></polygon> <path class="st0" d="M1244.76,1170.14l32.34-129.7h135.42c28.45,0,57.27-23.07,64.37-51.52l50.45-202.35 c7.09-28.45-10.22-51.52-38.68-51.52h-229.16l-108.48,435.09H1244.76z M1337.07,799.9h84.72c4.68,0,7.53,3.79,6.36,8.48 l-39.58,158.75c-1.17,4.68-5.91,8.47-10.59,8.47h-84.72L1337.07,799.9z"></path> <polygon class="st3" points="1330.91,1170.14 2623.76,1170.14 2639.93,1105.29 1347.08,1105.29 "></polygon> </g> </g> </g> <g> <g> <path class="st3" d="M749.06,1650.33h126.03c2.26,0,4.41-0.96,5.92-2.64c1.51-1.68,2.24-3.92,1.99-6.17 c-6.16-57.27-28.51-111.25-64.64-156.11c-3.02-3.75-9.38-3.75-12.4,0c-36.19,44.94-58.6,98.92-64.82,156.1 c-0.24,2.25,0.48,4.5,1.99,6.18C744.64,1649.36,746.8,1650.33,749.06,1650.33z"></path> <path class="st3" d="M1008.5,1374.14c-56.98,6.19-110.81,28.48-155.67,64.46c-1.67,1.34-2.73,3.29-2.94,5.42 c-0.21,2.13,0.44,4.26,1.82,5.9c46.04,54.94,73.69,121.73,79.97,193.14c0.36,4.11,3.8,7.27,7.93,7.27h69.75 c4.4,0,7.96-3.57,7.96-7.96v-260.31c0-2.26-0.96-4.42-2.65-5.93C1013,1374.62,1010.76,1373.93,1008.5,1374.14z"></path> <path class="st3" d="M1201.86,1647.68c1.51,1.68,3.66,2.64,5.92,2.64h126.03c2.26,0,4.42-0.96,5.93-2.65 c1.51-1.68,2.23-3.93,1.99-6.18c-6.21-57.18-28.63-111.16-64.82-156.1c-3.02-3.75-9.38-3.75-12.4,0 c-36.13,44.86-58.49,98.84-64.64,156.11C1199.63,1643.76,1200.35,1646,1201.86,1647.68z"></path> <path class="st3" d="M1073.51,1650.33h69.75c4.13,0,7.57-3.15,7.93-7.27c6.28-71.41,33.93-138.2,79.97-193.14 c1.38-1.64,2.03-3.77,1.82-5.9c-0.21-2.13-1.27-4.09-2.94-5.42c-44.86-35.98-98.69-58.27-155.67-64.46 c-2.26-0.21-4.5,0.48-6.18,1.99c-1.69,1.51-2.65,3.67-2.65,5.93v260.31C1065.55,1646.76,1069.11,1650.33,1073.51,1650.33z"></path> <path class="st3" d="M881.01,1701.19c-1.51-1.68-3.66-2.64-5.92-2.64H749.06c-2.26,0-4.42,0.96-5.93,2.65 c-1.51,1.68-2.23,3.93-1.99,6.18c6.21,57.18,28.63,111.16,64.82,156.1c3.02,3.75,9.38,3.75,12.4,0 c36.13-44.86,58.49-98.84,64.64-156.11C883.25,1705.11,882.52,1702.87,881.01,1701.19z"></path> <path class="st3" d="M1009.36,1698.54h-69.75c-4.13,0-7.57,3.15-7.93,7.27c-6.28,71.41-33.93,138.2-79.97,193.14 c-1.38,1.64-2.03,3.77-1.82,5.9c0.21,2.13,1.27,4.09,2.94,5.42c44.86,35.98,98.69,58.27,155.67,64.46 c2.26,0.21,4.5-0.48,6.18-1.99c1.69-1.51,2.65-3.67,2.65-5.93v-260.31C1017.33,1702.11,1013.76,1698.54,1009.36,1698.54z"></path> <path class="st3" d="M1339.74,1701.19c-1.51-1.69-3.67-2.65-5.93-2.65h-126.03c-2.26,0-4.41,0.96-5.92,2.64 c-1.51,1.68-2.24,3.92-1.99,6.17c6.16,57.27,28.51,111.25,64.64,156.11c3.02,3.75,9.38,3.75,12.4,0 c36.19-44.94,58.6-98.92,64.82-156.1C1341.98,1705.12,1341.25,1702.87,1339.74,1701.19z"></path> <path class="st3" d="M1151.19,1705.81c-0.36-4.11-3.8-7.27-7.93-7.27h-69.75c-4.4,0-7.96,3.57-7.96,7.96v260.31 c0,2.26,0.96,4.42,2.65,5.93c1.68,1.51,3.92,2.2,6.18,1.99c56.98-6.19,110.81-28.48,155.67-64.46c1.67-1.34,2.73-3.29,2.94-5.42 c0.21-2.13-0.44-4.26-1.82-5.9C1185.12,1844,1157.47,1777.22,1151.19,1705.81z"></path> <path class="st3" d="M1467.06,1374.14c-56.98,6.19-110.81,28.48-155.67,64.46c-1.67,1.34-2.73,3.29-2.94,5.42 c-0.21,2.13,0.44,4.26,1.82,5.9c46.04,54.94,73.69,121.73,79.97,193.14c0.36,4.11,3.8,7.27,7.93,7.27h69.75 c4.4,0,7.96-3.57,7.96-7.96v-260.31c0-2.26-0.96-4.42-2.65-5.93C1471.55,1374.62,1469.32,1373.93,1467.06,1374.14z"></path> <path class="st3" d="M1660.42,1647.68c1.51,1.68,3.66,2.64,5.92,2.64h126.03c2.26,0,4.42-0.96,5.93-2.65 c1.51-1.68,2.23-3.93,1.99-6.18c-6.21-57.18-28.63-111.16-64.82-156.1c-3.02-3.75-9.38-3.75-12.4,0 c-36.13,44.86-58.49,98.84-64.64,156.11C1658.18,1643.76,1658.91,1646,1660.42,1647.68z"></path> <path class="st3" d="M1532.06,1650.33h69.75c4.13,0,7.57-3.15,7.93-7.27c6.28-71.41,33.93-138.2,79.97-193.14 c1.38-1.64,2.03-3.77,1.82-5.9c-0.21-2.13-1.27-4.09-2.94-5.42c-44.86-35.98-98.69-58.27-155.67-64.46 c-2.26-0.21-4.5,0.48-6.18,1.99c-1.69,1.51-2.65,3.67-2.65,5.93v260.31C1524.1,1646.76,1527.67,1650.33,1532.06,1650.33z"></path> <path class="st3" d="M1467.92,1698.54h-69.75c-4.13,0-7.57,3.15-7.93,7.27c-6.28,71.41-33.93,138.2-79.97,193.14 c-1.38,1.64-2.03,3.77-1.82,5.9s1.27,4.09,2.94,5.42c44.86,35.98,98.69,58.27,155.67,64.46c2.26,0.21,4.5-0.48,6.18-1.99 c1.69-1.51,2.65-3.67,2.65-5.93v-260.31C1475.88,1702.11,1472.32,1698.54,1467.92,1698.54z"></path> <path class="st3" d="M1798.3,1701.19c-1.51-1.69-3.67-2.65-5.93-2.65h-126.03c-2.26,0-4.41,0.96-5.92,2.64 c-1.51,1.68-2.23,3.92-1.99,6.17c6.16,57.27,28.51,111.25,64.64,156.11c3.02,3.75,9.38,3.75,12.4,0 c36.19-44.94,58.6-98.92,64.82-156.1C1800.53,1705.12,1799.81,1702.87,1798.3,1701.19z"></path> <path class="st3" d="M1609.75,1705.81c-0.36-4.11-3.8-7.27-7.93-7.27h-69.75c-4.4,0-7.96,3.57-7.96,7.96v260.31 c0,2.26,0.96,4.42,2.65,5.93c1.68,1.51,3.92,2.2,6.18,1.99c56.98-6.19,110.81-28.48,155.67-64.46c1.67-1.34,2.73-3.29,2.94-5.42 s-0.44-4.26-1.82-5.9C1643.68,1844,1616.03,1777.22,1609.75,1705.81z"></path> <path class="st3" d="M1925.61,1374.14c-56.98,6.19-110.81,28.48-155.67,64.46c-1.67,1.34-2.73,3.29-2.94,5.42 c-0.21,2.13,0.44,4.26,1.82,5.9c46.04,54.94,73.69,121.73,79.97,193.14c0.36,4.11,3.8,7.27,7.93,7.27h69.75 c4.4,0,7.96-3.57,7.96-7.96v-260.31c0-2.26-0.96-4.42-2.65-5.93C1930.11,1374.62,1927.87,1373.93,1925.61,1374.14z"></path> <path class="st3" d="M2118.97,1647.68c1.51,1.68,3.66,2.64,5.92,2.64h126.03c2.26,0,4.42-0.96,5.93-2.65 c1.51-1.68,2.23-3.93,1.99-6.18c-6.21-57.18-28.63-111.16-64.82-156.1c-3.02-3.75-9.38-3.75-12.4,0 c-36.13,44.86-58.49,98.84-64.64,156.11C2116.74,1643.76,2117.46,1646,2118.97,1647.68z"></path> <path class="st3" d="M1990.62,1650.33h69.75c4.13,0,7.57-3.15,7.93-7.27c6.28-71.41,33.93-138.2,79.97-193.14 c1.38-1.64,2.03-3.77,1.82-5.9c-0.21-2.13-1.27-4.09-2.94-5.42c-44.86-35.98-98.69-58.27-155.67-64.46 c-2.26-0.21-4.5,0.48-6.18,1.99c-1.69,1.51-2.65,3.67-2.65,5.93v260.31C1982.65,1646.76,1986.22,1650.33,1990.62,1650.33z"></path> <path class="st3" d="M1926.47,1698.54h-69.75c-4.13,0-7.57,3.15-7.93,7.27c-6.28,71.41-33.93,138.2-79.97,193.14 c-1.38,1.64-2.03,3.77-1.82,5.9c0.21,2.13,1.27,4.09,2.94,5.42c44.86,35.98,98.69,58.27,155.67,64.46 c2.26,0.21,4.5-0.48,6.18-1.99c1.69-1.51,2.65-3.67,2.65-5.93v-260.31C1934.44,1702.11,1930.87,1698.54,1926.47,1698.54z"></path> <path class="st3" d="M2250.93,1698.54h-126.03c-2.26,0-4.41,0.96-5.92,2.64c-1.51,1.68-2.24,3.92-1.99,6.17 c6.16,57.27,28.51,111.25,64.64,156.11c3.02,3.75,9.38,3.75,12.4,0c36.19-44.94,58.6-98.92,64.82-156.1 c0.24-2.25-0.48-4.5-1.99-6.18C2255.34,1699.5,2253.19,1698.54,2250.93,1698.54z"></path> <path class="st3" d="M2068.3,1705.81c-0.36-4.11-3.8-7.27-7.93-7.27h-69.75c-4.4,0-7.96,3.57-7.96,7.96v260.31 c0,2.26,0.96,4.42,2.65,5.93c1.68,1.51,3.92,2.2,6.18,1.99c56.98-6.19,110.81-28.48,155.67-64.46c1.67-1.34,2.73-3.29,2.94-5.42 s-0.44-4.26-1.82-5.9C2102.23,1844,2074.58,1777.22,2068.3,1705.81z"></path> </g> </g> </g> </svg> 