<?xml version="1.0" encoding="UTF-8"?> <!-- Generator: Adobe Illustrator 22.0.1, SVG Export Plug-In . SVG Version: 6.00 Build 0) --> <svg xmlns="http://www.w3.org/2000/svg" xmlns:xlink="http://www.w3.org/1999/xlink" id="Layer_1" x="0px" y="0px" viewBox="0 0 100.1 57.4" style="enable-background:new 0 0 100.1 57.4;" xml:space="preserve"> <style type="text/css"> .st0{fill:#D2AA41;} .st1{fill:#002B5C;} .st2{fill:#FFFFFF;} .st3{fill:#E31837;} .st4{fill:#231F20;} .st5{fill:url(#SVGID_1_);} .st6{fill:#D1A941;} .st7{fill:url(#SVGID_2_);} .st8{fill:#00002A;} .st9{fill:url(#SVGID_3_);} .st10{fill:#001846;} .st11{fill:#DCE5EB;} .st12{fill:#E21936;} .st13{fill:url(#SVGID_4_);} .st14{fill:url(#SVGID_5_);} .st15{fill:url(#SVGID_6_);} .st16{fill:url(#SVGID_7_);} .st17{fill:url(#SVGID_8_);} .st18{fill:#828E96;} .st19{fill:#9D0620;} .st20{fill:#022E61;} .st21{fill:#9C8C85;} .st22{fill:#FDFDFD;} .st23{fill:#F17636;} .st24{fill:#EF7636;} .st25{fill:#37246A;} .st26{fill:#FFC425;} .st27{fill:#00A160;} .st28{fill:#00483A;} .st29{fill:#FFD200;} .st30{fill:#B0B7BC;} .st31{fill:#652D89;} .st32{fill:#C4CED4;} .st33{fill:#0080C5;} .st34{fill:#00539B;} .st35{fill:#002D62;} .st36{fill:#D31245;} .st37{fill:#98002E;} </style> <g> <path class="st2" d="M99.7,11.2C89.9,8,79.8,5.7,69.6,4.5l0.9-3.2l-0.7-0.1C63.3,0.4,56.6,0,50.1,0S36.9,0.4,30.4,1.2l-0.7,0.1 l0.9,3.2C20.3,5.7,10.2,8,0.4,11.2L0,11.3v27L0.8,38c7.7-2.5,15.5-4.4,23.5-5.7c-0.4,4,0.2,8.1,1.8,11.9l0.4,0.8l2.2-2.3 c1.5,4.6,4.5,8.6,8.3,11.5l0.7,0.5l0.8-3.1c3.6,3.2,8.2,5.2,13,5.8l0.9,0.1l-0.9-3.1c1.5,0.3,3.1,0.5,4.7,0.5c0,0,0,0,0,0 c3.3,0,6.4-0.7,9.4-2l0.8-0.4L64,50.2c4.6-1.5,8.6-4.5,11.5-8.3l0.5-0.7l-3.1-0.8c2-2.3,3.6-4.9,4.6-7.8c7.4,1.3,14.8,3.1,22,5.5 l0.8,0.2v-27L99.7,11.2z"></path> <path class="st32" d="M99.5,37.5V11.7C89.5,8.5,79.2,6.2,68.8,5c0.3-1.1,0.6-2.1,0.9-3.2c-13-1.6-26.2-1.6-39.3,0 C30.7,2.9,31,3.9,31.3,5C20.9,6.2,10.6,8.5,0.6,11.7v25.7c8-2.6,16.1-4.5,24.3-5.8c-0.6,4.2,0,8.4,1.7,12.3l2.3-2.4 c1.4,4.8,4.3,9.1,8.4,12.1l0.8-3.3c3.6,3.5,8.3,5.7,13.4,6.3l-0.9-3.2c4.9,1.2,10.1,0.8,14.7-1.2l-2.4-2.3 c4.8-1.4,9.1-4.3,12.1-8.4l-3.3-0.8c2.4-2.5,4.2-5.5,5.3-8.8C84.6,33.2,92.1,35.1,99.5,37.5z"></path> <g> <polygon class="st32" points="77.4,33.2 77.6,33.2 77.6,33.8 77.7,33.8 77.7,33.2 78,33.2 78,33.1 77.4,33.1 "></polygon> <polygon class="st32" points="78.7,33.1 78.5,33.6 78.5,33.6 78.3,33.1 78.1,33.1 78.1,33.8 78.2,33.8 78.2,33.2 78.2,33.2 78.4,33.8 78.6,33.8 78.8,33.2 78.8,33.2 78.8,33.8 78.9,33.8 78.9,33.1 "></polygon> </g> <path class="st33" d="M54.6,42.4c-0.8,0.2-1.7,0.3-2.6,0.4c0,0-0.1,0-0.1,0c-0.6,0-1.1-0.4-1.1-1.1l0-9.6c2.4,0,4.7,0.2,6.9,0.6 c-1.2,2.5-1.8,4.9-1.8,7C55.9,41.5,55.7,42.1,54.6,42.4z M59.2,33c2.4,0.5,4.8,1.1,6.9,2c-1.8,2.4-4.1,4.3-6.8,5.7 c-0.3,0.1-0.6,0.2-0.9,0.2c-0.6,0-1-0.4-1-1.1C57.4,37.7,58,35.4,59.2,33z M41,33c1.2,2.5,1.8,4.8,1.8,6.8c0,0.7-0.4,1.1-1,1.1 c-0.3,0-0.5-0.1-0.9-0.2c-2.7-1.4-5-3.4-6.8-5.7C36.2,34.1,38.5,33.4,41,33z M41.6,44.2c-0.2,0.4-0.5,0.8-0.8,1.2 c-0.2,0.2-0.5,0.4-0.9,0.4c-0.3,0-0.7-0.1-1-0.3c-3.5-2.3-6.1-5.6-7.6-9.4c0.4-0.2,0.8-0.4,1.3-0.6c2.1,2.9,4.9,5.2,8.2,6.8 c0.4,0.2,0.7,0.5,0.8,0.8C41.8,43.5,41.8,43.9,41.6,44.2z M49.3,47.5c0,0.4-0.1,0.7-0.3,0.9c-0.2,0.2-0.5,0.3-0.9,0.3 c-0.1,0-0.1,0-0.2,0c-1.7-0.2-3.4-0.6-5-1.2c-0.4-0.2-0.7-0.4-0.8-0.7c-0.1-0.2-0.1-0.4,0-0.7c0,0,0,0,0-0.1 c0.3-0.4,0.6-0.9,0.8-1.4c0.3-0.5,0.8-1.1,1.4-1.1c0.1,0,0.2,0,0.3,0c1.1,0.3,2.2,0.5,3.3,0.6c0.8,0.1,1.2,0.6,1.2,1.4V47.5z M48.2,42.8c0,0-0.1,0-0.1,0c-0.9-0.1-1.7-0.2-2.6-0.4c-1.1-0.3-1.3-0.9-1.3-2.7c0-2.2-0.6-4.5-1.8-7c2.2-0.4,4.5-0.6,6.9-0.6 l0,9.6C49.3,42.4,48.8,42.8,48.2,42.8z M58,46.9c-0.1,0.3-0.4,0.5-0.8,0.7c-1.6,0.6-3.3,1-5.1,1.2c-0.1,0-0.1,0-0.2,0 c-0.7,0-1.2-0.4-1.2-1.2v-1.8c0-0.8,0.5-1.3,1.2-1.4c1.1-0.1,2.3-0.3,3.3-0.6c0.7-0.2,1.4,0.4,1.7,1c0.2,0.5,0.5,0.9,0.8,1.4 c0,0,0,0,0,0.1C58.1,46.4,58.1,46.6,58,46.9z M61.1,45.5c-0.3,0.2-0.6,0.3-1,0.3c-0.4,0-0.7-0.1-0.9-0.4c-0.3-0.4-0.6-0.8-0.8-1.2 c-0.2-0.3-0.2-0.8-0.1-1.1c0.1-0.4,0.4-0.7,0.9-0.8c3.3-1.6,6.1-3.9,8.2-6.8c0.4,0.2,0.9,0.4,1.3,0.6 C67.3,39.9,64.6,43.2,61.1,45.5z"></path> <g> <g> <path class="st34" d="M38,28.1c-2.4,0.2-4.8,0.4-7.1,0.7c0.7,2.2,1.8,4.3,3.1,6.1c2.2-0.8,4.5-1.5,6.9-2 c-0.7-1.4-1.6-2.9-2.7-4.5C38.2,28.4,38.1,28.2,38,28.1z"></path> <g> <path class="st34" d="M41.7,31.3c0.3,0.5,0.5,1,0.7,1.4c2.2-0.4,4.5-0.6,6.9-0.6v-1.1C46.8,31.1,44.3,31.1,41.7,31.3z"></path> </g> <path class="st34" d="M62.1,28.1c-0.1,0.1-0.1,0.2-0.2,0.3c-1.1,1.6-2,3.1-2.7,4.5c2.4,0.5,4.8,1.1,6.9,2 c1.4-1.8,2.5-3.9,3.1-6.1C66.8,28.5,64.5,28.3,62.1,28.1z"></path> <path class="st34" d="M69.3,33.3c-0.2-0.1-0.4,0-0.5,0.2c-0.4,0.7-0.8,1.4-1.3,2c0.4,0.2,0.9,0.4,1.3,0.6 c0.3-0.8,0.5-1.5,0.8-2.3C69.6,33.6,69.5,33.4,69.3,33.3z"></path> <path class="st34" d="M31.3,33.5c-0.1-0.2-0.3-0.2-0.5-0.2s-0.3,0.3-0.2,0.5c0.2,0.8,0.5,1.6,0.8,2.3c0.4-0.2,0.8-0.4,1.3-0.6 C32.2,34.8,31.7,34.2,31.3,33.5z"></path> <g> <path class="st34" d="M50.8,31.1v1.1c2.4,0,4.7,0.2,6.9,0.6c0.2-0.5,0.5-1,0.7-1.4C55.9,31.1,53.3,31.1,50.8,31.1z"></path> </g> </g> <g> <g> <path d="M66.3,6.7c0.3-1.1,0.6-2.1,0.9-3.2C55.8,2.2,44.3,2.2,33,3.4c0.3,1.1,0.6,2.1,0.9,3.2C23.3,7.7,12.8,9.9,2.5,13.1v21.8 c8.3-2.6,16.7-4.5,25.2-5.7c0.3,12.1,10.2,21.9,22.4,21.9c12.2,0,22.1-9.8,22.4-21.9c8.5,1.2,16.9,3.1,25.2,5.7V13.1 C87.4,9.9,76.9,7.7,66.3,6.7z M62.1,28.1c2.4,0.2,4.8,0.4,7.1,0.7c-1.6,5.1-5.2,9.4-9.9,11.8c-0.3,0.1-0.6,0.2-0.9,0.2 c-0.6,0-1-0.4-1-1.1c0-3.3,1.5-7.1,4.5-11.3C61.9,28.4,62,28.2,62.1,28.1z M54.6,42.4c-0.8,0.2-1.7,0.3-2.6,0.4c0,0-0.1,0-0.1,0 c-0.6,0-1.1-0.4-1.1-1.1l0-10.7c2.5,0,5.1,0.1,7.6,0.2c-1.6,3-2.5,5.9-2.5,8.5C55.9,41.5,55.7,42.1,54.6,42.4z M38,28.1 c0.1,0.1,0.1,0.2,0.2,0.3c3,4.2,4.5,8.1,4.5,11.3c0,0.7-0.4,1.1-1,1.1c-0.3,0-0.5-0.1-0.9-0.2c-4.8-2.5-8.4-6.8-10-11.8 C33.3,28.5,35.7,28.3,38,28.1z M41.6,44.2c-0.2,0.4-0.5,0.8-0.8,1.2c-0.2,0.2-0.5,0.4-0.9,0.4c-0.3,0-0.7-0.1-1-0.3 c-4.2-2.8-7.2-6.9-8.4-11.8c0-0.2,0.1-0.4,0.2-0.5s0.4,0,0.5,0.2c2.2,3.9,5.5,6.9,9.5,8.8c0.4,0.2,0.7,0.5,0.8,0.8 C41.8,43.5,41.8,43.9,41.6,44.2z M49.3,47.5c0,0.4-0.1,0.7-0.3,0.9c-0.2,0.2-0.5,0.3-0.9,0.3c-0.1,0-0.1,0-0.2,0 c-1.7-0.2-3.4-0.6-5-1.2c-0.4-0.2-0.7-0.4-0.8-0.7c-0.1-0.2-0.1-0.4,0-0.7c0,0,0,0,0-0.1c0.3-0.4,0.6-0.9,0.8-1.4 c0.3-0.5,0.8-1.1,1.4-1.1c0.1,0,0.2,0,0.3,0c1.1,0.3,2.2,0.5,3.3,0.6c0.8,0.1,1.2,0.6,1.2,1.4V47.5z M48.2,42.8c0,0-0.1,0-0.1,0 c-0.9-0.1-1.7-0.2-2.6-0.4c-1.1-0.3-1.3-0.9-1.3-2.7c0-2.6-0.8-5.4-2.5-8.5c2.5-0.1,5.1-0.2,7.6-0.2l0,10.7 C49.3,42.4,48.8,42.8,48.2,42.8z M58,46.9c-0.1,0.3-0.4,0.5-0.8,0.7c-1.6,0.6-3.3,1-5.1,1.2c-0.1,0-0.1,0-0.2,0 c-0.7,0-1.2-0.4-1.2-1.2v-1.8c0-0.8,0.5-1.3,1.2-1.4c1.1-0.1,2.3-0.3,3.3-0.6c0.7-0.2,1.4,0.4,1.7,1c0.2,0.5,0.5,0.9,0.8,1.4 c0,0,0,0,0,0.1C58.1,46.4,58.1,46.6,58,46.9z M69.5,33.7c-1.2,4.8-4.2,9-8.4,11.8c-0.3,0.2-0.6,0.3-1,0.3 c-0.4,0-0.7-0.1-0.9-0.4c-0.3-0.4-0.6-0.8-0.8-1.2c-0.2-0.3-0.2-0.8-0.1-1.1c0.1-0.4,0.4-0.7,0.9-0.8c4-1.9,7.3-5,9.5-8.8 c0.1-0.2,0.3-0.2,0.5-0.2C69.5,33.4,69.6,33.6,69.5,33.7z"></path> <g> <g> <path class="st33" d="M35.4,9.5c-3.7,0.3-7.4,0.8-11.1,1.4l-2.2,2.5V25c0.7,0.6,1.4,1.2,2.2,1.8c3.7-0.6,7.4-1.1,11.1-1.4 l2.2-2.3V11.5L35.4,9.5z M32.3,20.5c-1.7,0.2-3.4,0.4-5,0.6c0-1.8,0-3.7,0-5.5c1.7-0.2,3.4-0.5,5-0.6 C32.3,16.8,32.3,18.7,32.3,20.5z"></path> <path class="st33" d="M18.4,12c-4.4,0.9-8.7,1.9-13,3.2V31c1.7-0.5,3.4-0.9,5.1-1.4v-4.5c2.6-0.7,5.3-1.3,7.9-1.8 c0.7-0.9,1.4-1.7,2.1-2.6c0-2.3,0-4.7,0-7L18.4,12z M15.5,18.8c-1.7,0.4-3.3,0.8-5,1.2v-1c1.6-0.4,3.3-0.8,5-1.2V18.8z"></path> <path class="st33" d="M78.1,17.7v-6.4c-5.1-0.9-10.2-1.6-15.4-2v15.8c5.1,0.4,10.3,1.1,15.4,2v-6.4c-1.5-0.3-2.9-0.5-4.4-0.7 v-3C75.1,17.2,76.6,17.5,78.1,17.7z"></path> <path class="st33" d="M94.7,17.3l-2.1-2.7c-4.3-1.2-8.7-2.2-13-3v15.8c1.7,0.3,3.4,0.7,5.1,1V24c1.7,0.4,3.3,0.8,5,1.2v4.5 c1.7,0.4,3.4,0.9,5.1,1.4v-6.7l-0.4-0.5l0.4-0.3V17.3z M89.6,20c-1.6-0.4-3.3-0.8-5-1.2c0-0.4,0-0.7,0-1.1 c1.7,0.4,3.3,0.8,5,1.2C89.6,19.3,89.6,19.7,89.6,20z"></path> <path class="st33" d="M57.8,5.7l-3.4,12.3l-2.1-6.5c-1.5,0-3,0-4.5,0l-2.1,6.5L42.3,5.7c-1.8,0.1-3.6,0.2-5.4,0.4L43,28.1 c1.6-0.1,3.2-0.1,4.9-0.1l2.2-6.7l2.2,6.7c1.6,0,3.2,0.1,4.9,0.1l6.1-22.1C61.4,5.9,59.6,5.8,57.8,5.7z"></path> </g> <g> <path class="st2" d="M58.6,6.8l0.4,0.6l-4.4,16.3l-0.1-2l-3-9.1h-3l0.4,0.6l-3.5,10.5l0.1-2L41.5,6.8 c-1.1,0.1-2.2,0.1-3.2,0.2L39,7.5l5.2,19l2.5-0.1c0.1,0.2,0.3,0.4,0.4,0.6l3-9v-1.8l3.4,10.2c0.8,0,1.6,0,2.5,0.1 c0.1,0.2,0.3,0.4,0.4,0.6L61.9,7C60.8,6.9,59.7,6.8,58.6,6.8z"></path> <path class="st2" d="M34.9,10.6c-3.4,0.3-6.8,0.8-10.2,1.3v0l0.2,0.5l-1.2,1.4v10.2l1.2,1c3.2-0.5,6.5-0.9,9.7-1.2l1.2-1.3 l0.6,0.2l0,0V12L34.9,10.6z M33.9,21.9c-0.2-0.2-0.4-0.3-0.6-0.5c-2.4,0.2-4.7,0.5-7.1,0.9v-7.6l-0.6-0.5 c2.7-0.4,5.5-0.8,8.2-1V21.9z"></path> <path class="st2" d="M18,13.1c-3.9,0.8-7.7,1.7-11.6,2.8c0,0,0,0,0,0c0.2,0.1,0.4,0.3,0.6,0.4V29c0.6-0.2,1.3-0.4,1.9-0.5 c0.2,0.1,0.4,0.3,0.6,0.4c0,0,0,0,0,0l0-4.5c-0.2-0.1-0.4-0.3-0.6-0.4c2.9-0.8,5.9-1.5,8.9-2.1l1.2-1.5l0.6,0.1v-6.2L18,13.1z M17,20.1l-0.6-0.4c-2.3,0.5-4.7,1.1-7,1.7v-3.1c-0.2-0.1-0.4-0.3-0.6-0.4c2.7-0.7,5.4-1.4,8.1-1.9V20.1z"></path> <path class="st2" d="M76.5,15.9l0.6,0.7v-4.4c-4.4-0.8-8.9-1.3-13.3-1.7v0l0.6,0.6v12.7c4.1,0.4,8.1,0.9,12.2,1.6l0.6,0.7 c0,0,0,0,0,0l0-4.4c-1-0.2-2.1-0.3-3.1-0.5l0.6,0.6V23l-0.6-0.6c-2.4-0.4-4.7-0.7-7.1-0.9v-2.2l-0.6-0.6 c1.9,0.2,3.9,0.4,5.8,0.7l0.6,0.6v-3.1c-1.9-0.3-3.9-0.5-5.8-0.7v-2.2l-0.6-0.6c2.7,0.3,5.5,0.6,8.2,1.1v1.3 C75.2,15.7,75.8,15.8,76.5,15.9z"></path> <path class="st2" d="M93.7,17.5l-1.5-2c-3.8-1-7.7-1.9-11.6-2.7v0l0.6,0.7v12.7c0.7,0.1,1.3,0.3,2,0.4l0.6,0.7l0,0v-4.5 l-0.6-0.7c2.7,0.6,5.4,1.2,8.1,1.9v4.5c0.6,0.2,1.3,0.3,1.9,0.5l0.6,0.7c0,0,0,0,0,0v-5.2l-0.8-1l0.8-0.6V17.5z M91.2,22 l-0.6-0.7v0c-2.3-0.6-4.6-1.2-7-1.7v-3.1l-0.6-0.7c2.7,0.6,5.4,1.2,8.1,1.9V22z"></path> </g> </g> </g> </g> </g> </g> </svg> 