<?xml version="1.0" encoding="UTF-8"?> <!-- Generator: Adobe Illustrator 23.0.1, SVG Export Plug-In . SVG Version: 6.00 Build 0) --> <svg xmlns="http://www.w3.org/2000/svg" xmlns:xlink="http://www.w3.org/1999/xlink" id="Layer_1" x="0px" y="0px" viewBox="0 0 3000 3000" style="enable-background:new 0 0 3000 3000;" xml:space="preserve"> <style type="text/css"> .st0{fill:#FFDC00;} .st1{fill:#F58220;} .st2{fill:#74C044;} </style> <g> <g> <path class="st0" d="M2280.13,1479.51c-3.63-267.84-141.52-503.85-349.29-643.64L1491.89,27l-438.95,808.87 c-207.76,139.79-345.65,375.79-349.28,643.64l-561.9,1035.43h703.71l65.25-120.24h236.64 c93.93,116.61,202.63,169.42,344.53,169.42c141.9,0,250.6-52.81,344.54-169.42h236.64l65.25,120.24h703.71L2280.13,1479.51z"></path> <g> <polygon class="st0" points="2756.5,2553.43 2767.44,2553.43 2767.44,2583.46 2774.95,2583.46 2774.95,2553.43 2785.97,2553.43 2785.97,2546.9 2756.5,2546.9 "></polygon> <polygon class="st0" points="2823.06,2546.9 2814.27,2570.8 2814.11,2570.8 2805.58,2546.9 2792.66,2546.9 2792.66,2583.46 2800.12,2583.46 2800.12,2554.4 2800.31,2554.4 2810.51,2583.46 2817.77,2583.46 2828.29,2554.4 2828.48,2554.4 2828.48,2583.46 2835.92,2583.46 2835.92,2546.9 "></polygon> </g> <path class="st1" d="M2221.98,1494.35c0.01-1.33,0.04-2.66,0.04-3.98c0-257.27-133.76-483.88-335.38-613.96l-394.75-727.42 L1097.14,876.4c-201.62,130.08-335.38,356.69-335.38,613.97c0,1.32,0.03,2.65,0.04,3.98l-522.27,962.41h571.31l65.25-120.24 h299.87c86.97,118.28,183.43,169.42,315.93,169.42s228.97-51.15,315.94-169.42h299.86l65.25,120.24h571.31L2221.98,1494.35z"></path> <path d="M2163.51,1508.59c0.2-6.12,0.32-12.2,0.32-18.22c0-242.01-128.62-454.51-321.07-572.83l-350.87-646.56l-350.87,646.56 c-192.45,118.31-321.07,330.83-321.07,572.84c0,6.02,0.12,12.11,0.32,18.22L337.3,2398.57h438.91l65.25-120.25h364.72 c80.65,120.14,164.12,169.42,285.7,169.42c121.58,0,205.06-49.28,285.7-169.42h364.72l65.25,120.25h438.91L2163.51,1508.59z"></path> <g> <g> <path class="st2" d="M1332.75,1005.71c38.62-10.47,78.57-17.14,118.67-19.79c15.96-1.3,20.34-6.63,20.34-24.79v-75.62 c-78.08,2.55-152.41,19.89-220.29,49.31c17.42,18.25,32,37.65,43.4,58.03C1302.3,1007.34,1312.57,1010.79,1332.75,1005.71z"></path> <path class="st2" d="M1245.01,1036.9c9.6-4.09,14.97-8.43,16.48-13.29c1.19-3.83,0.07-8.37-3.42-13.89 c-11.59-19.99-26.73-38.91-45.13-56.56c-177.54,92.38-303.52,270.17-323.47,478.92c-0.95,13.39,9.78,18.78,14.72,1.75 C951.72,1259.97,1075.13,1112.49,1245.01,1036.9z"></path> <path class="st2" d="M1532.37,985.93c40.1,2.65,80.05,9.31,118.67,19.79c20.18,5.08,30.44,1.63,37.88-12.86 c11.4-20.37,25.98-39.77,43.4-58.03c-67.89-29.42-142.21-46.76-220.29-49.31v75.62 C1512.02,979.29,1516.41,984.62,1532.37,985.93z"></path> <path class="st2" d="M1733.87,1078.92c-9.69-4.33-21.66-8.82-28.25-5.05c-3.84,2.2-6.26,7.55-7.19,15.96 c-16.08,122.78,67.05,263.55,144.17,374.65c52.27-9.75,106.34-7.54,157.8,6.64c32.35,117.44,2.4,248.45-89.89,340.74 c-92.29,92.29-223.3,122.24-340.74,89.89c-32.36-117.44-2.4-248.45,89.89-340.74c40.98-40.98,89.6-69.64,141.27-86.04 c-79.51-116.21-161.76-262.05-141.72-395.27c2.31-20.82,1.34-29.23-18-34.94c-35.18-9.58-71.5-15.78-108.01-18.42 c-7.27-0.62-12.95,0.74-16.45,3.95c-3.14,2.88-4.73,7.33-4.73,13.24v1091.65c0,13.6,6.84,21.14,21.09,23.1 c43.3,7.89,79.05,27.52,98.09,53.88c3.64,5.05,5.1,11.21,4.12,17.36c-1,6.15-4.32,11.53-9.35,15.16 c-10.41,7.53-25,5.18-32.55-5.23c-16.88-23.37-56.74-38.46-101.53-38.46c-44.8,0-84.66,15.1-101.54,38.46 c-7.55,10.41-22.14,12.76-32.55,5.23c-5.03-3.63-8.36-9.02-9.35-15.16c-0.98-6.15,0.48-12.31,4.12-17.36 c19.04-26.36,54.79-46,98.09-53.88c14.25-1.95,21.1-9.5,21.1-23.1V1043.53c0-5.91-1.59-10.36-4.73-13.24 c-3.5-3.21-9.18-4.57-16.45-3.95c-36.51,2.64-72.83,8.83-108.01,18.42c-19.34,5.71-20.3,14.12-18,34.94 c20.04,133.22-62.21,279.06-141.72,395.27c51.67,16.4,100.29,45.06,141.27,86.04c92.29,92.29,122.24,223.3,89.89,340.74 c-117.44,32.35-248.45,2.4-340.74-89.89c-92.29-92.29-122.24-223.3-89.89-340.74c51.46-14.18,105.53-16.39,157.8-6.64 c77.13-111.1,160.26-251.88,144.17-374.65c-0.93-8.42-3.35-13.76-7.19-15.96c-6.59-3.77-18.55,0.72-28.25,5.05 c-96.23,45.39-177.82,116.76-235.89,206.37c-59.61,92-91.12,198.69-91.12,308.55c0,68.29,13.7,146.78,44.71,194.55 l287.92,443.61c68.73,105.9,132.14,149.03,236.36,149.03c104.22,0,167.62-43.13,236.36-149.03l287.92-443.61 c31.01-47.77,44.71-126.26,44.71-194.55c0-109.86-31.51-216.55-91.12-308.55C1911.69,1195.68,1830.1,1124.3,1733.87,1078.92z"></path> <path class="st2" d="M2094.31,1432.08c-19.95-208.75-145.92-386.54-323.47-478.92c-18.4,17.65-33.53,36.57-45.13,56.56 c-3.49,5.52-4.62,10.06-3.42,13.89c1.51,4.86,6.88,9.2,16.48,13.29c169.88,75.59,293.29,223.07,340.81,396.93 C2084.53,1450.86,2095.26,1445.47,2094.31,1432.08z"></path> </g> </g> <g> <polygon class="st0" points="1491.89,520.65 1526.1,616.37 1621.82,650.58 1526.1,684.79 1491.89,780.51 1457.68,684.79 1361.96,650.58 1457.68,616.37 "></polygon> <polygon class="st0" points="782.79,1932.89 817,2028.61 912.72,2062.82 817,2097.03 782.79,2192.75 748.58,2097.03 652.86,2062.82 748.58,2028.61 "></polygon> <polygon class="st0" points="2200.99,1932.89 2166.78,2028.61 2071.06,2062.82 2166.78,2097.03 2200.99,2192.75 2235.2,2097.03 2330.92,2062.82 2235.2,2028.61 "></polygon> </g> </g> <g> <path d="M805.16,2635.62c-10.4,0-36.24,4.14-51.64,42.48L645.1,2948h69.8l90.27-224.69l51.82,129h-73.16l-26.01,64.76H883 l12.42,30.93h69.8l-108.42-269.89C841.4,2639.76,815.55,2635.62,805.16,2635.62z"></path> <rect x="1259.31" y="2638.64" width="64.46" height="309.36"></rect> <path d="M1373.42,2736.75v113.14c0,54.1,44.01,98.11,98.1,98.11h180.93v-64.44h-180.93c-18.56,0-33.65-15.11-33.65-33.67v-24.34 l159.19,0v-64.45h-159.19v-24.35c0-18.55,15.1-33.66,33.65-33.66h180.93v-64.45h-180.93 C1417.43,2638.64,1373.42,2682.65,1373.42,2736.75z"></path> <path d="M2138.51,2703.09h185.21v-64.45h-193.47c-47.17,0-85.56,38.39-85.56,85.58v15.77c0,47.18,38.39,85.57,85.56,85.57h99.67 c16.17,0,29.36,12.81,29.36,29c0,16.18-13.18,29-29.36,29h-185.23V2948h193.46c47.18,0,85.57-38.39,85.57-85.56v-15.77 c0-47.18-38.39-85.57-85.57-85.57h-99.65c-16.19,0-29.36-12.82-29.36-29.01C2109.15,2715.91,2122.32,2703.09,2138.51,2703.09z"></path> <path d="M1048.98,2849.36v-210.19h-64.45v210.19c0,54.09,44.01,98.11,98.1,98.11h139.95v-64.45h-139.95 C1064.08,2883.01,1048.98,2867.91,1048.98,2849.36z"></path> <path d="M1930.34,2861.66l-125.75-195.46c-8.04-12.5-20.47-21.12-35-24.28c-16.17-3.52-33.69,0.76-46.92,11.42 c-13.06,10.53-20.55,26.21-20.55,43.01V2948h64.7v-220.95l125.75,195.46c8.04,12.5,20.47,21.12,35,24.28 c16.15,3.51,33.69-0.76,46.92-11.42c13.06-10.53,20.55-26.21,20.55-43.01v-251.65h-64.7V2861.66z"></path> </g> </g> </svg> 