<?xml version="1.0" encoding="UTF-8"?> <!-- Generator: Adobe Illustrator 22.0.1, SVG Export Plug-In . SVG Version: 6.00 Build 0) --> <svg xmlns="http://www.w3.org/2000/svg" xmlns:xlink="http://www.w3.org/1999/xlink" id="Layer_1" x="0px" y="0px" viewBox="0 0 99 85.8" style="enable-background:new 0 0 99 85.8;" xml:space="preserve"> <style type="text/css"> .st0{fill:#D2AA41;} .st1{fill:#002B5C;} .st2{fill:#FFFFFF;} .st3{fill:#E31837;} .st4{fill:#231F20;} .st5{fill:url(#SVGID_1_);} .st6{fill:#D1A941;} .st7{fill:url(#SVGID_2_);} .st8{fill:#00002A;} .st9{fill:url(#SVGID_3_);} .st10{fill:#001846;} .st11{fill:#DCE5EB;} .st12{fill:#E21936;} .st13{fill:url(#SVGID_4_);} .st14{fill:url(#SVGID_5_);} .st15{fill:url(#SVGID_6_);} .st16{fill:url(#SVGID_7_);} .st17{fill:url(#SVGID_8_);} .st18{fill:#828E96;} .st19{fill:#9D0620;} .st20{fill:#022E61;} .st21{fill:#9C8C85;} .st22{fill:#FDFDFD;} .st23{fill:#F17636;} .st24{fill:#EF7636;} .st25{fill:#37246A;} .st26{fill:#FFC425;} .st27{fill:#00A160;} .st28{fill:#00483A;} .st29{fill:#FFD200;} .st30{fill:#B0B7BC;} .st31{fill:#652D89;} .st32{fill:#C4CED4;} .st33{fill:#0080C5;} .st34{fill:#00539B;} .st35{fill:#002D62;} .st36{fill:#D31245;} .st37{fill:#98002E;} </style> <g> <path class="st30" d="M98.3,52.7c-4.6-2.2-9.3-3.8-14.4-4.7V12.8l-0.5-0.4c-4-3.1-8.3-5.7-12.8-7.6c-0.8-1.7-1.8-2.5-2.1-2.8 c-1.4-1.3-3.2-2-5.2-2c-1.6,0-3.2,0.5-4.7,1.4c-3-0.5-6-0.8-9.1-0.8c-12.3,0-24.1,4.1-33.9,11.8l-0.5,0.4v28L0,45v26.4l0.7,0.4 c4.6,2.2,9.3,3.8,14.4,4.7v8.2l1.1,0.2c3.7,0.6,7.6,0.9,11.8,0.9c7.2,0,14.6-0.9,21.7-1.8c7-0.9,14.3-1.7,21.3-1.7 c4.1,0,7.8,0.3,11.4,0.9l1.5,0.3v-8.2c4.7,0.9,9,2.4,13.2,4.4l1.9,0.9V53.1L98.3,52.7z"></path> <g> <path d="M82.6,49.1V13.5c-4-3.1-8.3-5.7-13-7.6c-0.8-1.7-1.7-2.6-2-2.9c-2.6-2.4-6.1-1.9-8.3-0.4c-0.1,0.1-0.2,0.1-0.3,0.2 c-3.1-0.6-6.2-0.8-9.4-0.8c-12.4,0-23.9,4.3-33.1,11.6v28.4L1.3,46v24.5c5,2.5,10.1,4,15.1,4.8v8.2c22.1,3.7,44.1-5.4,66.2-1.7 v-8.2c5,0.8,10.1,2.3,15.1,4.8V53.9C92.7,51.4,87.6,49.9,82.6,49.1z"></path> <g> <polygon class="st30" points="84.6,76.8 84.9,76.8 84.9,77.5 85,77.5 85,76.8 85.3,76.8 85.3,76.6 84.6,76.6 "></polygon> <polygon class="st30" points="86.1,76.6 85.9,77.2 85.9,77.2 85.7,76.6 85.4,76.6 85.4,77.5 85.6,77.5 85.6,76.8 85.6,76.8 85.9,77.5 86,77.5 86.3,76.8 86.3,76.8 86.3,77.5 86.4,77.5 86.4,76.6 "></polygon> </g> <g> <g> <path class="st31" d="M80.3,51V14.6c-3.1-2.3-6.4-4.3-9.8-5.9c0.5,2.5,0.5,5.9-0.7,10.4c-1.4,4.8-1.3,8.6-1.2,14.8 c0.1,6-3.3,13.2-12.8,14c-2.2,2.4-5.1,3.9-6.6,4.4h0c0.7-3.9-3.1-6.1-11.9,0.3c-5.8,4.2-13.4,3.5-18.6,0.7c-5-0.7-10-1.9-15-4.1 v20c30.6,13.3,61.2-7.5,91.9,5.8v-20C90.4,52.9,85.4,51.7,80.3,51z"></path> <path class="st31" d="M49.5,4.2c-11.2,0-21.8,3.6-30.8,10.4v33.6c1.5,0,3-0.1,4.5-0.3c-0.8-0.3-1.6-0.7-2.3-1.3 c2.9-0.8,8.8-3.3,12.8-8.7c-4.6-2.4-7-7.8-5.5-12.9c1.9-7.3,9.4-12.4,17.8-11.1c6.6,1.1,6.9-2.3,8.8-6.4c0.5-1.1,1.1-2,1.9-2.8 C54.3,4.3,51.9,4.2,49.5,4.2z"></path> </g> <g> <g> <path d="M15.6,63.9l1.7,1.7c0-0.5,0-1.1,0-1.4C16.7,64.1,16.2,64,15.6,63.9z"></path> <path d="M22.4,57.1c0,0.9,0,1.8,0,2.7c-3-0.2-6.1-0.6-9.1-1.3c0,2.4,0,4.8,0,7.2c0.5,0.1,1.1,0.2,1.6,0.3c0-2,0-3.9,0-5.9 c3,0.6,6.1,0.9,9.1,1.1v-2.7C23.4,58.1,22.9,57.6,22.4,57.1z"></path> <path d="M24,63.5c-0.5-0.5-1.1-0.9-1.6-1.4c0,2.5,0,5.1,0,7.6c-3.9-0.3-7.7-0.9-11.6-1.9c-0.6-0.2-1.2-0.5-1.6-1c0,0,0,0,0,0 c1,1.3,1.9,2.4,3.2,2.7c3.9,0.9,7.7,1.4,11.6,1.6L24,63.5z"></path> </g> <g> <path d="M75.5,58.9C75.5,58.9,75.5,58.9,75.5,58.9c0,1.7,0,3.3,0,5c0,1.5-1.2,2.6-2.6,2.5c-3.4-0.1-6.8,0.1-10.3,0.3 c0.5,0.4,1.1,0.8,1.6,1.2c3-0.2,5.9-0.2,8.9-0.2c2.1,0,4-1.4,4-4.3v-3.2C76.6,59.8,76,59.3,75.5,58.9 C75.5,58.9,75.5,58.9,75.5,58.9z"></path> <path d="M64.2,63c2.1-0.1,4.1-0.2,6.2-0.2c0-0.4,0-0.9,0-1.3c-2.6,0-5.2,0.1-7.8,0.3C63.1,62.2,63.7,62.6,64.2,63z"></path> <g> <path d="M75.5,53.9c0,0.9,0,1.8,0,2.7c-2.6-0.1-5.2-0.2-7.8-0.1c0,0.8,0,1.5,0,2.3c0.5,0,1.1,0,1.6,0c0-0.4,0-0.8,0-0.9 c2.6,0,5.2,0,7.8,0.2c0-0.9,0-1.8,0-2.7C76.6,54.9,76,54.4,75.5,53.9z"></path> </g> </g> <g> <path d="M34,62.1c0-1.2,0-2.4,0-3.6c-0.5-0.4-1.1-0.8-1.6-1.2c0,1.6,0,3.3,0,4.9C32.9,62.1,33.5,62.1,34,62.1z"></path> <path d="M41.5,56.5c0,4.2,0,8.4,0,12.6c-1.7,0.2-3.4,0.3-5.1,0.5c0.5,0.4,1.1,0.8,1.6,1.2c1.7-0.1,3.4-0.3,5.1-0.5 c0-4.2,0-8.4,0-12.6C42.6,57.2,42.1,56.9,41.5,56.5z"></path> <path d="M36.4,64.6c-1.3,0.1-2.7,0.2-4,0.2c0,1.6,0,3.3,0,4.9c-1.7,0.1-3.4,0.1-5.1,0.1c0.5,0.4,1.1,0.9,1.6,1.3 c1.7,0,3.4-0.1,5.1-0.2c0-1.6,0-3.3,0-4.9c0.8,0,1.6-0.1,2.4-0.2C36.4,65.5,36.4,65,36.4,64.6z"></path> </g> <g> <path d="M50,58.2c0,2.4,0,4.8,0,7.2c0.5-0.1,1.1-0.1,1.6-0.2v-5.9c0.8-0.1,1.6-0.2,2.4-0.3c0-0.4,0-0.9,0-1.3 C52.7,57.8,51.4,58,50,58.2z"></path> <path d="M58.4,55.3c0.5,0.4,0.7,1,0.7,1.8c0,2.4,0,4.9,0,7.3c0,1.5-1.2,2.7-2.6,2.9c-3,0.3-6,0.7-9,1.1 c-0.7,0.1-1.3-0.1-1.7-0.4l0,0c1,1,2,1.7,3.3,1.6c2.5-0.3,5.1-0.6,7.6-0.9c3-0.5,4-2.6,4-4.3v-5.6 C60.8,56.9,59.2,55.8,58.4,55.3z"></path> </g> <g> <path d="M78.2,56.8c0.5,0.5,1.1,1,1.6,1.5c0.8,0.1,1.6,0.2,2.4,0.3c0-0.4,0-0.9,0-1.3C80.9,57.1,79.5,56.9,78.2,56.8z"></path> <path d="M91.3,56.9L91.3,56.9c0,0.9,0,1.8,0,2.7c-1.3-0.5-2.7-0.8-4-1.2c0,3.3,0,6.6,0,9.9c-1.7-0.4-3.4-0.8-5.1-1l1.6,1.6 c1.7,0.3,3.4,0.7,5.1,1.2l0-9.9c1.3,0.4,2.7,0.8,4,1.3v-2.7C92.4,58.1,91.8,57.5,91.3,56.9z"></path> </g> </g> <g> <path class="st2" d="M36.4,57c0,1.6,0,3.3,0,4.9c-1.3,0.1-2.7,0.2-4,0.2c0-1.6,0-3.3,0-4.9c-2.2,0.1-4.4,0.1-6.6,0.1 c0.9,0.9,1.5,2.1,1.5,3.5c0,3,0,6.1,0,9.1c1.7,0,3.4,0,5.1-0.1c0-1.6,0-3.3,0-4.9c1.3-0.1,2.7-0.1,4-0.2c0,1.6,0,3.3,0,4.9 c1.7-0.1,3.4-0.3,5.1-0.5c0-4.2,0-8.4,0-12.6C39.8,56.7,38.1,56.8,36.4,57z"></path> <path class="st2" d="M56.6,54.7c-3,0.3-6,0.7-9,1.1C46.1,56,45,57.3,45,58.7c0,2.4,0,4.9,0,7.3c0,1.5,1.2,2.5,2.6,2.3 c3-0.4,6-0.7,9-1.1c1.4-0.2,2.6-1.4,2.6-2.9c0-2.4,0-4.9,0-7.3C59.2,55.6,58,54.6,56.6,54.7z M54.1,64.9c-1.3,0.2-2.7,0.3-4,0.5 c0-2.4,0-4.8,0-7.2c1.3-0.2,2.7-0.3,4-0.5C54.1,60.1,54.1,62.5,54.1,64.9z"></path> <path class="st2" d="M22.4,59.8c0-0.9,0-1.8,0-2.7c-5.2-0.4-10.5-1.3-15.7-3.2c0.9,1.2,1.5,2.6,1.5,4c0,2.2,0,4.3,0,6.5 c0,1.4,1.2,3,2.6,3.4c3.9,1.1,7.7,1.7,11.6,1.9c0-2.5,0-5.1,0-7.6c-2.3-0.2-4.5-0.4-6.8-0.8c0,0.9,0,1.8,0,2.7 c0.6,0.1,1.1,0.2,1.7,0.3c0,0.8,0,1.5,0,2.3c-1.3-0.2-2.7-0.5-4-0.8c0-2.4,0-4.8,0-7.2C16.3,59.2,19.3,59.6,22.4,59.8z"></path> <path class="st2" d="M75.5,56.6c0-0.9,0-1.8,0-2.7c-3.4-0.2-6.8-0.1-10.3,0c-1.4,0.1-2.6,1.4-2.6,2.8c0,1.7,0,3.3,0,5 c2.6-0.2,5.2-0.3,7.8-0.3c0,0.8,0,1.5,0,2.3c-2.6,0-5.2,0.1-7.8,0.3c0,0.9,0,1.8,0,2.7c3.4-0.3,6.8-0.4,10.3-0.3 c1.5,0,2.6-1.1,2.6-2.5c0-1.7,0-3.3,0-5c-2.6-0.1-5.2-0.2-7.8-0.1c0-0.8,0-1.5,0-2.3C70.3,56.5,72.9,56.5,75.5,56.6z"></path> <path class="st2" d="M91.3,56.9c-4.4-1.5-8.7-2.3-13.1-2.7c0,0.9,0,1.8,0,2.7c1.3,0.1,2.7,0.3,4,0.5c0,3.3,0,6.6,0,9.9 c1.7,0.3,3.4,0.6,5.1,1c0-3.3,0-6.6,0-9.9c1.3,0.3,2.7,0.7,4,1.2C91.3,58.7,91.3,57.8,91.3,56.9z"></path> </g> </g> <g> <path class="st2" d="M41.6,80c0-1.4,0-2.9,0-4.3c-1,0.1-1.9,0.2-2.9,0.3c0.4,0.3,0.6,0.8,0.6,1.4c0,1.3,0,2.6,0,4 c1.8-0.2,3.6-0.4,5.4-0.6c0-0.4,0-0.8,0-1.2C43.8,79.7,42.7,79.8,41.6,80z"></path> <path class="st2" d="M49.4,79.1c0-1.4,0-2.9,0-4.3c-1,0.1-1.9,0.2-2.9,0.3c0.4,0.3,0.6,0.8,0.6,1.4c0,1.3,0,2.6,0,4 c1.8-0.2,3.6-0.4,5.4-0.7c0-0.4,0-0.8,0-1.2C51.6,78.8,50.5,78.9,49.4,79.1z"></path> <path class="st2" d="M27.5,79.2c0.2-0.1,0.3-0.3,0.3-0.5c0-0.6,0-1.1,0-1.1c0-0.6-0.5-1.1-1.1-1.1c-1.9,0-3.8-0.1-5.7-0.3 c0.4,0.4,0.6,1,0.6,1.6c0,1.3,0,2.6,0,4c2.1,0.2,4.1,0.3,6.2,0.3c0-1,0-2,0-2.2C27.7,79.5,27.6,79.3,27.5,79.2z M25.5,80.8 c-0.6,0-1.2,0-1.8-0.1c0-0.3,0-0.7,0-1c0.6,0,1.2,0.1,1.8,0.1C25.5,80.1,25.5,80.4,25.5,80.8z M25.5,78.6c-0.6,0-1.2,0-1.8-0.1 c0-0.3,0-0.7,0-1c0.6,0,1.2,0.1,1.8,0.1C25.5,78,25.5,78.3,25.5,78.6z"></path> <path class="st2" d="M69,75.7c0-0.6,0-1.5,0-1.5c0-0.6-0.5-1.1-1.1-1.1c-1.9,0.1-3.8,0.2-5.7,0.3c0.4,0.3,0.6,0.9,0.6,1.4 c0,1.3,0,2.6,0,4c0.7-0.1,1.5-0.1,2.2-0.1c0-0.6,0-1.2,0-1.8c0.6,0,1.2-0.1,1.8-0.1c0,0.6,0,1.2,0,1.8c0.7,0,1.5-0.1,2.2-0.1 c0-1,0-1.6,0-1.8c0-0.2-0.1-0.4-0.3-0.5C68.9,76,69,75.9,69,75.7z M66.8,75.6c-0.6,0-1.2,0.1-1.8,0.1c0-0.5,0-0.9,0-1.4 c0.6,0,1.2-0.1,1.8-0.1C66.8,74.7,66.8,75.2,66.8,75.6z"></path> <path class="st2" d="M35.3,76.2c-1.9,0.1-3.8,0.2-5.7,0.3c0.4,0.4,0.6,0.9,0.6,1.5c0,1.3,0,2.6,0,4c0.7,0,1.5,0,2.2-0.1 c0-0.6,0-1.2,0-1.8c0.6,0,1.2-0.1,1.8-0.1c0,0.6,0,1.2,0,1.8c0.7,0,1.5-0.1,2.2-0.2c0-1.4,0-2.9,0-4.3 C36.4,76.7,35.9,76.2,35.3,76.2z M34.2,78.8c-0.6,0-1.2,0.1-1.8,0.1c0-0.5,0-0.9,0-1.4c0.6,0,1.2-0.1,1.8-0.1 C34.2,77.9,34.2,78.4,34.2,78.8z"></path> <path class="st2" d="M60.3,74.7c0-0.4,0-0.8,0-1.2c-2.1,0.2-4.1,0.4-6.2,0.6c0.4,0.3,0.6,0.8,0.6,1.4c0,1.3,0,2.6,0,4 c1.8-0.2,3.7-0.4,5.5-0.6c0-0.4,0-0.8,0-1.2c-1.1,0.1-2.2,0.2-3.3,0.3c0-0.3,0-0.7,0-1c0.8-0.1,1.6-0.2,2.4-0.2 c0-0.4,0-0.8,0-1.2c-0.8,0.1-1.6,0.2-2.4,0.2c0-0.3,0-0.7,0-1C58.1,74.9,59.2,74.8,60.3,74.7z"></path> <path class="st2" d="M77.7,74.5c0-0.4,0-0.8,0-1.2c-1.7-0.1-3.4-0.2-5-0.3c-0.6,0-1.1,0.5-1.1,1.1c0,0.7,0,1.4,0,2.2 c1.3,0,2.6,0,4,0.1c0,0.3,0,0.7,0,1c-1.3-0.1-2.6-0.1-4-0.1c0,0.4,0,0.8,0,1.2c1.7,0,3.4,0.1,5,0.2c0.6,0,1.1-0.4,1.1-1 c0-0.7,0-1.4,0-2.2c-1.3-0.1-2.6-0.2-4-0.2c0-0.3,0-0.7,0-1C75.1,74.3,76.4,74.3,77.7,74.5z"></path> </g> </g> <g> <g> <g> <g> <g> <path class="st2" d="M69.3,11.4c-0.6-2.2-3.9-3.9-7.1-3.9c-3.2,0-6.1,0.6-7.4,3.1c-0.3,0.8-0.5,1.7-0.6,2.8 c-0.6,4-4.9,5-8.9,3.1c-3.7-1.8-8.1-0.7-11.2,1.6c2.4-1.1,5.2-1.4,7.9-0.6c5.8,1.8,9.1,7.9,7.3,13.7c-0.8,2.5-2.3,4.5-4.3,5.9 c-0.5,0.6-1.1,1.3-1.9,2c-1.6,1.5-3.4,2.9-5.3,4.1c0.9-1.1,1.8-2.6,2.3-4.3c-1.6,0.2-3.3,0-5-0.5c-3.1,4.3-7.3,6.8-9.9,8.1 c-0.2,0.1-0.4,0.2-0.5,0.3c1.9,0.5,4,0.6,6.2,0.3c-0.5,0.2-1.1,0.4-1.6,0.6l0,0c-4.8,1.8-9.3,2.4-13.4,1.7 c0.9,1,2.1,2,3.6,2.8c2,1.1,4.3,1.7,6.6,1.9c5.3,0,9.1-3.2,12.8-6.4c5.1-4.4,9.9-5.6,12.4-1.8c4.1-2.9,6.4-7.4,6.2-11.3 c2.4,4.8,1.5,8.7-0.4,11.7c0.9-0.2,1.7-0.4,2.5-0.7c0,0,0,0,0,0c5.6-2.1,7.5-7.5,7.4-11.7c-0.1-6.1-0.2-10.2,1.3-15.2 C69.1,15.8,69.4,13.4,69.3,11.4z M61.1,9.5c0.5-0.2,1.3,0.5,1.6,1.5c0.3,1,0.2,2-0.4,2.1c-0.5,0.2-1.3-0.5-1.6-1.5 C60.4,10.7,60.5,9.7,61.1,9.5z M64.1,19.3c-0.4-1.2-1.5,0.3-1.8,1.2c-0.3,0.9-0.7,2.8-2,2.6c-1.2-0.1-0.2-3.7,0.6-5.3 c1-2.2,1.7-3.8,3-3.7c1.4,0,1.6,2.2,1.7,4.6C65.7,20.3,64.6,20.5,64.1,19.3z M66.8,11.7c-0.3,1-1,1.6-1.5,1.5 c-0.5-0.2-0.7-1.1-0.4-2.1s1-1.6,1.5-1.5C66.9,9.8,67.1,10.7,66.8,11.7z"></path> <path class="st2" d="M62.1,4.8c2.5,0,4.7,0.7,6.1,1.8c-2.4-5.1-7.2-4.5-10.4-1C59.1,5.1,60.5,4.8,62.1,4.8z"></path> </g> </g> </g> <g> <path class="st30" d="M67,33.8c0-1.4-0.1-2.7-0.1-4c-1.6,9.6-5.6,12-8.3,13c-0.3,1.2-0.9,2.3-1.5,3.3c0.9-0.2,1.7-0.4,2.5-0.7 l0,0C65.2,43.4,67.1,38.1,67,33.8z"></path> <path class="st30" d="M57.6,34.6c0.2,3.9-2.2,8.3-6.2,11.3c-2.5-3.8-7.3-2.6-12.4,1.8c-3.8,3.3-7.5,6.4-12.8,6.4 c2.4,0.2,4.8-0.1,6.9-0.9c1.2-0.4,2.3-1,3.2-1.7c2.4-1.7,4.5-2.9,6.4-3.7c3.5-1.3,5.5-0.6,6.5,0.3c0.5,0.4,0.9,1,1.2,1.6 c2.1-1.5,5.2-4.2,6.9-7.8C58.3,39.7,58.4,37.4,57.6,34.6z"></path> </g> </g> <g> <g> <g> <path class="st30" d="M33.6,19.8c1-0.1,2-0.2,3-0.1c0.1-0.4,0-0.9-0.3-1.3c-1,0.2-1.9,0.6-2.8,1.2 C33.4,19.7,33.4,19.9,33.6,19.8z"></path> </g> <g> <path class="st30" d="M43.3,21.6c1.8,0.9,3.3,2.1,4.5,3.5c0.2,0.3,0.5,0.1,0.3-0.2c-0.2-0.5-0.4-1-0.6-1.5 c-0.4-0.7-0.8-1.3-1.3-1.9c-1.3-0.5-2.2-0.5-2.7,0C43.4,21.5,43.4,21.5,43.3,21.6z"></path> </g> <g> <path class="st30" d="M43.2,20.3c0.3-0.1,0.5-0.2,0.9-0.3c0.2,0,0.1-0.3-0.1-0.4c-0.7-0.4-1.5-0.8-2.4-1 c-0.4,0.6-0.7,1.2-1.1,1.9c0.1,0,0.2,0,0.2,0.1c0.5,0.2,1.1,0.4,1.6,0.6c0.1-0.2,0.2-0.3,0.4-0.5C42.8,20.5,43,20.4,43.2,20.3z "></path> </g> <g> <path class="st30" d="M45.4,35.4c1.9-1.7,3.1-4.1,3.3-6.7c-0.7-2.4-2.9-4.7-5.7-6.2c-0.2,1.1-0.1,3,1.2,6.6c1,2.6,1,4.6,0.8,6 C44.9,35.5,45.1,35.6,45.4,35.4z"></path> </g> <g> <path class="st30" d="M31.3,21.6c-1.4,1.6-2.2,3.6-2.4,5.7c0,0.3,0.2,0.5,0.3,0.2c0.4-0.6,0.8-1.1,1.4-1.7 c1.1-1,2.1-1.7,2.8-2.3c1.3-1,2.2-1.7,2.7-2.8c-1.5-0.1-2.9,0.1-4.1,0.5C31.8,21.4,31.5,21.5,31.3,21.6z"></path> </g> <g> <path class="st30" d="M37.7,19.8c0.6,0.1,1.1,0.2,1.7,0.3c0.3-0.6,0.7-1.2,1-1.7c0,0,0-0.1,0.1-0.1c-1-0.2-2-0.2-3-0.1 C37.7,18.8,37.8,19.3,37.7,19.8z"></path> </g> <g> <path class="st30" d="M35.9,37.6c2.4,0.7,5,0.5,7.2-0.6c1.1-1.7,1-4.4,0-7.3c-1.2-3.3-1.6-5.8-1.2-7.5c-0.5-0.2-1-0.4-1.5-0.6 c-0.1,0-0.3-0.1-0.4-0.1c-1,2.1-2,4.7-2.7,7.4c-0.8,2.9-1.3,5.9-1.4,8.4C35.8,37.4,35.8,37.5,35.9,37.6z"></path> </g> <g> <path class="st30" d="M29.3,31c0.2,0.6,0.4,1.2,0.7,1.8c1,1.8,2.5,3.2,4.3,4.2c0.3,0.1,0.4,0,0.4-0.3c0.2-2.5,0.7-5.2,1.4-8 c0.7-2.7,1.7-5.2,2.7-7.4c-0.5-0.1-1-0.2-1.5-0.2c-0.7,1.5-1.7,2.3-3.2,3.5c-0.7,0.6-1.7,1.3-2.8,2.3 C30,27.9,29.4,29.3,29.3,31z"></path> </g> </g> </g> </g> </g> </svg> 