<?xml version="1.0" encoding="UTF-8"?> <!-- Generator: Adobe Illustrator 22.0.1, SVG Export Plug-In . SVG Version: 6.00 Build 0) --> <svg xmlns="http://www.w3.org/2000/svg" xmlns:xlink="http://www.w3.org/1999/xlink" id="Layer_1" x="0px" y="0px" viewBox="0 0 92.8 77.5" style="enable-background:new 0 0 92.8 77.5;" xml:space="preserve"> <style type="text/css"> .st0{fill:#D2AA41;} .st1{fill:#002B5C;} .st2{fill:#FFFFFF;} .st3{fill:#E31837;} .st4{fill:#231F20;} .st5{fill:url(#SVGID_1_);} .st6{fill:#D1A941;} .st7{fill:url(#SVGID_2_);} .st8{fill:#00002A;} .st9{fill:url(#SVGID_3_);} .st10{fill:#001846;} .st11{fill:#DCE5EB;} .st12{fill:#E21936;} .st13{fill:url(#SVGID_4_);} .st14{fill:url(#SVGID_5_);} .st15{fill:url(#SVGID_6_);} .st16{fill:url(#SVGID_7_);} .st17{fill:url(#SVGID_8_);} .st18{fill:#828E96;} .st19{fill:#9D0620;} .st20{fill:#022E61;} .st21{fill:#9C8C85;} .st22{fill:#FDFDFD;} .st23{fill:#F17636;} .st24{fill:#EF7636;} .st25{fill:#37246A;} .st26{fill:#FFC425;} .st27{fill:#00A160;} .st28{fill:#00483A;} .st29{fill:#FFD200;} .st30{fill:#B0B7BC;} .st31{fill:#652D89;} .st32{fill:#C4CED4;} .st33{fill:#0080C5;} .st34{fill:#00539B;} .st35{fill:#002D62;} .st36{fill:#D31245;} .st37{fill:#98002E;} </style> <g> <path class="st2" d="M76.3,27.5l3.9-2.9l-2.4-1.1l15-14.4l-0.6-0.7L69.1,23l2.2,1l-3,2.2c0,0,0,0,0,0c0-0.5,0.1-1,0.1-1.6 c0-5.6-2.1-11-6-15.1L67.1,0l-8.8,6.1c-3.5-2.3-7.7-3.6-12-3.6c-4.4,0-8.5,1.3-12,3.6L25.7,0l4.8,9.5c-3.7,3.9-6,9.2-6,15.1 c0,0.5,0,1.1,0.1,1.6c0,0,0,0,0,0l-3-2.2l2.2-1L0.6,8.5L0,9.1l15,14.4l-2.4,1.1l3.9,2.9C11.3,28.6,6.2,30,1.1,31.6l-0.6,0.2l0,20.3 l17.6,6.7L8.4,72.3L9.2,73l14.5-12L36,65.7c2.3,4.5,5.6,8.5,9.9,11.4l0.5,0.4l0.5-0.4c4.3-3,7.6-6.9,9.9-11.4L69.1,61l14.5,12 l0.8-0.7l-9.7-13.5l17.6-6.7V31.8l-0.6-0.2C86.6,30,81.5,28.6,76.3,27.5z"></path> <g> <path d="M91.4,32.5c-5.7-1.9-11.5-3.3-17.4-4.5l4.3-3.2l-2.2-1l12.9-12.3L71,22.8l2,0.9l-4.5,3.3c-0.4-0.1-0.8-0.1-1.2-0.2 c0.1-0.8,0.1-1.6,0.1-2.4c0-5.8-2.4-11.1-6.2-14.9l3.4-6.8l-6.3,4.4c-3.4-2.4-7.5-3.7-12-3.7c-4.4,0-8.6,1.4-12,3.7l-6.3-4.4 l3.4,6.8c-3.8,3.8-6.2,9.1-6.2,14.9c0,0.8,0,1.6,0.1,2.4c-0.4,0.1-0.8,0.1-1.2,0.2l-4.5-3.3l2-0.9l-18-11.3l12.9,12.3l-2.2,1 l4.3,3.2c-5.8,1.1-11.6,2.6-17.4,4.5v19l18.2,6.9l-8.6,11.9L23.5,60l13.1,5c2.2,4.6,5.6,8.5,9.8,11.4c4.2-2.9,7.5-6.8,9.8-11.4 l13.1-5l12.6,10.4l-8.6-11.9l18.2-6.9V32.5z"></path> </g> <g> <polygon points="75.5,59.1 75.9,59.1 75.9,60 76.1,60 76.1,59.1 76.4,59.1 76.4,58.9 75.5,58.9 "></polygon> <polygon points="77.5,58.9 77.3,59.6 77.3,59.6 77,58.9 76.6,58.9 76.6,60 76.8,60 76.8,59.1 76.8,59.1 77.1,60 77.4,60 77.7,59.1 77.7,59.1 77.7,60 77.9,60 77.9,58.9 "></polygon> </g> <g> <path class="st2" d="M16.5,44c1-0.2,2-0.4,3-0.6c0-4,0-8.1,0-12.1c-1,0.2-2,0.4-3,0.6C16.5,35.9,16.5,40,16.5,44z"></path> <path class="st2" d="M88.3,37.3c0-0.8,0-1.5,0-2.3c-1.6-0.5-3.3-1-4.9-1.4c-0.5,0.4-1.1,0.8-1.6,1.2c0,0.8,0,1.5,0,2.3 c0.5,0.7,1.1,1.4,1.6,2.1c0.9,0.2,1.8,0.5,2.7,0.7c0,0.3,0,0.6,0,0.9c-1.4-0.4-2.9-0.8-4.3-1.1c0,0.8,0,1.5,0,2.3 c1.7,0.4,3.3,0.9,4.9,1.3c0.5-0.4,1.1-0.8,1.6-1.2c0-1.3,0-2.6,0-3.9c-1.4-0.4-2.8-0.8-4.3-1.2c0-0.3,0-0.6,0-0.9 C85.4,36.5,86.9,36.9,88.3,37.3z"></path> <g> <path class="st26" d="M81.7,45.3c2.2,0.5,4.4,1.1,6.5,1.8v-1.5c-2.2-0.7-4.4-1.3-6.5-1.8V45.3z"></path> </g> <path class="st2" d="M14.6,32.3c-1.2,0.3-2.3,0.5-3.5,0.8c-0.9,1.7-1.8,3.5-2.7,5.3c-0.3,0.1-0.6,0.2-0.9,0.3c0-1.5,0-3,0-4.6 c-1,0.3-2,0.6-2.9,0.8c0,4,0,8.1,0,12.1c1-0.3,2-0.6,2.9-0.8c0-1.5,0-3,0-4.6c1.1-0.3,2.2-0.6,3.3-0.9c0,1.5,0,3,0,4.6 c1-0.2,2-0.5,3-0.7c0-1.8,0-3.6,0-5.5c-0.7-0.5-1.3-1-2-1.5C12.7,35.8,13.6,34.1,14.6,32.3z"></path> <path class="st2" d="M35.7,29.2c-1,0.1-2,0.2-3,0.3c0,4,0,8.1,0,12.1c2.8-0.3,5.6-0.4,8.4-0.5c0-1,0-2,0-3 c-1.8,0.1-3.6,0.2-5.4,0.3C35.7,35.3,35.7,32.2,35.7,29.2z"></path> <path class="st2" d="M25.2,30.4c-1,0.1-2,0.3-3,0.5c0,4,0,8.1,0,12.1c2.8-0.5,5.6-0.9,8.3-1.2c0-1,0-2,0-3 c-1.8,0.2-3.6,0.4-5.3,0.7C25.2,36.4,25.2,33.4,25.2,30.4z"></path> <path class="st2" d="M43.2,41c3-0.1,5.9,0,8.9,0.1c0-1,0-2,0-3c-2-0.1-3.9-0.1-5.9-0.1c0-0.5,0-1,0-1.6c1.5,0,3,0,4.5,0.1 c0-1,0-2,0-3c-1.5,0-3-0.1-4.5-0.1c0-0.5,0-1,0-1.6c2,0,3.9,0,5.9,0.1c0-1,0-2,0-3c-3-0.1-5.9-0.1-8.9-0.1 C43.2,32.9,43.2,36.9,43.2,41z"></path> <path class="st2" d="M64.7,32.2c-0.8-0.8-1.5-1.7-2.3-2.5c-2.5-0.3-5.1-0.5-7.6-0.6c0,4,0,8.1,0,12.1c1,0.1,2,0.1,3,0.2 c0-1.4,0-2.7,0-4.1c0.5,0,1,0.1,1.6,0.1c0.6,1.4,1.3,2.8,1.9,4.3c1.1,0.1,2.2,0.2,3.3,0.4c-0.7-1.5-1.4-3-2-4.5 c0.7-0.6,1.4-1.2,2.1-1.8C64.7,34.6,64.7,33.4,64.7,32.2z M61.7,34.7c-1.3-0.1-2.6-0.3-3.9-0.4c0-0.7,0-1.4,0-2.1 c1.3,0.1,2.6,0.2,3.9,0.4C61.7,33.3,61.7,34,61.7,34.7z"></path> <path class="st2" d="M78.4,38.5c0.3-0.2,0.5-0.4,0.8-0.6c0-1,0-2,0-3c-0.7-0.9-1.5-1.8-2.2-2.8c-2.3-0.5-4.6-0.9-6.9-1.3 c0,1,0,2,0,3c2,0.3,4.1,0.7,6.1,1.1c0,0.5,0,1,0,1.6c-1.1-0.2-2.3-0.5-3.4-0.7c0,1,0,2,0,3c1.1,0.2,2.3,0.4,3.4,0.7 c0,0.5,0,1,0,1.6c-2-0.4-4.1-0.8-6.1-1.1c0,1,0,2,0,3c2.3,0.4,4.6,0.8,6.9,1.3c0.7-0.6,1.5-1.2,2.2-1.8c0-1,0-2,0-3 C78.9,39.1,78.7,38.8,78.4,38.5z"></path> </g> <g> <path class="st26" d="M61.7,49.8l2.6-0.7l-4.1-4.1c-0.7-0.1-1.3-0.1-2-0.2c0.6,2.3,0.9,4.7,0.9,7.2c0,3.5-0.6,6.9-1.7,10l9.9-3.8 l-1.6-1.3l2.6-0.7L61.7,49.8z"></path> <path class="st26" d="M68.1,46l2.9,2.9l-2.6,0.7l6.1,6L88,50.5C81.4,48.5,74.8,47,68.1,46z"></path> <g> <g> <path class="st26" d="M53.9,25.6c-1-2.5-1.4-4.8-1.5-6.8c0-0.6-0.6-1-0.9-1c-1.1-0.2-2.3-0.3-3.5-0.3c-0.6,0-0.9,0.3-0.9,1v7 C49.4,25.4,51.6,25.5,53.9,25.6z"></path> <path class="st26" d="M55.5,25.7c3.2,0.2,6.4,0.5,9.6,0.9c0.1-0.7,0.1-1.3,0.1-2c0-0.6-0.2-1.3-0.7-1.5c-2.7-2.1-6-3.7-9.6-4.6 c-0.8-0.2-1.1,0-1.1,0.8c0.1,1.4,0.4,2.9,0.9,4.5C55,24.4,55.2,25,55.5,25.7z"></path> <path class="st26" d="M59.7,11.2c2.7,2.7,4.6,6.3,5.3,10.3c-2.9-2.1-6.3-3.7-10.1-4.6c-0.5-0.1-0.8-0.7-0.6-1.4 c0.7-2,2.1-3.6,4.3-4.6C58.8,10.9,59.1,10.7,59.7,11.2z"></path> <path class="st26" d="M57,9c0.4,0.3,0.6,0.9,0.1,1.1c-2.1,1.2-3.5,2.9-4.2,5.1c-0.1,0.2-0.3,1.2-1.1,1.1 c-1.3-0.2-2.6-0.3-3.9-0.4c-0.2,0-0.8,0-0.8-1.1l0-7.8c0-0.9,0.4-1.3,0.9-1.2C51.3,6.1,54.4,7.2,57,9z"></path> <path class="st26" d="M35.8,9c2.6-1.8,5.6-2.9,8.9-3.2c0.5,0,0.9,0.3,0.9,1.2v7.8c0,1.1-0.6,1.1-0.8,1.1 c-1.3,0.1-2.6,0.2-3.9,0.4c-0.8,0.1-1.1-0.9-1.1-1.1c-0.7-2.2-2.1-3.9-4.2-5.1C35.3,9.9,35.4,9.2,35.8,9z"></path> <path class="st26" d="M33.1,11.2c0.5-0.5,0.9-0.4,1.1-0.3c2.2,1,3.6,2.5,4.3,4.6c0.2,0.7-0.1,1.3-0.6,1.4 c-3.8,1-7.2,2.5-10.1,4.6C28.5,17.6,30.4,14,33.1,11.2z"></path> <path class="st26" d="M27.7,26.6c3.2-0.4,6.4-0.7,9.6-0.9c0.3-0.6,0.5-1.3,0.7-1.9c0.5-1.6,0.8-3.2,0.9-4.5c0-0.7-0.3-1-1.1-0.8 c-3.6,1-6.9,2.5-9.6,4.6c-0.4,0.2-0.7,0.8-0.7,1.5C27.6,25.2,27.6,25.9,27.7,26.6z"></path> <path class="st26" d="M45.7,25.4l0-7c0-0.7-0.3-1.1-0.9-1.1c-1.2,0.1-2.3,0.2-3.5,0.3c-0.4,0.1-0.9,0.4-0.9,1 c0,2-0.5,4.3-1.5,6.8C41.2,25.5,43.4,25.4,45.7,25.4z"></path> </g> </g> <path class="st26" d="M34.6,44.9c-0.7,0.1-1.3,0.1-2,0.2l-4.1,4.1l2.6,0.7l-6.7,6.6l2.6,0.7l-1.6,1.3l9.9,3.8 c-1.1-3.1-1.7-6.5-1.7-10C33.7,49.6,34,47.2,34.6,44.9z"></path> <path class="st26" d="M21.8,48.9l2.9-2.9c-6.7,1-13.4,2.5-19.9,4.4l13.5,5.2l6.1-6L21.8,48.9z"></path> <path class="st26" d="M46.4,54.6c3.7,0,7.5,0.2,11.2,0.5c0.1-1,0.1-1.9,0.1-2.9c0-0.2,0-0.3,0-0.5c-3.8-0.3-7.5-0.5-11.3-0.5 c-3.8,0-7.6,0.2-11.3,0.5c0,0.2,0,0.3,0,0.5c0,1,0.1,1.9,0.1,2.9C38.9,54.7,42.7,54.6,46.4,54.6z"></path> <path class="st26" d="M57.5,48.2c-0.2-1.2-0.4-2.3-0.7-3.4c-6.9-0.5-13.8-0.5-20.7,0c-0.3,1.1-0.5,2.3-0.7,3.4 c3.7-0.3,7.4-0.4,11.1-0.4C50.1,47.8,53.8,47.9,57.5,48.2z"></path> <path class="st26" d="M35.8,58.4c0.3,1.1,0.6,2.2,1,3.3c3.2-0.2,6.4-0.4,9.7-0.4c3.2,0,6.4,0.1,9.7,0.4c0.4-1.1,0.7-2.2,1-3.3 c-3.5-0.3-7.1-0.4-10.6-0.4C42.9,57.9,39.3,58.1,35.8,58.4z"></path> </g> </g> </svg> 