<?xml version="1.0" encoding="UTF-8"?> <!-- Generator: Adobe Illustrator 22.0.1, SVG Export Plug-In . SVG Version: 6.00 Build 0) --> <svg xmlns="http://www.w3.org/2000/svg" xmlns:xlink="http://www.w3.org/1999/xlink" id="Layer_1" x="0px" y="0px" viewBox="0 0 109 80.1" style="enable-background:new 0 0 109 80.1;" xml:space="preserve"> <style type="text/css"> .st0{fill:#D2AA41;} .st1{fill:#002B5C;} .st2{fill:#FFFFFF;} .st3{fill:#E31837;} .st4{fill:#231F20;} .st5{fill:url(#SVGID_1_);} .st6{fill:#D1A941;} .st7{fill:url(#SVGID_2_);} .st8{fill:#00002A;} .st9{fill:url(#SVGID_3_);} .st10{fill:#001846;} .st11{fill:#DCE5EB;} .st12{fill:#E21936;} .st13{fill:url(#SVGID_4_);} .st14{fill:url(#SVGID_5_);} .st15{fill:url(#SVGID_6_);} .st16{fill:url(#SVGID_7_);} .st17{fill:url(#SVGID_8_);} .st18{fill:#828E96;} .st19{fill:#9D0620;} .st20{fill:#022E61;} .st21{fill:#9C8C85;} .st22{fill:#FDFDFD;} .st23{fill:#F17636;} .st24{fill:#EF7636;} .st25{fill:#37246A;} .st26{fill:#FFC425;} .st27{fill:#00A160;} .st28{fill:#00483A;} .st29{fill:#FFD200;} .st30{fill:#B0B7BC;} .st31{fill:#652D89;} .st32{fill:#C4CED4;} .st33{fill:#0080C5;} .st34{fill:#00539B;} .st35{fill:#002D62;} .st36{fill:#D31245;} .st37{fill:#98002E;} </style> <g> <path class="st2" d="M109,51.2l-8.5-33.5H90.5c-0.6-4.7-1.7-9.2-3.3-13.6C83.2,5.6,79,6.4,74.7,6.4c-7.4,0-14.4-2.2-20.3-6.4 c-5.9,4.1-12.9,6.4-20.3,6.4c-4.3,0-8.5-0.8-12.4-2.2c-1.6,4.4-2.8,8.9-3.3,13.6H5.7l-3.8,15l2,2L0,51.2l7.2,7.2h20.4 c1.8,2.8,3.8,5.4,6.1,7.8c4.9,5.3,10.7,9.5,17,12.4c1.2,0.6,2.5,1.1,3.7,1.5c1.3-0.5,2.5-1,3.7-1.5c6.4-2.9,12.1-7.1,17-12.4 c2.3-2.4,4.3-5,6.1-7.8h20.4L109,51.2z"></path> <path class="st35" d="M108,51l-8.2-32.3H89.7c-0.5-4.7-1.6-9.1-3.1-13.4c-3.7,1.3-7.7,2-11.9,2C67.2,7.2,60.3,5,54.5,1 C48.7,5,41.7,7.2,34.2,7.2c-4.2,0-8.1-0.7-11.9-2c-1.5,4.2-2.6,8.7-3.1,13.4H6.4L2.9,32.5l2,2L1,51l6.6,6.6h20.5 c6.3,10,15.6,17.6,26.4,21.6c10.8-4,20-11.7,26.4-21.6h20.6L108,51z"></path> <g> <polygon class="st35" points="81.5,59.4 81.9,59.4 81.9,60.4 82.1,60.4 82.1,59.4 82.5,59.4 82.5,59.2 81.5,59.2 "></polygon> <polygon class="st35" points="83.7,59.2 83.4,59.9 83.4,59.9 83.1,59.2 82.7,59.2 82.7,60.4 82.9,60.4 82.9,59.4 82.9,59.4 83.2,60.4 83.5,60.4 83.8,59.4 83.8,59.4 83.8,60.4 84.1,60.4 84.1,59.2 "></polygon> </g> <g> <path class="st36" d="M85.2,20.9c-0.3-3.4-0.9-6.8-1.7-10c-2.9,0.6-5.8,0.9-8.8,0.9c-7.1,0-14.1-1.9-20.3-5.4 c-6.2,3.5-13.1,5.4-20.3,5.4c-3,0-5.9-0.3-8.8-0.9c-0.9,3.3-1.5,6.6-1.7,10H85.2z"></path> </g> <g> <g> <path class="st2" d="M76.2,56.2c-2.9,4.3-6.4,8.1-10.3,11.2c-3.5,2.8-7.3,5.1-11.4,6.8v2.5c4.6-1.8,8.9-4.3,12.9-7.4 c4.1-3.3,7.8-7.3,10.8-11.7c1.2-1.8,2.3-3.6,3.2-5.5c-0.8-0.2-1.6-0.4-2.3-0.5C78.2,53.2,77.2,54.7,76.2,56.2z"></path> <path class="st2" d="M60.4,48.7H105l-7-27.7H87.6c-0.3-4.4-1.2-8.7-2.5-12.8c-3.4,0.9-6.8,1.4-10.4,1.4c-7.2,0-14.2-2-20.3-5.7 v2.7c6.2,3.5,13.1,5.4,20.3,5.4c3,0,5.9-0.3,8.8-0.9c0.9,3.3,1.5,6.6,1.7,10H8.2l-2.3,9.2h2.5L3.9,48.7h44.7 c1.7-1.1,3.7-1.7,5.9-1.7v1.5h0c5.3,0,9.7,4.3,9.7,9.7c0,5.3-4.3,9.7-9.7,9.7v1.5c6.2,0,11.2-5,11.2-11.2 C65.7,54.1,63.5,50.6,60.4,48.7z"></path> </g> <g> <g> <g> <polygon class="st30" points="30.5,45.9 35.9,45.9 38.1,23.7 33.1,23.7 "></polygon> <polygon class="st30" points="19.3,27.4 20.1,23.7 10.3,23.7 9.4,27.4 11.8,27.4 7.4,45.9 12.8,45.9 16.9,27.4 "></polygon> <polygon class="st30" points="65,27.4 64.8,23.7 48,23.7 46.1,25.3 45.5,39.9 50.6,39.9 50.6,41.8 45.5,41.8 45.3,45.9 54,45.9 55.9,44 55.9,35.9 50.9,35.9 51,27.4 57.5,27.4 58.1,45.9 63.5,45.9 62.6,27.4 "></polygon> <path class="st30" d="M67.3,23.7l-1.8,1.7l1.7,20.6h5.4L72,40.5h1.2l0.6,5.4h5.4l-3-22.3H67.3z M71.6,36.5l-0.9-9h0.9l1,9H71.6 z"></path> <polygon class="st30" points="87.4,27.4 86.7,23.7 76.9,23.7 77.5,27.4 79.9,27.4 83,45.9 88.4,45.9 85,27.4 "></polygon> <polygon class="st30" points="100.5,41.8 96.6,41.8 96.2,39.9 100.1,39.9 99,35.9 95.3,35.9 93.3,27.4 96.9,27.4 95.9,23.7 87.4,23.7 92.2,45.9 101.6,45.9 "></polygon> <path class="st30" d="M31.6,25.4l-1.8-1.7H21l-4.2,22.3h5.4l0.9-5.4h1.2l-0.8,5.4h5.4l0.9-6.6L29,38.6l0.9-0.7L31.6,25.4z M26.3,27.4l-1.4,9h-1.1l1.5-9H26.3z"></path> </g> <g> <polygon class="st36" points="41.5,31.3 42.2,33.5 44.9,33.5 42.6,35 43.3,37.3 41.2,35.9 38.9,37.3 40,35 37.9,33.5 40.6,33.5 "></polygon> <g> <polygon class="st35" points="31.6,44.9 35,44.9 36.9,24.7 34,24.7 "></polygon> <polygon class="st35" points="18.5,26.4 18.8,24.7 11.1,24.7 10.7,26.4 13.1,26.4 8.7,44.9 12,44.9 15.9,27 15.4,26.4 "></polygon> <polygon class="st35" points="63.8,24.7 56.1,24.7 56.1,26.4 58.5,26.4 59.1,44.9 62.4,44.9 61.5,27 60.8,26.4 63.9,26.4 "></polygon> <polygon class="st35" points="49.8,36.9 50,27 49.3,26.4 54.8,26.4 54.7,24.7 48.3,24.7 47.1,25.8 46.6,38.9 51.7,38.9 51.6,42.8 46.4,42.8 46.4,44.9 53.5,44.9 54.9,43.6 54.9,36.9 "></polygon> <path class="st35" d="M67.7,24.7l-1.2,1.1l1.5,19.2h3.3l-0.5-4.7l-0.8-0.7h4l0.6,5.4H78l-2.7-20.2H67.7z M70.7,37.5l-1-10.5 l-0.8-0.6h3.7l1.3,11.1H70.7z"></path> <polygon class="st35" points="83.1,26.4 86.2,26.4 85.8,24.7 78.1,24.7 78.4,26.4 80.8,26.4 83.8,44.9 87.2,44.9 83.9,27 "></polygon> <polygon class="st35" points="99.7,42.8 95.8,42.8 95.1,39.6 94.1,38.9 98.8,38.9 98.2,36.9 94.4,36.9 92.2,27 91.3,26.4 95.6,26.4 95.1,24.7 88.7,24.7 93,44.9 100.3,44.9 "></polygon> <path class="st35" d="M21.8,24.7L18,44.9h3.3l0.8-4.7l-0.6-0.7h4l-0.8,5.4h3.3l0.7-5.2l-1.1-1.2l1.5-1.2l1.6-11.6l-1.1-1.1 H21.8z M25.8,37.5h-3.2L24.4,27l-0.6-0.6h3.7L25.8,37.5z"></path> </g> </g> </g> </g> </g> <g> <polygon class="st2" points="34.3,13.2 35.1,15.7 37.6,15.7 35.5,17.2 36.3,19.6 34.3,18.1 32.2,19.6 33,17.2 30.9,15.7 33.5,15.7 "></polygon> <polygon class="st2" points="74.7,13.2 73.9,15.7 71.3,15.7 73.4,17.2 72.6,19.6 74.7,18.1 76.7,19.6 76,17.2 78,15.7 75.5,15.7 "></polygon> <polygon class="st2" points="54.5,11.2 53.7,13.6 51.1,13.6 53.2,15.1 52.4,17.5 54.5,16 56.5,17.5 55.7,15.1 57.8,13.6 55.3,13.6 "></polygon> </g> <g> <g> <path class="st30" d="M34.2,9.6c-3.5,0-7-0.5-10.4-1.4c-1.3,4.1-2.1,8.4-2.5,12.8h2.3c0.3-3.4,0.9-6.8,1.7-10 c2.9,0.6,5.8,0.9,8.8,0.9c7.1,0,14.1-1.9,20.3-5.4V3.8C48.4,7.6,41.4,9.6,34.2,9.6z"></path> <path class="st30" d="M32.8,56.2c-1-1.5-2-3.1-2.8-4.7c-0.8,0.2-1.6,0.4-2.3,0.5c1,1.9,2.1,3.7,3.2,5.5c3,4.5,6.7,8.4,10.8,11.7 c3.9,3.2,8.3,5.7,12.9,7.4v-2.5c-4.1-1.7-7.9-3.9-11.4-6.8C39.1,64.3,35.6,60.5,32.8,56.2z"></path> <path class="st30" d="M54.5,48.5V47c-6.2,0-11.2,5-11.2,11.2c0,6.2,5,11.2,11.2,11.2l0-1.5c-5.3,0-9.7-4.3-9.7-9.7 C44.8,52.8,49.1,48.5,54.5,48.5z"></path> </g> <g> <path class="st36" d="M55.3,61c2,0.2,3.9,1,5.3,2.3c0.3,0.2,0.6,0.1,0.7-0.1c0.9-1.1,1.4-2.5,1.6-3.9c0-0.4-0.2-0.8-0.7-0.8h-6.8 c-0.3,0-0.5,0.2-0.5,0.4v1.7C54.9,60.9,55.1,61,55.3,61z"></path> <path class="st36" d="M55.4,66.6c1.7-0.2,3.3-0.9,4.5-1.9c0.3-0.2,0.3-0.6,0-0.8c-1.3-1.2-2.9-1.9-4.7-2.1 c-0.3,0-0.5,0.1-0.5,0.5v3.9C54.9,66.5,55.1,66.6,55.4,66.6z"></path> <path class="st36" d="M53.6,58.5h-6.8c-0.5,0-0.7,0.4-0.7,0.8c0.2,1.5,0.8,2.8,1.6,3.9c0.1,0.2,0.4,0.3,0.7,0.1 c1.4-1.3,3.2-2.2,5.3-2.3c0.2,0,0.4-0.1,0.4-0.4v-1.7C54,58.7,53.8,58.5,53.6,58.5z"></path> <path class="st36" d="M53.6,61.7c-1.8,0.2-3.4,0.9-4.7,2.1c-0.2,0.2-0.2,0.6,0,0.8c1.2,1.1,2.8,1.8,4.5,1.9 c0.3,0,0.6-0.1,0.6-0.5v-3.9C54.1,61.8,53.9,61.7,53.6,61.7z"></path> <path class="st36" d="M55.4,57.8h6.8c0.5,0,0.7-0.4,0.7-0.8c-0.2-1.5-0.8-2.8-1.6-3.9c-0.1-0.2-0.4-0.3-0.7-0.1 c-1.4,1.3-3.2,2.2-5.3,2.3c-0.2,0-0.4,0.1-0.4,0.4v1.7C54.9,57.6,55.1,57.8,55.4,57.8z"></path> <path class="st36" d="M55.3,54.5c1.8-0.2,3.4-0.9,4.7-2.1c0.2-0.2,0.2-0.6,0-0.8c-1.2-1.1-2.8-1.8-4.5-1.9 c-0.3,0-0.6,0.1-0.6,0.5v3.9C54.9,54.5,55.1,54.6,55.3,54.5z"></path> <path class="st36" d="M46.8,57.8h6.8c0.3,0,0.5-0.2,0.5-0.4v-1.7c0-0.3-0.2-0.4-0.4-0.4c-2-0.2-3.9-1-5.3-2.3 c-0.3-0.2-0.6-0.1-0.7,0.1c-0.9,1.1-1.4,2.5-1.6,3.9C46.1,57.4,46.3,57.8,46.8,57.8z"></path> <path class="st36" d="M53.6,54.5c0.3,0,0.5-0.1,0.5-0.5v-3.9c0-0.4-0.3-0.5-0.6-0.5c-1.7,0.2-3.3,0.9-4.5,1.9 c-0.3,0.2-0.3,0.6,0,0.8C50.2,53.6,51.8,54.4,53.6,54.5z"></path> </g> </g> </g> </svg> 