<?xml version="1.0" encoding="UTF-8"?> <!-- Generator: Adobe Illustrator 22.0.1, SVG Export Plug-In . SVG Version: 6.00 Build 0) --> <svg xmlns="http://www.w3.org/2000/svg" xmlns:xlink="http://www.w3.org/1999/xlink" id="Layer_1" x="0px" y="0px" viewBox="0 0 98.4 89.3" style="enable-background:new 0 0 98.4 89.3;" xml:space="preserve"> <style type="text/css"> .st0{fill:#D2AA41;} .st1{fill:#002B5C;} .st2{fill:#FFFFFF;} .st3{fill:#E31837;} .st4{fill:#231F20;} .st5{fill:url(#SVGID_1_);} .st6{fill:#D1A941;} .st7{fill:url(#SVGID_2_);} .st8{fill:#00002A;} .st9{fill:url(#SVGID_3_);} .st10{fill:#001846;} .st11{fill:#DCE5EB;} .st12{fill:#E21936;} .st13{fill:url(#SVGID_4_);} .st14{fill:url(#SVGID_5_);} .st15{fill:url(#SVGID_6_);} .st16{fill:url(#SVGID_7_);} .st17{fill:url(#SVGID_8_);} .st18{fill:#828E96;} .st19{fill:#9D0620;} .st20{fill:#022E61;} .st21{fill:#9C8C85;} .st22{fill:#FDFDFD;} .st23{fill:#F17636;} .st24{fill:#EF7636;} .st25{fill:#37246A;} .st26{fill:#FFC425;} .st27{fill:#00A160;} .st28{fill:#00483A;} .st29{fill:#FFD200;} .st30{fill:#B0B7BC;} .st31{fill:#652D89;} .st32{fill:#C4CED4;} .st33{fill:#0080C5;} .st34{fill:#00539B;} .st35{fill:#002D62;} .st36{fill:#D31245;} .st37{fill:#98002E;} </style> <g> <path class="st20" d="M65,25.3c0.2,0.2,0.4,0.4,0.3,0.8c0,0.4,0.2,0.9-0.2,1.3c-0.1,0.1,0,0.2,0,0.3c0.1,1.8,0.1,3.6,0.2,5.4 c-0.4-0.5-1-0.7-1.6-0.8c-0.5-0.1-1.1-0.2-1.7-0.2c-0.3,0-0.4,0.1-0.4,0.4c0,5.2,0,10.5,0,15.7c0,0.2,0,0.3,0.2,0.5 c0.5,0.4,0.9,0.8,1.4,1.2c0.2,0.1,0.3,0.2,0.3-0.1c0-0.2,0.1-0.3,0.1-0.5c0.8-3.6,2.6-6.5,5.4-8.9c3.9-3.2,8.4-4.3,13.4-3.4 c2.6,0.5,5,1.6,7,3.4c5,4.4,6.7,10,5,16.4c-1.3,5-4.6,8.4-9.3,10.4c-0.2,0.1-0.4,0.1-0.6,0c-0.6-0.2-1.3-0.4-1.9-0.6 c-1-0.4-2-0.5-3-0.4c-1,0.1-2,0.1-3,0.1c-1.7,0.1-3.4,0.1-5.1,0.2c-2.4,0.1-4.8,0.2-7.1,0.2c-0.3,0-0.8-0.1-1,0.1 c-0.2,0.2-0.1,0.7-0.1,1c0,0.3-0.1,0.8,0.1,1c0.2,0.2,0.7,0,1,0c0,0,0.1,0,0.1,0c2.3-0.1,4.7-0.1,7-0.2c0.8,0,1.6-0.1,2.4-0.1 c2.3-0.1,4.6-0.1,7-0.2c0.3,0,0.3,0.1,0.3,0.4c0,5.9,0,11.9,0,17.8c0,0.5,0,0.5-0.5,0.5c-25.8,0-51.6,0-77.5,0c-0.2,0-0.4,0-0.6,0 c-0.3,0-0.4-0.1-0.4-0.4c0-5.1,0-10.3,0-15.4c0-0.3,0.1-0.3,0.3-0.4c1.4-0.1,2.8-0.1,4.2-0.1c0.1,0,0.2,0,0.4,0 C7,70.7,7,70.6,6.9,70.6c-1.5-1.4-3-2.9-4.5-4.3c-0.2-0.2-0.3-0.4-0.3-0.7c0-1.9,0-3.8,0-5.7c0-2.1,0-4.2,0-6.3 c0-0.2,0-0.4,0.3-0.4c1.3-0.1,2.5-0.2,3.8-0.2c1.7-0.1,3.3-0.2,5-0.3c0.5,0,1-0.1,1.4-0.1c0.2,0,0.3-0.1,0.3-0.4c0-3,0-6,0-9 c0-0.2,0-0.3-0.3-0.3c-2,0.2-4,0.4-6,0.6c-0.3,0-0.5,0-0.8-0.2c-1.1-1-2.3-2-3.5-3c-0.2-0.2-0.3-0.4-0.3-0.6c0-4.2,0-8.3,0-12.5 c0-0.2,0.1-0.4,0.2-0.6c0.8-0.9,1.7-1.9,2.5-2.8c1.4-1.6,2.9-3.2,4.3-4.8c0.1-0.2,0.3-0.3,0.5-0.3c0.9-0.1,1.9-0.2,2.8-0.3 c1.7-0.2,3.4-0.4,5.1-0.6c2.4-0.3,4.8-0.6,7.1-0.9c2.5-0.3,5-0.6,7.4-0.9c0.6-0.1,1.1-0.2,1.7,0.3c1.7,1.6,3.5,3,5.2,4.5 c2.1,1.8,4.3,3.7,6.5,5.5c0.2,0.2,0.3,0.4,0.3,0.6c0,6.3,0,12.6,0,18.9c0,0.4,0,0.7,0,1.1c0,0.2,0.1,0.3,0.3,0.3 c1.7-0.1,3.3-0.2,5-0.3c0.6,0,0.6-0.1,0.6-0.7c-0.1-1.8-0.2-3.7-0.2-5.5c0-0.6,0-0.6,0.6-0.4c1.7,0.6,3.4,1.2,5.1,1.8 c0.3,0.1,0.3,0,0.4-0.2c0-0.9,0.1-1.7,0.1-2.6c0.1-2.9,0.2-5.9,0.3-8.8c0-0.9,0.1-1.9,0.1-2.8c0-0.1,0-0.3,0-0.3 C57.7,27,58,26.5,58,26c0-0.1,0-0.2,0.1-0.3c0.4-0.4,0.2-0.8,0.3-1.3c0-0.4,0-0.7,0.1-1.1c0-0.2,0.2-0.4,0.3-0.5 c0.2-0.1,0.3-0.3,0.3-0.5c0-0.6,0.1-1.2,0.1-1.8c0-0.4,0.2-0.6,0.5-0.7c1.4-0.4,2.8-0.4,4.2,0c0.3,0.1,0.5,0.3,0.5,0.7 c0,0.3,0,0.6,0,0.9c-0.2-0.2-0.4-0.3-0.6-0.4c-0.4-0.2-0.8-0.2-1.2-0.3c-0.9-0.1-0.8-0.2-0.8,0.7c0,0.2,0,0.3,0,0.5 c0,0.2,0.1,0.3,0.3,0.3c0.9,0,1.7,0.1,2.5,0.4c0.4,0.2,0.7,0.5,0.6,1c0,0.2,0,0.3,0,0.5c0,0,0,0.1,0,0.1c-0.8-0.5-1.7-0.7-2.6-0.8 c-0.8-0.1-0.8,0-0.7,0.7c0,0.3,0.1,0.4,0.4,0.4C63.1,24.7,64.1,24.8,65,25.3z M24.7,84.5c0.6,0.1,1.2,0,1.9,0.1 c0.3,0,0.4-0.1,0.4-0.4c0-1.6,0-3.3,0-4.9c0-0.1,0-0.2,0-0.3c0.1-0.2,0.1,0.1,0.1,0.1c0.2,1,0.4,2,0.5,3.1c0.1,0.8,0.3,1.5,0.4,2.3 c0,0.2,0.1,0.2,0.2,0.2c0.6,0,1.1,0,1.7,0c0.1,0,0.2-0.1,0.3-0.2c0.2-1.2,0.4-2.4,0.6-3.6c0.1-0.7,0.3-1.5,0.4-2.2 c0.1,0.1,0.1,0.2,0.1,0.3c0,1.7,0,3.5,0,5.2c0,0.4,0.1,0.5,0.5,0.5c0.5,0,1,0,1.5,0c0.3,0,0.4-0.1,0.4-0.4c0-3.7,0-7.4,0-11.2 c0-0.3-0.1-0.4-0.4-0.4c-0.9,0-1.9,0.1-2.8,0.1c-0.4,0-0.5,0.2-0.6,0.5c-0.2,1-0.3,2-0.5,3c-0.1,0.4-0.1,0.9-0.3,1.3 c-0.1-0.5-0.2-1-0.3-1.5c-0.2-1-0.4-2-0.6-3c0-0.2-0.1-0.3-0.3-0.3c-0.4,0-0.7,0-1.1,0c-0.6,0-1.2,0-1.8,0c-0.4,0-0.4,0.1-0.4,0.5 c0,3.6,0,7.3,0,10.9C24.7,84.2,24.6,84.4,24.7,84.5L24.7,84.5z M67.3,54.8c-0.4-0.1-0.7-0.2-1.1-0.2c-0.5-0.1-0.7,0.1-0.6,0.6 c0.1,0.4,0.2,0.9,0.3,1.3c0.5,1.7,1.3,3.3,2.5,4.7c0.5,0.6,0.8,0.7,1.4,0.1c0.5-0.5,1-1,1.5-1.5c0.9-0.9,1.8-1.8,2.6-2.7 c0.4-0.4,0.4-0.6,0-0.9c-0.6-0.7-1.1-1.3-1.6-2c-0.3-0.4-0.6-0.5-1-0.3c-0.8,0.4-1.7,0.7-2.6,0.8C68.1,54.8,67.7,54.8,67.3,54.8z M75.4,71.5c-0.2,0-0.3,0-0.4,0.2c-0.6,1.4-1.1,2.7-1.7,4c-0.1,0.2-0.1,0.5-0.4,0.6c-0.7-1.5-1.3-3.1-2-4.6 c-0.1-0.2-0.2-0.2-0.3-0.2c-0.8,0-1.6,0-2.4,0.1c-0.2,0-0.2,0.1-0.2,0.3c0.4,1,0.9,2,1.3,3c0.7,1.7,1.5,3.5,2.2,5.2 c0,1.3,0,2.6,0,3.9c0,0.2,0.1,0.3,0.3,0.3c0.7,0,1.3,0,2,0c0.4,0,0.5-0.1,0.5-0.5c0-1.3,0-2.6,0-3.9c0.7-1.7,1.4-3.3,2.1-5 c0.5-1.1,1-2.3,1.4-3.4c0.1-0.1,0-0.2-0.1-0.2C77,71.4,76.2,71.3,75.4,71.5z M42.5,80.3c0.6-0.6,1.3-1.2,1.9-1.8 c0.1-0.1,0.1-0.2,0.1-0.4c0-1.2,0-2.4,0-3.6c0-0.2-0.1-0.3-0.2-0.5c-0.5-0.5-1-1-1.6-1.4c-0.2-0.2-0.4-0.2-0.6-0.2 c-1.7,0.1-3.4,0.1-5.1,0.1c-0.4,0-0.5,0.1-0.5,0.5c0,2,0,4.1,0,6.1c0,1.6,0,3.3,0,4.9c0,0.4,0.1,0.5,0.5,0.4c0.5,0,1,0,1.6,0 c0.3,0,0.4-0.1,0.4-0.4c0-1.2,0-2.4,0-3.5c0.1-0.2,0.2-0.2,0.4-0.2c0.9,0,1.8,0,2.8,0C42.3,80.3,42.4,80.4,42.5,80.3z M20.2,73 c0,0-0.1-0.1-0.1-0.1c-0.9,0-1.9,0-2.8,0.1c-0.6-0.1-1.1,0.1-1.5,0.6c-0.3,0.4-0.7,0.7-1,1c-0.1,0.1-0.2,0.3-0.2,0.5 c0,2.4,0,4.8,0,7.2c0,0.2,0.1,0.4,0.2,0.5c0.5,0.5,0.9,0.9,1.4,1.4c0.2,0.2,0.3,0.2,0.6,0.2c1.1,0,2.1,0,3.2,0 c0.2,0,0.4-0.1,0.5-0.2c0.5-0.5,1-1,1.5-1.5c0.1-0.1,0.2-0.3,0.2-0.5c0-2.5,0-4.9,0-7.4c0-0.1,0-0.2-0.1-0.4 C21.3,74.1,20.8,73.5,20.2,73z M57.2,72c-0.2,0.1-0.1,0.3-0.1,0.4c0,3.9,0,7.8,0,11.6c0,0.1-0.1,0.3,0.1,0.4c0.8,0,1.6,0.1,2.4,0 c0.1-0.1,0.1-0.3,0.1-0.4c0-1.2,0-2.3,0-3.5c0-1,0-2,0-3c0.1,0.1,0.1,0.3,0.2,0.4c0.9,2.1,1.8,4.3,2.7,6.4c0.1,0.2,0.3,0.1,0.4,0.1 c0.8,0,1.5,0,2.3,0c0.4,0,0.5-0.1,0.5-0.5c0-3.9,0-7.8,0-11.7c0-0.1,0-0.2,0-0.2c0-0.2-0.1-0.2-0.2-0.2c-0.7,0-1.3,0-2,0.1 c-0.3-0.1-0.4,0.1-0.4,0.4c0,2,0,4,0,6.1c0,0.2,0,0.3,0,0.5c-0.3-0.5-0.4-0.9-0.6-1.4c-0.7-1.7-1.4-3.4-2.1-5.2 c-0.1-0.3-0.3-0.3-0.5-0.3C58.9,71.9,58,71.9,57.2,72z M38.5,33.2c0-2.7,0-5.5,0-8.2c0-0.2,0-0.4-0.2-0.6c-1.9-1.6-3.9-3.3-5.8-4.9 c-0.1-0.1-0.2-0.1-0.4-0.1c-1.4,0.2-2.9,0.3-4.3,0.5c-1.7,0.2-3.3,0.4-5,0.6c-1.7,0.2-3.4,0.4-5,0.6c-2.1,0.3-4.2,0.5-6.4,0.8 c-0.2,0-0.3,0.1-0.4,0.2c-1.8,2-3.5,3.9-5.3,5.9c-0.1,0.1-0.2,0.2-0.2,0.4c0,2.6,0,5.1,0,7.7c0,0.2,0,0.3,0.3,0.3 c1-0.1,2-0.2,3.1-0.3c1.2-0.1,2.3-0.2,3.5-0.3c0.3,0,0.5-0.1,0.5-0.5c0-1.2,0-2.3,0-3.5c-0.1-0.9,0.1-1.7,0.9-2.3 c0.1-0.1,0.2-0.2,0.3-0.3c0.2-0.2,0.4-0.3,0.6-0.3c1.8-0.2,3.5-0.4,5.3-0.6c2.8-0.3,5.6-0.6,8.4-0.9c0.6-0.1,1.1,0,1.5,0.5 c0.2,0.2,0.4,0.3,0.6,0.5c0.2,0.2,0.3,0.4,0.3,0.6c0,3,0,6,0,9c0,0.9-0.2,1.5-0.8,2.1c-0.5,0.4-0.9,0.7-1.5,0.8 c-2.8,0.2-5.6,0.4-8.3,0.7c-1.1,0.1-2.2,0.2-3.3,0.3c-0.2,0-0.3,0.1-0.3,0.3c0,2.3,0,4.5,0,6.8c0,0.2,0.1,0.3,0.3,0.3 c0.6-0.1,1.2-0.1,1.7-0.1c3.1-0.2,6.1-0.4,9.2-0.6c1.6-0.1,1.6-0.1,2.8,1c0.2,0.2,0.3,0.4,0.3,0.7c0,2.8,0,5.7,0,8.5 c0,0.6,0.1,1.2-0.1,1.7c-0.2,0.5-0.8,0.9-1.2,1.3c-0.2,0.2-0.3,0.2-0.6,0.3c-3.3,0.1-6.5,0.3-9.8,0.5c-1.4,0.1-2.9,0.1-4.3,0.2 c-0.4,0-0.7-0.1-0.9-0.4c-0.2-0.3-0.5-0.5-0.8-0.7c-0.2-0.2-0.3-0.3-0.3-0.6c0-1.5,0-3,0-4.5c0-0.3-0.1-0.4-0.4-0.4 c-2.1,0.1-4.2,0.3-6.3,0.4c-0.5,0-0.5,0-0.5,0.6c0,2.4,0,4.8,0,7.3c0,0.3,0.1,0.5,0.3,0.7c1.7,1.6,3.4,3.3,5.1,4.9 c0.2,0.2,0.4,0.2,0.6,0.2c3-0.1,6.1-0.2,9.1-0.3c3.8-0.1,7.6-0.3,11.4-0.4c0.2,0,0.4-0.1,0.5-0.2c1.9-1.9,3.8-3.8,5.7-5.7 c0.1-0.1,0.2-0.3,0.2-0.5c0-5.5,0-11.1,0-16.6c0-0.2-0.1-0.3-0.2-0.4c-0.6-0.5-1.2-1.1-1.8-1.6c-0.2-0.1-0.2-0.2,0-0.4 c0.6-0.6,1.1-1.2,1.7-1.8c0.2-0.2,0.3-0.4,0.3-0.7C38.5,38.7,38.5,36,38.5,33.2z M54.6,68.6c0.8-0.1,2,0,3.3-0.1 c0.2,0,0.4-0.1,0.6-0.2c0.7-0.7,1.5-1.4,2.2-2.1c0.1-0.1,0.2-0.3,0.2-0.5c0-1.9,0-3.9,0-5.8c0-0.2-0.1-0.3-0.2-0.5 c-0.7-0.6-1.4-1.2-2.1-1.8c-0.3-0.2-0.5-0.3-0.9-0.3c-2,0.1-3.9,0.2-5.9,0.3c-0.2,0-0.3,0-0.3-0.3c0-0.9,0-1.8,0-2.7 c0-0.2,0.1-0.3,0.3-0.3c1.3-0.1,2.6-0.1,3.9-0.2c0.3,0,0.6-0.1,0.8,0c0.2,0.2,0.1,0.5,0.1,0.8c0,0.3,0.1,0.3,0.4,0.3 c1.2-0.1,2.4-0.2,3.7-0.2c0.2,0,0.3-0.1,0.3-0.3c0-0.7,0-1.4,0-2.1c0-0.3-0.1-0.4-0.3-0.6c-0.7-0.6-1.4-1.2-2.1-1.8 c-0.2-0.2-0.4-0.2-0.6-0.2c-2.6,0.2-5.2,0.3-7.8,0.5c-0.2,0-0.3,0.1-0.4,0.2c-0.7,0.7-1.4,1.5-2.2,2.2c-0.1,0.1-0.2,0.3-0.2,0.5 c0,1.9,0,3.8,0,5.7c0,0.2,0.1,0.3,0.2,0.5c0.7,0.6,1.4,1.2,2.1,1.9c0.2,0.2,0.3,0.2,0.6,0.2c2-0.1,4-0.2,6-0.3c0.3,0,0.4,0,0.4,0.3 c0,0.9,0,1.8,0,2.7c0,0.3-0.1,0.4-0.4,0.4c-1.3,0-2.5,0.1-3.8,0.1c-0.9,0-0.9,0-0.9-0.8c0,0,0-0.1,0-0.1c0-0.1,0-0.2-0.2-0.2 c-1.2,0.1-2.5,0.1-3.7,0.2c-0.2,0-0.3,0.1-0.3,0.3c0,0.7,0,1.4,0,2.2c0,0.2,0.1,0.3,0.2,0.4c0.7,0.7,1.5,1.3,2.2,2 c0.1,0.1,0.3,0.2,0.5,0.2C51.5,68.7,52.8,68.6,54.6,68.6z M79.9,38.7c-1,0-1.4,0.4-1.6,1.1c-0.1,0.7-0.3,1.4-0.5,2.2 c-0.4,1.7-0.9,3.3-1.5,4.9c-0.8,2-1.8,3.9-3.2,5.5c-0.4,0.5-0.4,0.8-0.1,1.3c0.4,0.6,0.9,1.1,1.3,1.6c0.5,0.6,0.7,0.6,1.3,0 c4-4,8.1-8,12.1-12.1c0.6-0.6,0.6-1.1-0.1-1.6C85.4,39.8,82.7,38.8,79.9,38.7z M93,52.5c-0.6,0.3-1.3,0.3-1.9,0.5 c-0.3,0.1-0.3-0.1-0.3-0.3c0.1-0.4,0.1-0.7,0.2-1.1c0.3-2.6-0.1-5.1-1.2-7.6c-0.2-0.5-0.5-0.6-1-0.3c-0.1,0.1-0.2,0.2-0.3,0.3 c-2.2,2.2-4.4,4.4-6.6,6.6c-1.9,1.9-3.7,3.7-5.5,5.6c-0.5,0.5-0.5,0.7,0,1.2c0.6,0.5,1.2,1,1.8,1.4c0.4,0.3,0.8,0.3,1.1-0.1 c0.6-0.6,1.3-1.1,2-1.5c1.7-1.1,3.6-1.8,5.5-2.4c1.7-0.5,3.4-1,5.1-1.3C92.4,53.3,92.8,53.1,93,52.5z M53.5,84.4c0.1,0,0.2,0,0.4,0 c1,0,1,0,0.8-1c-0.3-2.2-0.6-4.3-0.9-6.5c-0.2-1.5-0.4-3-0.6-4.5c0-0.3-0.1-0.4-0.4-0.4c-1.6,0.1-3.1,0.1-4.7,0.1 c-0.3,0-0.4,0.1-0.4,0.4c0,0.3-0.1,0.7-0.1,1c-0.2,1.5-0.4,3-0.6,4.5c-0.3,2-0.5,4.1-0.8,6.1c0,0.3,0.1,0.3,0.3,0.3 c0.6,0,1.2,0,1.8,0c0.3,0,0.4-0.1,0.4-0.4c0.1-0.5,0.1-0.9,0.2-1.4c0-0.2,0.1-0.3,0.3-0.3c0.8,0,1.6,0,2.4,0c0.2,0,0.3,0.1,0.3,0.3 c0.1,0.4,0.1,0.7,0.1,1.1c0.1,0.7,0.1,0.7,0.7,0.7C53.1,84.4,53.3,84.4,53.5,84.4z M76.6,38.9c-0.9,0.1-1.8,0.4-2.7,0.8 c-1.8,0.7-3.3,1.8-4.6,3.2c-0.3,0.3-0.4,0.6-0.3,1c0.2,1.2,0.4,2.4,0.8,3.6c0.5,1.4,1,2.6,1.8,3.9c0.3,0.5,0.6,0.5,1,0.1 c0.5-0.5,0.9-1.1,1.2-1.7c1-1.6,1.7-3.4,2.3-5.2c0.5-1.6,1-3.3,1.3-5C77.4,39,77.3,38.9,76.6,38.9z M4.8,79c0,1.2,0,2.3,0,3.5 c0,0.2,0.1,0.4,0.2,0.5c0.5,0.5,0.9,0.9,1.4,1.4c0.1,0.1,0.3,0.2,0.4,0.2c1,0,2,0,3,0c0.2,0,0.5-0.1,0.6-0.3 c0.4-0.4,0.8-0.8,1.2-1.3c0.1-0.1,0.3-0.2,0.3-0.5c0-0.7,0-1.3,0-2c0-0.2-0.1-0.2-0.2-0.2c-0.6,0-1.1,0-1.7,0 c-0.2,0-0.2,0.1-0.2,0.2c0,0.3,0,0.6,0,0.9c0,0.6-0.3,0.9-1,0.9c-0.4,0-0.8,0-1.2,0c-0.4,0-0.8-0.4-0.8-0.8c0-1.7,0-3.5,0-5.2 c0-0.7,0.3-1,1-1c0.3,0,0.7,0,1,0c0.6,0,0.9,0.3,0.9,0.9c0,0.2,0,0.5,0,0.7c0,0.3,0.1,0.3,0.4,0.3c0.5,0,1,0,1.4,0 c0.3,0,0.4-0.1,0.4-0.3c0-0.6,0-1.1,0-1.7c0-0.2-0.1-0.4-0.2-0.6c-0.4-0.4-0.9-0.8-1.3-1.3c-0.2-0.2-0.3-0.2-0.6-0.2 c-1,0-2,0.1-3.1,0.1c-0.2,0-0.3,0.1-0.4,0.2C5.9,74,5.4,74.5,5,75c-0.1,0.1-0.2,0.3-0.2,0.5C4.8,76.6,4.8,77.8,4.8,79z M88.1,62.9 c0.3,0,0.6-0.2,0.8-0.4c0.1-0.1,0.2-0.1,0.1-0.2c0-0.1-0.1-0.1-0.2-0.1c-1-0.1-2-0.3-3-0.6c-0.1,0-0.3,0-0.3-0.2 c0-0.1,0.1-0.2,0.2-0.2c2-1.6,3.4-3.6,4.4-6c0-0.1,0.1-0.2,0-0.3c-0.1-0.1-0.2,0-0.3,0c-1,0.3-2,0.5-3,0.9c-2,0.6-3.8,1.4-5.6,2.6 c-0.3,0.2-0.6,0.5-0.9,0.7c-0.6,0.5-0.5,0.8,0.1,1.2c1.4,0.8,2.8,1.4,4.3,1.9C86,62.5,87,62.7,88.1,62.9z M76,64.5 c0.2,0,0.5,0,0.7,0c0.2,0,0.3,0,0.3-0.2c-0.1-1.3,0.2-2.5,0.8-3.7c0.2-0.4,0.2-0.7-0.2-1c-0.7-0.5-1.3-1.1-2-1.6 c-0.4-0.4-0.7-0.4-1.1,0c-1.4,1.4-2.7,2.7-4.1,4.1c-0.1,0.1-0.3,0.3-0.3,0.5c-0.1,0.4,0.1,0.6,0.7,0.9C72.4,64.2,74.2,64.4,76,64.5 z M67.9,44.4c-0.4,0.6-0.8,1.2-1.1,1.8c-1,2-1.6,4.2-1.5,6.5c0,0.3,0.1,0.5,0.5,0.6c0.4,0.2,0.9,0.3,1.4,0.4c1.1,0.2,2.2,0,3.2-0.5 c0.5-0.3,0.6-0.7,0.3-1.2c-0.3-0.5-0.6-1-0.8-1.6c-0.7-1.3-1.2-2.7-1.5-4.1C68.2,45.7,68.1,45.1,67.9,44.4z M41.9,57.2 c0.2,0,0.4,0,0.6,0c0.5,0,0.8-0.2,1.1-0.5c0.6-0.7,1.2-1.4,1.8-2.1c0.1-0.2,0.2-0.3,0.2-0.5c0-1,0-2,0-2.9c0-0.2,0-0.4-0.3-0.3 c-1.3,0.1-2.6,0.2-3.9,0.2c-0.2,0-0.2,0.1-0.2,0.3c0,1.1,0,2.2,0,3.3c0,0.3,0.1,0.3,0.3,0.3c0.5,0,1-0.1,1.5-0.1 C42.7,55.5,42.3,56.3,41.9,57.2z M83.4,62.8c-1.3-0.5-2.5-1.1-3.6-1.7c-0.5-0.3-1-0.1-1.2,0.4C78.2,62.3,78,63.1,78,64 c0,0.2,0.1,0.3,0.3,0.3c1.1-0.1,2.1-0.3,3.2-0.7C82.2,63.4,82.8,63.2,83.4,62.8z"></path> <path class="st21" d="M57.7,39.4c0,0.9-0.1,1.7-0.1,2.6c0,0.3-0.1,0.3-0.4,0.2c-1.7-0.6-3.4-1.2-5.1-1.8c-0.6-0.2-0.6-0.2-0.6,0.4 c0.1,1.8,0.1,3.7,0.2,5.5c0,0.6,0,0.6-0.6,0.7c-1.7,0.1-3.3,0.2-5,0.3c-0.2,0-0.3-0.1-0.3-0.3c0-0.4,0-0.7,0-1.1 c0-6.3,0-12.6,0-18.9c0-0.3-0.1-0.5-0.3-0.6c-2.2-1.8-4.3-3.7-6.5-5.5c-1.8-1.5-3.5-3-5.2-4.5c-0.6-0.5-1.1-0.4-1.7-0.3 c-2.5,0.3-5,0.6-7.4,0.9c-2.4,0.3-4.8,0.6-7.1,0.9c-1.7,0.2-3.4,0.4-5.1,0.6c-0.9,0.1-1.9,0.2-2.8,0.3c-0.2,0-0.4,0.1-0.5,0.3 c-1.4,1.6-2.9,3.2-4.3,4.8c-0.8,0.9-1.7,1.9-2.5,2.8c-0.2,0.2-0.2,0.4-0.2,0.6c0,4.2,0,8.3,0,12.5c0,0.3,0.1,0.4,0.3,0.6 c1.2,1,2.3,2,3.5,3c0.2,0.2,0.5,0.3,0.8,0.2c2-0.2,4-0.4,6-0.6c0.3,0,0.3,0.1,0.3,0.3c0,3,0,6,0,9c0,0.3-0.1,0.4-0.3,0.4 c-0.5,0-1,0.1-1.4,0.1c-1.7,0.1-3.3,0.2-5,0.3c-1.3,0.1-2.5,0.2-3.8,0.2c-0.3,0-0.3,0.2-0.3,0.4c0,2.1,0,4.2,0,6.3 c0,1.9,0,3.8,0,5.7c0,0.3,0.1,0.5,0.3,0.7c1.5,1.4,3,2.9,4.5,4.3C7,70.6,7,70.7,7.1,70.8c-0.2,0-0.3,0-0.4,0 c-1.4,0-2.8,0.1-4.2,0.1c-0.3,0-0.3,0.1-0.3,0.4c0,5.1,0,10.3,0,15.4c0,0.3,0.1,0.4,0.4,0.4c0.2,0,0.4,0,0.6,0 c25.8,0,51.6,0,77.5,0c0.5,0,0.5,0,0.5-0.5c0-5.9,0-11.9,0-17.8c0-0.3,0-0.4-0.3-0.4c-2.3,0.1-4.6,0.2-7,0.2 c-0.8,0-1.6,0.1-2.4,0.1c-2.3,0.1-4.7,0.1-7,0.2c0,0-0.1,0-0.1,0c-0.3,0-0.8,0.2-1,0c-0.2-0.2-0.1-0.7-0.1-1c0-0.3-0.1-0.8,0.1-1 c0.2-0.2,0.7-0.1,1-0.1c2.4-0.1,4.8-0.2,7.1-0.2c1.7-0.1,3.4-0.1,5.1-0.2c1,0,2-0.1,3-0.1c1-0.1,2,0,3,0.4c0.6,0.2,1.3,0.4,1.9,0.6 c0.2,0.1,0.4,0,0.6,0c4.7-2,8-5.4,9.3-10.4c1.7-6.4,0-12-5-16.4c-2-1.8-4.4-2.9-7-3.4c-5-1-9.4,0.1-13.4,3.4 c-2.8,2.3-4.6,5.3-5.4,8.9c0,0.2-0.1,0.3-0.1,0.5c0,0.3-0.2,0.2-0.3,0.1c-0.5-0.4-0.9-0.8-1.4-1.2c-0.2-0.1-0.2-0.3-0.2-0.5 c0-5.2,0-10.5,0-15.7c0-0.3,0.1-0.4,0.4-0.4c0.6,0,1.1,0.1,1.7,0.2c0.6,0.1,1.2,0.4,1.6,0.8c0.1,2.7,0.2,5.4,0.4,8.2 c3.9-4.4,8.7-6.6,14.6-6.2c4.7,0.3,8.7,2.2,11.9,5.8c3.2,3.6,4.7,7.8,4.5,12.6c-0.3,4.8-2.3,8.8-5.8,12.1c0.2,0.2,0.4,0.2,0.7,0.3 c0.9,0.3,1.7,0.7,2.6,1c0.2,0.1,0.3,0.2,0.3,0.5c0,0.9,0,1.8,0,2.7c0,0.3,0.1,0.4,0.3,0.4c1.1,0.3,2.2,0.7,3.4,1 c0.2,0.1,0.3,0.2,0.3,0.4c0,5.7,0,11.3,0,17c0,0.3-0.1,0.4-0.4,0.4c-5.1,0-10.2,0-15.3,0c-27.4,0-54.8,0-82.2,0 c-0.6,0-0.6,0.1-0.6-0.6c0-12.3,0-24.6,0-36.9c0-0.6,0-0.6,0.6-0.6c2.1-0.1,4.2-0.2,6.3-0.3c1.2-0.1,2.3-0.1,3.5-0.2 c0.1,0,0.3,0.1,0.3-0.1c0.1-0.1-0.1-0.2-0.2-0.3c-2.1-1.8-4.2-3.6-6.2-5.5c-1.4-1.2-2.7-2.4-4.1-3.5C0.1,41.1,0,41,0,40.7 c0-4.7,0-9.5,0-14.2c0-0.2,0.1-0.4,0.2-0.6c2.6-2.9,5.2-5.8,7.8-8.8c0.2-0.2,0.4-0.4,0.8-0.4c1.5-0.2,3.1-0.3,4.6-0.5 c1.4-0.2,2.8-0.3,4.2-0.5c2-0.2,4-0.5,5.9-0.7c1.7-0.2,3.3-0.4,5-0.6c1.3-0.2,2.6-0.3,3.8-0.4c0.5-0.1,0.9-0.1,1.4-0.2 c0.2,0,0.4,0,0.5,0.2c2.2,1.9,4.4,3.8,6.6,5.7c0.1,0.1,0.3,0.3,0.4,0c0,0.3,0.1,0.5,0.3,0.7c1,0.9,2,1.7,3.1,2.6 c0.4,0.3,0.8,0.7,1.3,1.1c0-0.2,0-0.4,0-0.5c0-2.5,0-5,0-7.6c0-0.4,0.1-0.5,0.5-0.4c1.4,0.1,2.9,0.2,4.1,1.2c0-0.1,0-0.2,0-0.3 c0.1,0.3,0,0.6,0.1,0.8c0.1,3.2,0.3,6.3,0.4,9.5c0.1,1.6,0.1,3.1,0.2,4.7c0.1,2,0.2,4,0.2,6c0,0.2,0.1,0.3,0.3,0.4 c1.9,0.6,3.7,1.3,5.5,2C57.5,39.7,57.6,39.7,57.7,39.4z M83.3,73C83.3,73,83.3,73,83.3,73c0,1.2,0,2.4,0,3.5c0,0.2,0,0.3,0.2,0.4 c0.6,0.1,1.1,0.2,1.7,0.3c0.5,0.1,0.5,0.1,0.5-0.5c0-1.7,0-3.4,0-5c0-0.3,0.1-0.4,0.4-0.3c0.3,0.1,0.7,0.3,1.1,0.4 c0.3,0.1,0.4,0.2,0.4,0.6c0,1.6,0,3.3,0,4.9c0,0.3,0.1,0.4,0.3,0.4c0.5,0.1,1,0.2,1.5,0.3c0.4,0.1,0.4,0,0.4-0.4c0-1.5,0-3,0-4.5 c0-0.3,0.1-0.4,0.4-0.3c0.3,0.1,0.6,0.3,0.9,0.3c0.3,0.1,0.4,0.2,0.4,0.5c0,1.4,0,2.7,0,4.1c0,0.6,0,0.6,0.6,0.7 c0.3,0,0.5,0.1,0.8,0.2c0.7,0.1,0.7,0.1,0.7-0.5c0-1.3,0-2.5,0-3.8c0-0.3,0.1-0.3,0.3-0.2c0.3,0.1,0.5,0.2,0.8,0.3 c0.3,0.1,0.4,0.2,0.4,0.6c0,1.3,0,2.6,0,3.8c0,0.3,0.1,0.4,0.3,0.4c0.4,0,0.8,0.1,1.1,0.2c0.3,0.1,0.4,0,0.4-0.3c0-1.7,0-3.3,0-5 c0-0.3-0.1-0.4-0.4-0.5c-1.2-0.4-2.4-0.8-3.6-1.2c-3.1-1.1-6.2-2.1-9.2-3.2c-0.3-0.1-0.4-0.1-0.4,0.3C83.3,70.6,83.3,71.8,83.3,73z M83.3,83.2c0,1.2,0,2.4,0,3.5c0,0.2,0,0.3,0.3,0.3c0.6,0,1.2,0,1.9,0c0.2,0,0.3-0.1,0.3-0.3c0-2.3,0-4.6,0-6.9 c0-0.2-0.1-0.3-0.3-0.3c-0.6-0.1-1.2-0.2-1.8-0.3c-0.3,0-0.4,0-0.4,0.3C83.3,80.9,83.3,82.1,83.3,83.2z M87.6,83.6 c0,1.1,0,2.2,0,3.2c0,0.3,0.1,0.3,0.3,0.3c0.5,0,1,0,1.4,0c0.4,0,0.5-0.1,0.5-0.5c0-2,0-4,0-5.9c0-0.4-0.2-0.5-0.5-0.5 c-0.5-0.1-1-0.1-1.5-0.2c-0.3-0.1-0.3,0-0.3,0.3C87.6,81.4,87.6,82.5,87.6,83.6z M91.5,83.9c0,1,0,1.9,0,2.9c0,0.3,0.1,0.4,0.4,0.4 c0.4,0,0.9,0,1.3,0c0.2,0,0.3,0,0.3-0.3c0-1.9,0-3.8,0-5.7c0-0.2-0.1-0.3-0.2-0.3c-0.5-0.1-1-0.1-1.4-0.2c-0.3-0.1-0.3,0-0.3,0.3 C91.5,81.9,91.5,82.9,91.5,83.9z M95,84.1c0,0.9,0,1.8,0,2.7c0,0.2,0,0.3,0.3,0.3c0.4,0,0.8,0,1.2,0c0.2,0,0.3-0.1,0.3-0.3 c0-1.7,0-3.4,0-5.1c0-0.2-0.1-0.3-0.3-0.3c-0.4,0-0.8-0.1-1.2-0.2c-0.4-0.1-0.4,0-0.4,0.3C95,82.4,95,83.2,95,84.1z"></path> <path class="st20" d="M50.5,16.3c0,0.1,0,0.2,0,0.3c-1.2-1-2.6-1.1-4.1-1.2c-0.3,0-0.5,0.1-0.5,0.4c0,2.5,0,5,0,7.6 c0,0.1,0,0.3,0,0.5c-0.5-0.4-0.9-0.7-1.3-1.1c-1-0.9-2-1.8-3.1-2.6c-0.2-0.2-0.4-0.4-0.3-0.7c0.1-3,0.2-6,0.3-9c0-0.2,0-0.4,0-0.6 c0-0.2,0-0.3-0.1-0.5c-0.1-0.1-0.2-0.3-0.2-0.5c0-0.4,0-0.8,0-1.2c0-0.1,0-0.2,0.1-0.3c0.4-0.4,0.3-0.9,0.3-1.3 c0-0.4,0.1-0.9,0-1.3c0-0.4,0.1-0.8,0.5-0.9c0.2-0.1,0.3-0.2,0.3-0.4c0-0.8,0.1-1.6,0.1-2.4c0-0.3,0.1-0.5,0.4-0.7 c0.5-0.3,1.1-0.4,1.7-0.4C46,0,47.1,0,48.2,0.3c0.2,0,0.3,0.1,0.5,0.2c0.4,0.2,0.6,0.4,0.5,0.8c0,0.2,0,0.5,0,0.7 c0,0.1,0,0.2,0,0.2c-0.9-0.6-2-0.7-3-0.7C46,1.5,46,1.6,46,1.7c0,0.4,0,0.8,0,1.2c0,0.3,0.1,0.4,0.4,0.4c1,0,2,0.2,3,0.5 c0.5,0.2,0.8,0.6,0.7,1.2c0,0.3,0,0.6,0,0.9c-0.2-0.1-0.4-0.3-0.7-0.4C48.7,5.1,47.9,5,47,4.9C46,4.8,46,4.9,46,5.9 c0,0.2,0,0.3,0.3,0.3c1.3,0.1,2.6,0.2,3.8,0.8c0.5,0.6,0.7,1.8,0.2,2.5c-0.1,0.2-0.1,0.3-0.1,0.5C50.4,12.2,50.5,14.3,50.5,16.3z"></path> <path class="st21" d="M49.3,3.9c-1-0.4-2-0.5-3-0.5C46.1,3.3,46,3.2,46,3c0-0.4,0-0.8,0-1.2c0-0.1,0-0.3,0.2-0.3c1,0,2.1,0.1,3,0.7 c0-0.1,0-0.2,0-0.2C49.4,2.6,49.3,3.2,49.3,3.9z"></path> <path class="st21" d="M50.1,7.1c-1.2-0.6-2.5-0.7-3.8-0.8C46,6.3,46,6.2,46,5.9c0-1.1,0-1.1,1.1-1c0.8,0.1,1.7,0.2,2.4,0.6 c0.2,0.1,0.4,0.3,0.7,0.4C50.1,6.3,50.2,6.7,50.1,7.1z"></path> <path class="st21" d="M64.4,22.6c-0.8-0.3-1.6-0.4-2.5-0.4c-0.2,0-0.3-0.1-0.3-0.3c0-0.2,0-0.3,0-0.5c0-0.9,0-0.8,0.8-0.7 c0.4,0,0.8,0.1,1.2,0.3c0.2,0.1,0.5,0.2,0.6,0.4C64.3,21.8,64.4,22.2,64.4,22.6z"></path> <path class="st21" d="M65,25.3c-0.9-0.5-2-0.6-3-0.7c-0.3,0-0.4-0.1-0.4-0.4c-0.1-0.8,0-0.8,0.7-0.7c0.9,0.1,1.8,0.3,2.6,0.8 C65,24.6,65,25,65,25.3z"></path> <path class="st21" d="M65,24.2c-0.1-0.2-0.1-0.3,0-0.5C65.1,23.8,65.1,24,65,24.2z"></path> <path class="st22" d="M38.5,33.2c0,2.7,0,5.4,0,8.1c0,0.3-0.1,0.5-0.3,0.7c-0.6,0.6-1.1,1.2-1.7,1.8c-0.2,0.2-0.2,0.2,0,0.4 c0.6,0.5,1.2,1.1,1.8,1.6c0.1,0.1,0.2,0.3,0.2,0.4c0,5.5,0,11.1,0,16.6c0,0.2-0.1,0.4-0.2,0.5c-1.9,1.9-3.8,3.8-5.7,5.7 c-0.2,0.2-0.3,0.2-0.5,0.2c-3.8,0.1-7.6,0.3-11.4,0.4c-3,0.1-6.1,0.2-9.1,0.3c-0.3,0-0.4-0.1-0.6-0.2c-1.7-1.6-3.4-3.3-5.1-4.9 c-0.2-0.2-0.3-0.4-0.3-0.7c0-2.4,0-4.8,0-7.3c0-0.5,0-0.5,0.5-0.6c2.1-0.1,4.2-0.2,6.3-0.4c0.3,0,0.4,0,0.4,0.4c0,1.5,0,3,0,4.5 c0,0.3,0.1,0.4,0.3,0.6c0.3,0.2,0.5,0.5,0.8,0.7c0.3,0.3,0.5,0.4,0.9,0.4c1.4-0.1,2.9-0.2,4.3-0.2c3.3-0.2,6.5-0.3,9.8-0.5 c0.2,0,0.4-0.1,0.6-0.3c0.4-0.4,1-0.8,1.2-1.3c0.2-0.5,0.1-1.1,0.1-1.7c0-2.8,0-5.7,0-8.5c0-0.3-0.1-0.5-0.3-0.7 c-1.2-1.1-1.2-1.1-2.8-1c-3.1,0.2-6.1,0.4-9.2,0.6c-0.6,0-1.2,0.1-1.7,0.1c-0.2,0-0.3,0-0.3-0.3c0-2.3,0-4.5,0-6.8 c0-0.2,0.1-0.3,0.3-0.3c1.1-0.1,2.2-0.2,3.3-0.3c2.8-0.2,5.6-0.5,8.3-0.7c0.7,0,1.1-0.3,1.5-0.8c0.7-0.6,0.9-1.3,0.8-2.1 c-0.1-3,0-6,0-9c0-0.3-0.1-0.5-0.3-0.6c-0.2-0.1-0.4-0.3-0.6-0.5c-0.4-0.5-0.9-0.6-1.5-0.5c-2.8,0.3-5.6,0.6-8.4,0.9 c-1.8,0.2-3.5,0.4-5.3,0.6c-0.3,0-0.5,0.1-0.6,0.3c-0.1,0.1-0.2,0.2-0.3,0.3c-0.8,0.6-0.9,1.4-0.9,2.3c0.1,1.2,0,2.3,0,3.5 c0,0.4-0.1,0.5-0.5,0.5c-1.2,0.1-2.3,0.2-3.5,0.3c-1,0.1-2,0.2-3.1,0.3c-0.2,0-0.3,0-0.3-0.3c0-2.6,0-5.1,0-7.7 c0-0.2,0.1-0.3,0.2-0.4c1.8-2,3.5-3.9,5.3-5.9c0.1-0.1,0.3-0.2,0.4-0.2c2.1-0.2,4.2-0.5,6.4-0.8c1.7-0.2,3.4-0.4,5-0.6 c1.7-0.2,3.3-0.4,5-0.6c1.4-0.2,2.9-0.3,4.3-0.5c0.1,0,0.2,0,0.4,0.1c1.9,1.6,3.8,3.3,5.8,4.9c0.2,0.2,0.2,0.3,0.2,0.6 C38.5,27.8,38.5,30.5,38.5,33.2z"></path> <path class="st22" d="M54.6,68.6c-1.8,0.1-3.1,0.1-4.3,0.2c-0.2,0-0.3,0-0.5-0.2c-0.7-0.7-1.5-1.3-2.2-2c-0.1-0.1-0.2-0.2-0.2-0.4 c0-0.7,0-1.4,0-2.2c0-0.2,0.1-0.3,0.3-0.3c1.2,0,2.5-0.1,3.7-0.2c0.1,0,0.2,0,0.2,0.2c0,0,0,0.1,0,0.1c0,0.9,0,0.9,0.9,0.8 c1.3-0.1,2.5-0.1,3.8-0.1c0.3,0,0.4-0.1,0.4-0.4c0-0.9,0-1.8,0-2.7c0-0.3-0.1-0.3-0.4-0.3c-2,0.1-4,0.2-6,0.3c-0.2,0-0.4,0-0.6-0.2 c-0.7-0.6-1.4-1.2-2.1-1.9c-0.2-0.1-0.2-0.3-0.2-0.5c0-1.9,0-3.8,0-5.7c0-0.2,0.1-0.3,0.2-0.5c0.7-0.7,1.5-1.4,2.2-2.2 c0.1-0.1,0.2-0.2,0.4-0.2c2.6-0.2,5.2-0.3,7.8-0.5c0.2,0,0.4,0.1,0.6,0.2c0.7,0.6,1.4,1.2,2.1,1.8c0.2,0.2,0.3,0.3,0.3,0.6 c0,0.7,0,1.4,0,2.1c0,0.2,0,0.3-0.3,0.3c-1.2,0.1-2.4,0.1-3.7,0.2c-0.3,0-0.4,0-0.4-0.3c0-0.3,0.1-0.6-0.1-0.8 c-0.1-0.1-0.5,0-0.8,0c-1.3,0.1-2.6,0.2-3.9,0.2c-0.2,0-0.3,0.1-0.3,0.3c0,0.9,0,1.8,0,2.7c0,0.3,0.1,0.3,0.3,0.3 c2-0.1,3.9-0.2,5.9-0.3c0.3,0,0.6,0,0.9,0.3c0.7,0.6,1.4,1.2,2.1,1.8c0.2,0.1,0.2,0.3,0.2,0.5c0,1.9,0,3.9,0,5.8 c0,0.2-0.1,0.3-0.2,0.5c-0.7,0.7-1.5,1.4-2.2,2.1c-0.2,0.2-0.3,0.2-0.6,0.2C56.6,68.5,55.3,68.5,54.6,68.6z"></path> <path class="st23" d="M79.9,38.7c2.8,0.1,5.4,1.1,7.8,2.9c0.6,0.5,0.7,1,0.1,1.6c-4,4-8.1,8-12.1,12.1c-0.6,0.6-0.8,0.6-1.3,0 c-0.5-0.5-0.9-1.1-1.3-1.6c-0.4-0.5-0.4-0.8,0.1-1.3c1.5-1.6,2.4-3.5,3.2-5.5c0.6-1.6,1.1-3.2,1.5-4.9c0.2-0.7,0.3-1.4,0.5-2.2 C78.5,39,79,38.7,79.9,38.7z"></path> <path class="st23" d="M93,52.5c-0.2,0.6-0.5,0.8-1,0.9c-1.7,0.3-3.4,0.8-5.1,1.3c-1.9,0.6-3.8,1.4-5.5,2.4c-0.7,0.4-1.4,0.9-2,1.5 C79,59,78.6,59,78.2,58.7c-0.6-0.4-1.2-0.9-1.8-1.4c-0.5-0.5-0.5-0.7,0-1.2c1.8-1.9,3.7-3.7,5.5-5.6c2.2-2.2,4.4-4.4,6.6-6.6 c0.1-0.1,0.2-0.2,0.3-0.3c0.5-0.3,0.8-0.2,1,0.3c1.1,2.4,1.5,4.9,1.2,7.6c0,0.4-0.1,0.7-0.2,1.1c-0.1,0.2,0,0.4,0.3,0.3 C91.7,52.7,92.3,52.7,93,52.5z"></path> <path class="st24" d="M26.9,72.8c0.4,0,0.7,0,1.1,0c0.2,0,0.3,0.1,0.3,0.3c0.2,1,0.4,2,0.6,3c0.1,0.5,0.2,1,0.3,1.5 c0.3-0.4,0.2-0.9,0.3-1.3c0.2-1,0.4-2,0.5-3c0.1-0.4,0.2-0.5,0.6-0.5c0.9,0,1.9,0,2.8-0.1c0.3,0,0.4,0.1,0.4,0.4 c0,3.7,0,7.4,0,11.2c0,0.3-0.1,0.4-0.4,0.4c-0.5,0-1,0-1.5,0c-0.3,0-0.5-0.1-0.5-0.5c0-1.7,0-3.5,0-5.2c0-0.1,0-0.2-0.1-0.3 c-0.1,0.7-0.3,1.4-0.4,2.2c-0.2,1.2-0.4,2.4-0.6,3.6c0,0.2-0.1,0.2-0.3,0.2c-0.6,0-1.1,0-1.7,0c-0.2,0-0.2-0.1-0.2-0.2 c-0.1-0.8-0.3-1.5-0.4-2.3c-0.2-1-0.4-2-0.5-3.1c0-0.2,0-0.4-0.2-0.6c0,1.8,0,3.6,0,5.4c0,0.7,0,0.7-0.7,0.7c-0.5,0-1,0-1.5,0 c0,0,0,0,0,0c0-3.7,0-7.4,0-11.1c0-0.3,0.1-0.4,0.4-0.5C25.8,72.8,26.3,72.9,26.9,72.8z"></path> <path class="st23" d="M62.5,84.3c-0.9-2.1-1.8-4.3-2.7-6.4c-0.1-0.1-0.1-0.3-0.2-0.4c0,0,0,0,0,0c0,0,0,0,0,0c0,0.1,0,0.2,0,0.3 c0,2.2,0,4.4,0,6.6c-0.8,0.1-1.6,0.1-2.4,0c0-0.1,0-0.1,0-0.2c0-4.1,0-8.2,0-12.2c0.9,0,1.7,0,2.6-0.1c0.3,0,0.4,0.1,0.5,0.3 c0.7,1.7,1.4,3.4,2.1,5.2c0.2,0.5,0.4,0.9,0.6,1.4c0-0.2,0-0.3,0-0.5c0-2,0-4,0-6.1c0-0.3,0.1-0.5,0.4-0.4c0.6,0,1.2,0,1.8,0 c0.2,0,0.4,0,0.4,0.3c0,3.9,0,7.8,0,11.8c0,0.3-0.1,0.4-0.4,0.4C64.3,84.2,63.4,84.3,62.5,84.3z"></path> <path class="st23" d="M53.5,84.4c-0.2,0-0.4,0-0.6,0c-0.7,0-0.7,0-0.7-0.7c0-0.4-0.1-0.7-0.1-1.1c0-0.2-0.1-0.3-0.3-0.3 c-0.8,0-1.6,0-2.4,0c-0.2,0-0.3,0.1-0.3,0.3c0,0.5-0.1,0.9-0.2,1.4c0,0.3-0.1,0.4-0.4,0.4c-0.6,0-1.2,0-1.8,0c-0.2,0-0.3,0-0.3-0.3 c0.3-2,0.5-4.1,0.8-6.1c0.2-1.5,0.4-3,0.6-4.5c0-0.3,0.1-0.7,0.1-1c0-0.3,0.1-0.4,0.4-0.4c1.6,0,3.1-0.1,4.7-0.1 c0.3,0,0.4,0.1,0.4,0.4c0.2,1.5,0.4,3,0.6,4.5c0.3,2.2,0.6,4.3,0.9,6.5c0.1,1,0.1,1-0.8,1C53.8,84.4,53.7,84.4,53.5,84.4z M51.7,80 c0-0.7-0.1-1.5-0.2-2.2c-0.1-1-0.3-1.9-0.4-2.9c0-0.3-0.1-0.5-0.4-0.4c-0.1,0-0.2,0-0.3,0c-0.3,0-0.4,0.1-0.4,0.3 c-0.2,1.3-0.3,2.6-0.5,3.8c-0.1,0.5-0.1,0.9-0.1,1.4c0.6,0.2,1.2,0,1.8,0.1C51.4,80.1,51.5,80.2,51.7,80z"></path> <path class="st23" d="M76.6,38.9c0.6,0,0.8,0.1,0.7,0.6c-0.3,1.7-0.8,3.3-1.3,5c-0.6,1.8-1.3,3.6-2.3,5.2c-0.4,0.6-0.7,1.1-1.2,1.7 c-0.4,0.4-0.7,0.4-1-0.1c-0.7-1.2-1.3-2.5-1.8-3.9c-0.4-1.2-0.7-2.4-0.8-3.6c0-0.4,0-0.7,0.3-1c1.3-1.4,2.9-2.4,4.6-3.2 C74.8,39.3,75.8,39.1,76.6,38.9z"></path> <path class="st24" d="M20.2,73c0.6,0.5,1.1,1.1,1.7,1.6C22,74.8,22,74.9,22,75c0,2.5,0,4.9,0,7.4c0,0.2-0.1,0.4-0.2,0.5 c-0.5,0.5-1,1-1.5,1.5c-0.1,0.1-0.3,0.2-0.5,0.2c-1.1,0-2.1,0-3.2,0c-0.2,0-0.4-0.1-0.6-0.2c-0.5-0.5-0.9-0.9-1.4-1.4 c-0.1-0.1-0.2-0.3-0.2-0.5c0-2.4,0-4.8,0-7.2c0-0.2,0.1-0.4,0.2-0.5c0.3-0.3,0.7-0.6,1-1c0.4-0.5,0.9-0.8,1.5-0.6 C18.2,73.1,19.2,73,20.2,73z M17.3,75.2c-0.4,0.3-0.6,0.7-0.6,1.2c0,1.7,0,3.4,0,5c0,0.6,0.3,0.9,0.9,0.9c0.4,0,0.9,0,1.3,0 c0.5,0,0.9-0.4,0.9-0.9c0-1.7,0-3.3,0-5c0-0.5-0.1-1-0.5-1.3c-0.1-0.1-0.2-0.1-0.4-0.1C18.4,75.2,17.8,75.1,17.3,75.2z"></path> <path class="st23" d="M39,80.6c0,1.2,0,2.4,0,3.5c0,0.3-0.1,0.4-0.4,0.4c-0.5,0-1,0-1.6,0c-0.3,0-0.5-0.1-0.5-0.4 c0-1.6,0-3.3,0-4.9c0-2,0-4.1,0-6.1c0-0.4,0.1-0.5,0.5-0.5c1.7,0,3.4-0.1,5.1-0.1c0.2,0,0.4,0.1,0.6,0.2c0.5,0.5,1,1,1.6,1.4 c0.1,0.1,0.2,0.3,0.2,0.5c0,1.2,0,2.4,0,3.6c0,0.1,0,0.3-0.1,0.4c-0.6,0.6-1.3,1.2-1.9,1.8c-1.1,0-2.2,0-3.3,0 C39.1,80.3,38.9,80.3,39,80.6z M39,76.4c0,0.5,0,0.9,0,1.4c0,0.3,0.1,0.3,0.3,0.3c0.7,0,1.4,0,2,0c0.4,0,0.8-0.5,0.8-0.9 c0-0.6,0-1.1,0-1.7c0-0.4-0.4-0.8-0.8-0.8c-0.7,0-1.4,0-2.1,0.1C39,74.7,39,74.8,39,75C39,75.5,39,75.9,39,76.4z"></path> <path class="st23" d="M71.6,80.1c-0.7-1.7-1.5-3.5-2.2-5.2c-0.4-1-0.9-2-1.3-3c-0.1-0.2-0.1-0.3,0.2-0.3c0.8,0,1.6,0,2.4-0.1 c0.1,0,0.2,0,0.3,0.2c0.6,1.5,1.3,3,2,4.6c0.3-0.1,0.3-0.4,0.4-0.6c0.6-1.3,1.2-2.7,1.7-4c0.1-0.2,0.2-0.3,0.4-0.2c0.7,0,1.4,0,2,0 c0.2,0,0.4-0.1,0.5,0.1c-0.5,1.1-1,2.3-1.4,3.4c-0.7,1.7-1.4,3.3-2.1,5c-0.2,0.1-0.1,0.3-0.1,0.4c0,1.2,0,2.3,0,3.5 c0,0.3-0.1,0.4-0.3,0.3c-0.6,0-1.2,0-1.9,0c-0.3,0-0.4-0.1-0.4-0.4c0-1.1,0-2.3,0-3.4C71.7,80.4,71.7,80.2,71.6,80.1z"></path> <path class="st24" d="M4.8,79c0-1.2,0-2.4,0-3.6c0-0.2,0.1-0.4,0.2-0.5c0.5-0.5,0.9-0.9,1.4-1.4c0.1-0.1,0.3-0.2,0.4-0.2 c1,0,2-0.1,3.1-0.1c0.2,0,0.4,0.1,0.6,0.2c0.4,0.4,0.9,0.9,1.3,1.3c0.2,0.2,0.3,0.3,0.2,0.6c0,0.6,0,1.1,0,1.7 c0,0.3-0.1,0.4-0.4,0.3c-0.5,0-1,0-1.4,0c-0.3,0-0.4-0.1-0.4-0.3c0-0.2,0-0.5,0-0.7c0-0.6-0.3-0.9-0.9-0.9c-0.3,0-0.7,0-1,0 c-0.7,0-1,0.3-1,1c0,1.7,0,3.5,0,5.2c0,0.4,0.4,0.8,0.8,0.8c0.4,0,0.8,0,1.2,0c0.6,0,1-0.3,1-0.9c0-0.3,0-0.6,0-0.9 c0-0.2,0.1-0.2,0.2-0.2c0.6,0,1.1,0,1.7,0c0.2,0,0.2,0.1,0.2,0.2c0,0.7,0,1.3,0,2c0,0.2-0.2,0.3-0.3,0.5c-0.4,0.4-0.8,0.8-1.2,1.3 c-0.2,0.2-0.4,0.3-0.6,0.3c-1,0-2,0-3,0c-0.2,0-0.3-0.1-0.4-0.2C5.9,84,5.5,83.5,5,83.1c-0.1-0.1-0.2-0.3-0.2-0.5 C4.8,81.4,4.8,80.2,4.8,79z"></path> <path class="st23" d="M68.6,54.8c0.9-0.1,1.8-0.4,2.6-0.8c0.4-0.2,0.7-0.1,1,0.3c0.5,0.7,1.1,1.4,1.6,2c0.3,0.4,0.3,0.6,0,0.9 c-0.9,0.9-1.8,1.8-2.6,2.7c-0.5,0.5-1,1-1.5,1.5c-0.6,0.6-0.9,0.5-1.4-0.1c-1.1-1.4-1.9-3-2.5-4.7c-0.1-0.4-0.2-0.8-0.3-1.3 c-0.1-0.5,0.1-0.7,0.6-0.6c0.4,0.1,0.8,0.1,1.1,0.2C67.7,54.9,68.1,54.9,68.6,54.8z"></path> <path class="st24" d="M88.1,62.9c-1.1-0.2-2.2-0.4-3.2-0.7c-1.5-0.5-3-1.1-4.3-1.9c-0.7-0.4-0.7-0.7-0.1-1.2 c0.3-0.3,0.6-0.5,0.9-0.7c1.7-1.2,3.6-2,5.6-2.6c1-0.3,2-0.6,3-0.9c0.1,0,0.2-0.1,0.3,0c0.1,0.1,0,0.2,0,0.3 c-0.9,2.4-2.4,4.4-4.4,6c-0.1,0.1-0.2,0.1-0.2,0.2c0,0.1,0.2,0.1,0.3,0.2c1,0.2,2,0.4,3,0.6c0.1,0,0.2,0,0.2,0.1 c0,0.1-0.1,0.1-0.1,0.2C88.7,62.7,88.4,62.8,88.1,62.9z"></path> <path class="st23" d="M76,64.5c-1.8-0.1-3.5-0.3-5.2-1c-0.6-0.3-0.7-0.5-0.7-0.9c0-0.2,0.2-0.4,0.3-0.5c1.4-1.4,2.7-2.7,4.1-4.1 c0.4-0.4,0.6-0.4,1.1,0c0.6,0.6,1.3,1.1,2,1.6c0.4,0.3,0.5,0.5,0.2,1c-0.6,1.2-0.9,2.4-0.8,3.7c0,0.2-0.1,0.2-0.3,0.2 C76.4,64.4,76.2,64.5,76,64.5z"></path> <path class="st24" d="M67.9,44.4c0.2,0.7,0.3,1.2,0.4,1.8c0.4,1.4,0.9,2.8,1.5,4.1c0.3,0.5,0.6,1,0.8,1.6c0.3,0.5,0.2,0.9-0.3,1.2 c-1,0.5-2.1,0.7-3.2,0.5c-0.5-0.1-0.9-0.2-1.4-0.4c-0.3-0.1-0.5-0.3-0.5-0.6c0-2.3,0.5-4.4,1.5-6.5C67.1,45.6,67.4,45.1,67.9,44.4z "></path> <path class="st22" d="M41.9,57.2c0.4-0.8,0.7-1.6,1.1-2.5c-0.5,0-1,0.1-1.5,0.1c-0.2,0-0.3,0-0.3-0.3c0-1.1,0-2.2,0-3.3 c0-0.2,0-0.3,0.2-0.3c1.3-0.1,2.6-0.1,3.9-0.2c0.3,0,0.3,0.1,0.3,0.3c0,1,0,2,0,2.9c0,0.2-0.1,0.4-0.2,0.5 c-0.6,0.7-1.2,1.4-1.8,2.1c-0.3,0.4-0.6,0.6-1.1,0.5C42.3,57.2,42.2,57.2,41.9,57.2z"></path> <path class="st24" d="M83.4,62.8c-0.6,0.4-1.2,0.6-1.8,0.9c-1,0.4-2.1,0.6-3.2,0.7c-0.3,0-0.3-0.1-0.3-0.3c0-0.9,0.1-1.8,0.5-2.6 c0.3-0.5,0.7-0.7,1.2-0.4C80.9,61.7,82.1,62.3,83.4,62.8z"></path> <path class="st21" d="M62.5,84.3c0.9,0,1.8,0,2.7,0c0.3,0,0.4-0.1,0.4-0.4c0-3.9,0-7.8,0-11.8c0-0.3-0.1-0.3-0.4-0.3 c-0.6,0-1.2,0-1.8,0c0.7-0.1,1.3,0,2-0.1c0.2,0,0.2,0.1,0.2,0.2c0,0.1,0,0.2,0,0.2c0,3.9,0,7.8,0,11.7c0,0.4-0.1,0.5-0.5,0.5 c-0.8,0-1.5,0-2.3,0C62.8,84.3,62.6,84.4,62.5,84.3z"></path> <path class="st21" d="M26.9,72.8c-0.6,0.1-1.2,0-1.8,0.1c-0.4,0-0.4,0.1-0.4,0.5c0,3.7,0,7.4,0,11.1c-0.1-0.1-0.1-0.2-0.1-0.4 c0-3.6,0-7.3,0-10.9c0-0.3,0.1-0.5,0.4-0.5C25.7,72.8,26.3,72.8,26.9,72.8z"></path> <path class="st21" d="M57.2,72c0,4.1,0,8.2,0,12.2c0,0.1,0,0.1,0,0.2c-0.1-0.1-0.1-0.2-0.1-0.4c0-3.9,0-7.8,0-11.6 C57.1,72.2,57,72.1,57.2,72z"></path> <path class="st21" d="M71.6,80.1c0.1,0.1,0.1,0.2,0.1,0.4c0,1.1,0,2.3,0,3.4c0,0.3,0.1,0.4,0.4,0.4c0.6,0,1.2,0,1.9,0 c0.3,0,0.3-0.1,0.3-0.3c0-1.2,0-2.3,0-3.5c0-0.1-0.1-0.3,0.1-0.4c0,1.3,0,2.6,0,3.9c0,0.4-0.1,0.5-0.5,0.5c-0.6,0-1.3,0-2,0 c-0.2,0-0.3-0.1-0.3-0.3C71.6,82.7,71.6,81.4,71.6,80.1z"></path> <path class="st21" d="M24.7,84.5c0.5,0,1,0,1.5,0c0.7,0,0.7,0,0.7-0.7c0-1.8,0-3.6,0-5.4c0.2,0.1,0.2,0.4,0.2,0.6 c-0.1,0-0.1-0.2-0.1-0.1c0,0.1,0,0.2,0,0.3c0,1.6,0,3.3,0,4.9c0,0.3-0.1,0.4-0.4,0.4C26,84.5,25.4,84.6,24.7,84.5z"></path> <path class="st21" d="M59.5,84.3c0-2.2,0-4.4,0-6.6c0-0.1,0-0.2,0-0.3c0,0,0,0,0,0c0,0,0,0,0,0c0,1,0,2,0,3c0,1.2,0,2.3,0,3.5 C59.6,84.1,59.7,84.2,59.5,84.3z"></path> <path class="st21" d="M39,80.6c0-0.3,0.1-0.3,0.3-0.3c1.1,0,2.2,0,3.3,0c-0.1,0.1-0.3,0.1-0.4,0.1c-0.9,0-1.8,0-2.8,0 C39.2,80.3,39,80.3,39,80.6z"></path> <path class="st21" d="M20.2,73c-1,0-2,0-3,0c0.9-0.1,1.9-0.1,2.8-0.1C20.1,73,20.2,73,20.2,73z"></path> <path class="st21" d="M77.9,71.5c-0.2-0.1-0.4-0.1-0.5-0.1c-0.7,0-1.4,0-2,0c0.8-0.1,1.6-0.1,2.5-0.1C77.9,71.4,78,71.4,77.9,71.5z "></path> <path class="st21" d="M68.6,54.8c-0.4,0.1-0.9,0.2-1.3,0C67.7,54.8,68.1,54.8,68.6,54.8z"></path> <path class="st20" d="M83.3,73c0-1.2,0-2.4,0-3.5c0-0.3,0.1-0.4,0.4-0.3c3.1,1.1,6.2,2.1,9.2,3.2c1.2,0.4,2.4,0.8,3.6,1.2 c0.3,0.1,0.4,0.2,0.4,0.5c0,1.7,0,3.3,0,5c0,0.3-0.1,0.4-0.4,0.3c-0.4-0.1-0.7-0.2-1.1-0.2C95,79.1,95,79,95,78.8 c0-1.3,0-2.6,0-3.8c0-0.3-0.1-0.5-0.4-0.6c-0.3-0.1-0.5-0.2-0.8-0.3c-0.3-0.1-0.3-0.1-0.3,0.2c0,1.3,0,2.5,0,3.8 c0,0.7,0,0.7-0.7,0.5c-0.3,0-0.5-0.1-0.8-0.2c-0.6-0.1-0.6-0.1-0.6-0.7c0-1.4,0-2.7,0-4.1c0-0.3-0.1-0.5-0.4-0.5 c-0.3-0.1-0.6-0.2-0.9-0.3c-0.3-0.1-0.4-0.1-0.4,0.3c0,1.5,0,3,0,4.5c0,0.4-0.1,0.5-0.4,0.4c-0.5-0.1-1-0.2-1.5-0.3 c-0.3,0-0.3-0.2-0.3-0.4c0-1.6,0-3.3,0-4.9c0-0.3-0.1-0.5-0.4-0.6c-0.4-0.1-0.7-0.2-1.1-0.4c-0.3-0.1-0.4-0.1-0.4,0.3 c0,1.7,0,3.4,0,5c0,0.5,0,0.5-0.5,0.5c-0.6-0.1-1.1-0.2-1.7-0.3c-0.2,0-0.2-0.2-0.2-0.4C83.3,75.3,83.3,74.2,83.3,73 C83.3,73,83.3,73,83.3,73z"></path> <path class="st20" d="M83.3,83.2c0-1.2,0-2.4,0-3.5c0-0.3,0.1-0.4,0.4-0.3c0.6,0.1,1.2,0.2,1.8,0.3c0.2,0,0.3,0.1,0.3,0.3 c0,2.3,0,4.6,0,6.9c0,0.2-0.1,0.3-0.3,0.3c-0.6,0-1.2,0-1.9,0c-0.3,0-0.3-0.1-0.3-0.3C83.3,85.6,83.3,84.4,83.3,83.2z"></path> <path class="st20" d="M87.6,83.6c0-1.1,0-2.2,0-3.2c0-0.3,0.1-0.4,0.3-0.3c0.5,0.1,1,0.2,1.5,0.2c0.3,0,0.5,0.1,0.5,0.5 c0,2,0,4,0,5.9c0,0.4-0.1,0.5-0.5,0.5c-0.5,0-1,0-1.4,0c-0.3,0-0.3-0.1-0.3-0.3C87.6,85.7,87.6,84.6,87.6,83.6z"></path> <path class="st20" d="M91.5,83.9c0-1,0-2,0-3c0-0.3,0.1-0.3,0.3-0.3c0.5,0.1,1,0.2,1.4,0.2c0.2,0,0.2,0.1,0.2,0.3 c0,1.9,0,3.8,0,5.7c0,0.2-0.1,0.3-0.3,0.3c-0.4,0-0.9,0-1.3,0c-0.3,0-0.4-0.1-0.4-0.4C91.5,85.8,91.5,84.8,91.5,83.9z"></path> <path class="st20" d="M95,84.1c0-0.9,0-1.7,0-2.6c0-0.3,0-0.4,0.4-0.3c0.4,0.1,0.8,0.1,1.2,0.2c0.2,0,0.3,0.1,0.3,0.3 c0,1.7,0,3.4,0,5.1c0,0.2-0.1,0.3-0.3,0.3c-0.4,0-0.8,0-1.2,0C95,87.1,95,87,95,86.8C95,85.9,95,85,95,84.1z"></path> <path class="st20" d="M49.4,80c0-0.5,0.1-0.9,0.1-1.4c0.2-1.3,0.3-2.6,0.5-3.8c0-0.2,0.1-0.4,0.4-0.3c0.1,0,0.2,0,0.3,0 c0.4-0.1,0.4,0.1,0.4,0.4c0.1,1,0.3,1.9,0.4,2.9c0.1,0.7,0.3,1.5,0.2,2.2C50.9,80,50.1,80,49.4,80z"></path> <path class="st21" d="M49.4,80c0.8,0,1.5,0,2.3,0c-0.1,0.2-0.3,0.1-0.5,0.1C50.6,80.1,50,80.2,49.4,80z"></path> <path class="st20" d="M19.3,75.2c0.4,0.3,0.5,0.7,0.5,1.3c0,1.7,0,3.3,0,5c0,0.5-0.4,0.9-0.9,0.9c-0.4,0-0.9,0-1.3,0 c-0.6,0-0.9-0.3-0.9-0.9c0-1.7,0-3.4,0-5c0-0.5,0.1-0.9,0.6-1.2C18,75.2,18.6,75.2,19.3,75.2z"></path> <path class="st21" d="M19.3,75.2c-0.7,0-1.3,0-2,0c0.5-0.2,1.1,0,1.7-0.1C19.1,75.1,19.2,75.1,19.3,75.2z"></path> <path class="st20" d="M39,76.4c0-0.5,0-0.9,0-1.4c0-0.2,0.1-0.3,0.3-0.3c0.7,0,1.4,0,2.1-0.1c0.4,0,0.8,0.5,0.8,0.8 c0,0.6,0,1.1,0,1.7c0,0.4-0.5,0.8-0.8,0.9c-0.7,0-1.4,0-2,0C39,78,38.9,78,39,77.7C39,77.3,39,76.8,39,76.4z"></path> </g> </svg> 