<?xml version="1.0" encoding="UTF-8"?> <!-- Generator: Adobe Illustrator 22.0.1, SVG Export Plug-In . SVG Version: 6.00 Build 0) --> <svg xmlns="http://www.w3.org/2000/svg" xmlns:xlink="http://www.w3.org/1999/xlink" id="Layer_1" x="0px" y="0px" viewBox="0 0 107.6 90.4" style="enable-background:new 0 0 107.6 90.4;" xml:space="preserve"> <style type="text/css"> .st0{fill:#D2AA41;} .st1{fill:#002B5C;} .st2{fill:#FFFFFF;} .st3{fill:#E31837;} .st4{fill:#231F20;} .st5{fill:url(#SVGID_1_);} .st6{fill:#D1A941;} .st7{fill:url(#SVGID_2_);} .st8{fill:#00002A;} .st9{fill:url(#SVGID_3_);} .st10{fill:#001846;} .st11{fill:#DCE5EB;} .st12{fill:#E21936;} .st13{fill:url(#SVGID_4_);} .st14{fill:url(#SVGID_5_);} .st15{fill:url(#SVGID_6_);} .st16{fill:url(#SVGID_7_);} .st17{fill:url(#SVGID_8_);} .st18{fill:#828E96;} .st19{fill:#9D0620;} .st20{fill:#022E61;} .st21{fill:#9C8C85;} .st22{fill:#FDFDFD;} .st23{fill:#F17636;} .st24{fill:#EF7636;} .st25{fill:#37246A;} .st26{fill:#FFC425;} .st27{fill:#00A160;} .st28{fill:#00483A;} .st29{fill:#FFD200;} .st30{fill:#B0B7BC;} .st31{fill:#652D89;} .st32{fill:#C4CED4;} .st33{fill:#0080C5;} .st34{fill:#00539B;} .st35{fill:#002D62;} .st36{fill:#D31245;} .st37{fill:#98002E;} </style> <g> <path class="st2" d="M0,0v50.3l23-6.2v-4.9l15.5-4.1c0.6,1.3,1.5,2.3,2.7,2.9c0.3,0.2,0.5,0.3,0.8,0.4c-0.1,0.2-0.2,0.3-0.3,0.5 c-3.1,1.2-5.8,3-7.8,5c-2.1,2.1-3.4,4.6-3.8,7.1c-1,1.2-1.7,2.6-2.2,4c-1.2,3.4-0.9,7.1,0.8,10.5c-0.6,1.6-0.9,3.3-0.8,4.9l0.1,0.9 l0.7,0.6c1.1,1,2.4,1.9,3.7,2.6c0.9,0.4,1.8,0.8,2.6,1c1,4.1,3.3,7.7,6.6,10.4c1.7,1.4,3.6,2.5,5.7,3.2c2.1,0.8,4.4,1.2,6.7,1.2h0 c2.3,0,4.5-0.4,6.7-1.2c2.1-0.7,4-1.8,5.7-3.2c3.3-2.7,5.6-6.4,6.6-10.4c0.9-0.2,1.8-0.5,2.6-1c1.3-0.7,2.6-1.5,3.7-2.6l0.7-0.6 l0.1-0.9c0.2-1.6-0.1-3.3-0.8-4.9c1.7-3.4,2-7.1,0.8-10.5c-0.5-1.5-1.3-2.8-2.2-4c-0.4-2.5-1.8-5-3.8-7.1c-2-2-4.7-3.8-7.8-5 c-0.1-0.2-0.2-0.3-0.3-0.5c0.3-0.1,0.5-0.2,0.8-0.4c1.1-0.7,2-1.7,2.7-2.9l15.5,4.1v4.9l23,6.2V0H0z"></path> <path class="st27" d="M104.5,46.4l0-43.3H3.1l0,43.3l16.9-4.5v-4.9L38.4,32c-0.3-1.5-0.2-2.9-0.2-3.6c0-1.6-1-5-2.4-5.4 c4.3-1.2,10.8,0.3,12.9,7.6c1.6-0.8,3.3-1.2,5.1-1.2c1.8,0,3.5,0.4,5.1,1.2c2.1-7.4,8.6-8.9,12.9-7.6c-1.4,0.5-2.4,3.9-2.4,5.4 c0,0.7,0,2.1-0.2,3.6l18.4,4.9v4.9L104.5,46.4z"></path> <g> <path class="st28" d="M98,39.6l-6.2-1.7V22.7L90.5,24v14.9l6.5,1.7c0.8,0.2,1.7,0.1,2.2-0.3l1.1-1.1C99.6,39.7,98.8,39.8,98,39.6z "></path> <polygon class="st28" points="55.9,6.5 54.6,7.8 54.6,24.6 57.7,25.4 58.7,24.4 55.9,23.6 "></polygon> <polygon class="st28" points="61.8,6.5 60.5,7.8 60.5,13.6 61.8,13.6 "></polygon> <polygon class="st28" points="45,7.8 43.7,6.5 43.7,22.9 45,22.6 "></polygon> <polygon class="st28" points="34.1,7.8 32.8,6.5 32.8,25.8 34.1,25.5 "></polygon> <path class="st28" d="M22.3,10.7h1.9v-0.2c0-0.6-0.5-1.1-1.1-1.1H21v5.5h1.3V10.7z"></path> <polygon class="st28" points="24.3,17.7 21,17.7 21,31.8 18.2,32.6 19.2,33.7 22.3,32.8 22.3,19 24.3,19 "></polygon> <path class="st28" d="M10.7,17.7h1.8v-1.1c0-0.1-0.1-0.2-0.2-0.2H9.4v20.4l1.3-0.3V17.7z"></path> <path class="st28" d="M10.7,10.7h1.8V9.6c0-0.1-0.1-0.2-0.2-0.2H9.4v4.2h1.3V10.7z"></path> <path class="st28" d="M14.6,7.6c0.5,0.5,0.7,1.2,0.7,2v3.7c0,0.6-0.2,1.2-0.5,1.6c0.3,0.5,0.5,1,0.5,1.6V35c0,1.7-1.4,3.4-3.1,3.9 l-5.7,1.5l1.1,1.1l5-1.3c2.3-0.6,4-2.9,4-5.1V17.1c0-0.6-0.1-1.1-0.3-1.6c0.2-0.5,0.3-1.1,0.3-1.6v-2.3c0-0.7,0.1-1.8-0.7-2.6 L14.6,7.6z"></path> <path class="st28" d="M25.9,7.7c0.7,0.7,1.2,1.7,1.2,2.8v19.7L24.3,31l1.1,1.1l3.1-0.8V11.8c0-1.1-0.4-2.1-1.2-2.8L25.9,7.7z"></path> <path class="st28" d="M96.9,12.1h2.8l1.3-1.3h-2.8V9.4h-3.4c-0.1,0-0.2,0.1-0.2,0.2v1.1h2.3V12.1z"></path> <polygon class="st28" points="82.6,10.7 87.6,10.7 88.9,9.4 82.6,9.4 "></polygon> <polygon class="st28" points="83.4,14.9 83.4,17.7 84.8,17.7 84.8,28.5 86.1,28.9 86.1,16.4 84.7,16.4 84.7,13.6 "></polygon> <path class="st28" d="M72.8,25.3l0.2,0c0.6,0.2,1.1-0.2,1.1-0.8V9.4h-2.6c-0.6,0-1.1,0.5-1.1,1.1v0.2h2.4V25.3z"></path> <path class="st28" d="M79.8,26.1V6.5l-1.3,1.3v18.2c0,2.8,2.2,5.5,4.9,6.3l4.5,1.2l1.1-1.1l-5.2-1.4 C81.5,30.5,79.8,28.2,79.8,26.1z"></path> <path class="st28" d="M94.8,17.7h2.1v18.8l1.1,0.3c0.1,0,0.2,0,0.2-0.2V16.6c0-0.1-0.1-0.2-0.2-0.2h-3.2c-1.7,0-3.1-1.4-3.1-3.1 V9.6c0-0.8,0.3-1.6,0.9-2.2l-1.3,1.3c-0.6,0.6-0.9,1.3-0.9,2.2v2.5C90.5,15.8,92.4,17.7,94.8,17.7z"></path> </g> <path class="st28" d="M0.9,0.9v48.3l21.2-5.7v-4.9L39,34.1c0.5,1.3,1.3,2.4,2.6,3.2c0.6,0.4,1.2,0.5,1.7,0.6 c-0.3,0.5-0.7,1.1-1.1,1.8c-6.3,2.4-10.6,6.8-11.4,11.8c-1,1.1-1.7,2.5-2.2,3.9c-1.2,3.4-0.7,7.1,0.9,10.2c-0.7,1.6-1,3.3-0.8,4.9 l0.1,0.6l0.4,0.4c1,1,2.2,1.8,3.5,2.4c1,0.5,2,0.8,3,1c1.8,8.4,9.3,14.7,18.2,14.7c8.9,0,16.4-6.3,18.2-14.7c1-0.2,2-0.5,3-1 c1.2-0.6,2.4-1.5,3.5-2.4l0.4-0.4l0.1-0.6c0.2-1.6-0.2-3.3-0.8-4.9c1.7-3.2,2.1-6.8,0.9-10.2c-0.5-1.5-1.3-2.8-2.2-3.9 c-0.7-5-5.1-9.4-11.4-11.8c-0.4-0.6-0.8-1.2-1.1-1.8c0.6-0.1,1.1-0.2,1.7-0.6c1.3-0.8,2.1-2,2.6-3.2l16.8,4.5v4.9l21.2,5.7V0.9H0.9 z M87.7,41.8v-4.9L69.2,32c0.2-1.4,0.2-2.6,0.2-3.4l2.4,0.7c1.1,0.3,2.1,0.2,2.8-0.4l1.1-1.1c-0.7,0.5-1.7,0.7-2.8,0.4l-3.4-0.9 c0.3-1.7,1.1-3.9,2.3-4.3c-1.3-0.4-2.8-0.5-4.3-0.3V10.5c0-1.1,0.4-2.1,1.2-2.8L67.4,9c-0.7,0.7-1.2,1.7-1.2,2.8l0,11.1 c-1.5,0.4-2.9,1.1-4.2,2.3l-0.2-0.1v-8.8h-3.1v1.3h1.8v8.5l0.5,0.1c-0.9,1.1-1.6,2.5-2.1,4.3c-1.6-0.8-3.3-1.2-5.1-1.2 c-1.8,0-3.5,0.4-5.1,1.2c-0.5-1.7-1.2-3.1-2.1-4.3l3.6-1v-6.9l-1.3-1.3v7.2l-3.3,0.9c-1.8-1.7-4.1-2.5-6.3-2.7v-4.1L38,17.2v5.4 c-0.8,0-1.5,0.2-2.2,0.4c1.1,0.3,1.9,2.3,2.2,4v0.4l-8,2.2l1.1,1.1l7.2-1.9c0,0.7,0,2,0.2,3.4l-18.4,4.9v4.9L3.1,46.4l0-43.3h101.5 l0,43.3L87.7,41.8z"></path> <g> <polygon class="st28" points="72.8,76 73.1,76 73.1,76.7 73.3,76.7 73.3,76 73.6,76 73.6,75.8 72.8,75.8 "></polygon> <polygon class="st28" points="74.5,75.8 74.3,76.4 74.3,76.4 74.1,75.8 73.8,75.8 73.8,76.7 74,76.7 74,76 74,76 74.2,76.7 74.4,76.7 74.7,76 74.7,76 74.7,76.7 74.9,76.7 74.9,75.8 "></polygon> </g> <path class="st29" d="M62.3,35.6c-1.1-2.1-5.3-3.1-8.5-3.1s-7.4,1-8.5,3.1c-0.5,0.9-0.7,1.3-1,2.3c2.8-1.8,6-2.8,9.6-2.8 c3.5,0,6.8,1,9.6,2.8C63,37,62.8,36.5,62.3,35.6z"></path> <path class="st29" d="M40.5,52.4c-2.4-1.5-2.8-5.5-0.8-8.8c0.3-0.5,0.6-1,0.9-1.4c-0.8,0.4-1.5,0.8-2.2,1.3c-2.3,1.5-4,3.3-5,5.3 c1.8,0.6,5.8,2.7,7.2,9.1c0.3-0.3,0.6-0.5,0.9-0.8C40.6,55.5,40.3,53.9,40.5,52.4z"></path> <path class="st29" d="M69.3,43.4c-0.7-0.5-1.4-0.9-2.2-1.3c0.3,0.5,0.6,0.9,0.9,1.4c2,3.4,1.5,7.3-0.8,8.8c0.1,1.5-0.2,3.1-1,4.7 c0.3,0.3,0.6,0.5,0.9,0.8c1.4-6.4,5.5-8.5,7.2-9.1C73.2,46.7,71.6,44.9,69.3,43.4z"></path> <g> <path class="st29" d="M40.5,60.8c-0.5,0.7-1,1.4-1.4,2.1c2.3,2.8,2.6,7.3,2.5,8.6l1.1,1.7l-1.6,0.8c-0.1,0-0.2,0.1-0.2,0.1 c1.9,1,3.9,1.8,6.1,2.3c0,0,0-0.1,0-0.1C47,72.5,44.8,67.3,40.5,60.8z"></path> <path class="st29" d="M46.9,78.1C46.9,78.1,46.8,78,46.9,78.1c-3-0.7-5.7-1.8-8-3.2C38.4,74.9,38,75,37.6,75 c0.7,2.9,2.2,5.6,4.4,7.7c0.3,0.3,0.5,0.3,0.6,0.3c0.1,0,0.3-0.1,0.5-0.2c0.9-0.5,1.7-1.1,2.3-1.7C46.1,80.3,46.6,79.3,46.9,78.1 C46.9,78.1,46.9,78.1,46.9,78.1z"></path> <path class="st29" d="M53,87c0,0.2-0.1,0.3-0.1,0.4c-0.1,0.1-0.2,0.2-0.3,0.2l0,0c-3.1-0.2-6.1-1.3-8.6-3.1 c-0.1-0.1-0.1-0.2-0.1-0.2c0,0,0,0,0,0c1.1-0.5,2-1.2,2.7-2.1c0.9-1,1.5-2.3,1.8-3.8c0,0,0,0,0,0c0,0,0,0,0,0 c1.5,0.3,3,0.4,4.5,0.4c0,0,0,0,0,0c0,0,0,0,0,0.1V87z"></path> <path class="st29" d="M49.8,61.5c-2.4,0.6-5.3-0.5-7.3-2.9c-0.2,0.2-0.4,0.3-0.5,0.5c-0.1,0.1-0.3,0.3-0.4,0.4 c4.6,6.8,7,12.5,7,16.8c0,0.4,0.1,0.4,0.2,0.4c1.4,0.2,2.8,0.4,4.2,0.4l0,0c0,0,0,0,0,0c0,0,0,0,0-0.1V62.5 C51.8,62.4,50.7,62,49.8,61.5z"></path> <path class="st29" d="M65.1,58.6c-2,2.4-4.9,3.5-7.3,2.9c-0.9,0.5-2,0.9-3.2,1v14.7c0,0,0,0,0,0.1c0,0,0,0,0,0l0,0 c1.4,0,2.9-0.2,4.2-0.4c0.1,0,0.2,0,0.2-0.4c0-4.3,2.4-10,7-16.8c-0.1-0.2-0.3-0.3-0.4-0.4C65.4,59,65.2,58.8,65.1,58.6z"></path> <path class="st29" d="M63.6,84.4c-2.5,1.8-5.5,2.9-8.6,3.1l0,0c-0.2,0-0.4-0.3-0.4-0.6v-8.1c0,0,0,0,0-0.1c0,0,0,0,0,0 c1.5,0,3.1-0.2,4.5-0.4c0,0,0,0,0,0c0,0,0,0,0,0c0.3,1.5,0.9,2.7,1.8,3.8c0.7,0.8,1.6,1.5,2.7,2.1c0,0,0,0,0,0 C63.8,84.3,63.7,84.4,63.6,84.4z"></path> <path class="st29" d="M68.8,74.8c-2.4,1.4-5.1,2.5-7.9,3.2c-0.1,0-0.1,0-0.1,0c0,0,0,0,0,0c0.2,1.2,0.7,2.2,1.4,3 c0.6,0.7,1.4,1.3,2.3,1.7C64.7,83,64.9,83,65,83c0.1,0,0.3,0,0.6-0.3c2.2-2.2,3.7-4.8,4.4-7.7C69.6,75,69.2,74.9,68.8,74.8z"></path> <path class="st29" d="M66.5,74.1l-1.6-0.8l1.1-1.7c-0.1-1.3,0.2-5.9,2.5-8.6c-0.4-0.7-0.9-1.5-1.4-2.1c-4.3,6.4-6.5,11.6-6.5,15.5 c0,0,0,0.1,0,0.1c2.2-0.5,4.3-1.3,6.1-2.3C66.7,74.2,66.6,74.1,66.5,74.1z"></path> <g> <g> <path class="st2" d="M59.6,82.1c-1.1,0.2-2.2,0.4-3.4,0.4c-0.5,0-1.1,0-1.6-0.1V87c0,0.3,0.2,0.6,0.4,0.6l0,0 c2.8-0.2,5.5-1.1,7.9-2.6C61.3,84.2,60.3,83.1,59.6,82.1z"></path> <path class="st2" d="M46.6,82.1c-0.7,0.8-1.6,1.5-2.7,2.1c0,0,0,0,0,0c0,0,0,0.1,0.1,0.2c2.3,1.7,5.1,2.8,7.9,3.1v-5.6 c-1.4-0.4-2.8-1-4-1.8C47.6,80.8,47.1,81.5,46.6,82.1z"></path> <path class="st2" d="M69.7,75c-1.7,2.8-4.3,5-7.4,6.3c0.6,0.6,1.3,1.2,2.2,1.6C64.7,83,64.9,83,65,83c0.1,0,0.3,0,0.6-0.3 c2.2-2.2,3.7-4.8,4.4-7.7C69.9,75,69.8,75,69.7,75z"></path> <path class="st2" d="M45.5,78.9c-3.4-0.9-6-2.3-7.7-3.4c0.7,2.5,2,4.8,3.8,6.8C44.2,81,45.3,79.7,45.5,78.9z"></path> </g> </g> </g> <g> <g> <g> <path class="st2" d="M23.1,6.5h-5v26.1l2.8-0.8V17.7h3.2V31l2.8-0.8V10.5C27.1,8.3,25.3,6.5,23.1,6.5z M24.3,14.9H21V9.4h2.1 c0.6,0,1.1,0.5,1.1,1.1V14.9z"></path> <path class="st2" d="M45.6,25.3l3.3-0.9v-7.2H46v5.1l-2.4,0.6V6.5h-2.8v16.3C42.5,23.2,44.2,23.9,45.6,25.3z"></path> <path class="st2" d="M38,26.9c-0.3-1.6-1.1-3.6-2.2-4c0.7-0.2,1.4-0.3,2.2-0.4v-5.4h-2.8v8l-2.4,0.6V6.5h-2.8v22.9l8-2.2V26.9z"></path> <path class="st2" d="M12.3,6.5H6.5v33.9l5.7-1.5c1.7-0.5,3.1-2.2,3.1-3.9V16.6c0-0.6-0.2-1.2-0.5-1.6c0.3-0.5,0.5-1,0.5-1.6V9.6 C15.3,7.9,13.9,6.5,12.3,6.5z M12.5,35.8c0,0.1-0.1,0.3-0.2,0.3l-2.9,0.8V16.4h2.9c0.1,0,0.2,0.1,0.2,0.2V35.8z M12.5,13.4 c0,0.1-0.1,0.2-0.2,0.2H9.4V9.4h2.9c0.1,0,0.2,0.1,0.2,0.2V13.4z"></path> <path class="st2" d="M58.7,16.4h3.1v8.8l0.2,0.1c0.8-0.8,1.7-1.3,2.6-1.8v-17h-2.8v7h-3.1v-7h-2.8v17.1l2.8,0.8V16.4z"></path> <path class="st2" d="M79.8,26.1c0,2.2,1.8,4.4,4,5l5.2,1.4V13.6h-4.2v2.8h1.4v12.4l-2.3-0.6c-0.6-0.2-1.1-0.8-1.1-1.4V9.4h6.3 V6.5h-9.1V26.1z"></path> <path class="st2" d="M70.3,22.7V10.5c0-0.6,0.5-1.1,1.1-1.1h2.6v15.1c0,0.6-0.5,1-1.1,0.8l-2.6-0.7c-0.4,0.8-0.7,1.8-0.8,2.6 l3.4,0.9c2.2,0.6,4-0.7,4-2.9V6.5h-5.4c-2.2,0-4,1.8-4,4v12.2C68.5,22.5,69.4,22.5,70.3,22.7z"></path> <path class="st2" d="M101.1,10.8V6.5h-6.2c-1.7,0-3.1,1.4-3.1,3.1v3.7c0,1.7,1.4,3.1,3.1,3.1H98c0.1,0,0.2,0.1,0.2,0.2v19.9 c0,0.1-0.1,0.2-0.2,0.2l-3.4-0.9V22.7h-2.8v15.2l6.2,1.7c1.7,0.5,3.1-0.6,3.1-2.2V16.6c0-1.7-1.4-3.1-3.1-3.1h-3.2 c-0.1,0-0.2-0.1-0.2-0.2V9.6c0-0.1,0.1-0.2,0.2-0.2h3.4v1.4H101.1z"></path> </g> </g> </g> <path class="st27" d="M43.1,30.8c-0.2,1.7-0.5,3.3,0.3,4.5c1.2-1.8,2.4-3,3.7-3.8c-0.6-2.7-2-4.9-3.5-5.9c-1.7-1.2-3.5-1.5-4.8-1.5 C41,24.9,43.4,27.8,43.1,30.8z"></path> <g> <path class="st27" d="M51.8,54L51.8,54c-2.8,0.3-5.4,1.1-7.7,2.5c0.4-0.6,0.8-1.1,1.3-1.6c-1.1-2.5-1.4-6-1-7.6l1.8,2.6 c0-0.6,0.3-1.3,0.8-2.1c0.3-0.5,0.7-0.9,1-1.2c-1.1,0.4-2.1,0.9-2.1,0.9c0.3-0.8,1.6-2.3,4.7-3.4c3.3-1.2,4.5-3,4-3.7 c-0.3-0.4-1.3-0.6-3.9-0.3c0,0,0-1.1,3.1-1.8c0.8-0.2,0.9-1.5,0.1-1.9c-3.6,0.1-7.2,1.4-10,3.7c-0.3,0.4-0.5,0.8-0.8,1.2 c-0.7,1-1.5,2.1-2.1,3.3c-1.5,2.5-1.3,5.6,0.3,6.7c0.5,0.4,1.5,0.7,2.5,0.8c-0.9,0.8-1.8,0.7-1.8,0.7c-0.2,1.6,0.4,3.3,1.4,4.7 c1.3,1.8,3.2,2.9,5.1,2.9c0.1,0,0.1,0,0.2,0c-0.3-0.7-0.5-1.6-0.3-2.4c0.6,1.5,2.2,2.5,4,2.5c2.4,0,3.9-1.5,3.9-3.4 C56.3,54.9,54,53.7,51.8,54z M47.4,38.9c0.2,0.2,0.3,0.5,0.5,0.7c1.1,1.5,2.4,2.6,3.5,3.1c-0.4,0.1-1.1,0.3-1.9,0.2 c-0.3,0.1-0.5,0.2-0.8,0.2c-1.3,0-2.3-1-2.3-2.3l-1.8-0.6L47.4,38.9z"></path> <path class="st2" d="M49,41.5c-0.1,0-0.2,0.1-0.3,0.1c-0.4,0-0.7-0.3-0.7-0.7c0-0.1,0-0.2,0.1-0.3c-0.2-0.2-0.4-0.4-0.6-0.7 c-0.2,0.3-0.3,0.6-0.3,1c0,0.8,0.7,1.5,1.5,1.5c0.4,0,0.7-0.1,1-0.3C49.4,41.9,49.2,41.7,49,41.5z"></path> </g> <g> <path class="st27" d="M59.7,39.6c0.2-0.2,0.3-0.5,0.5-0.7l2.8,1.3l1,0c-1.5-1.4-3.3-2.3-5-2.8c-0.6,1.7-1.1,3.6-3.4,5l0.9,0.2 C57.5,42,58.7,41,59.7,39.6z"></path> <path class="st2" d="M58.6,41.5c0.1,0,0.2,0.1,0.3,0.1c0.4,0,0.7-0.3,0.7-0.7c0-0.1,0-0.2-0.1-0.3c0.2-0.2,0.4-0.4,0.6-0.7 c0.2,0.3,0.3,0.6,0.3,1c0,0.8-0.7,1.5-1.5,1.5c-0.4,0-0.7-0.1-1-0.3C58.2,41.9,58.4,41.7,58.6,41.5z"></path> </g> <path class="st27" d="M59,48.7c-1.7-2.4-3.3-3.4-5.2-3.4c-1.9,0-3.5,1-5.2,3.4c-1.9,2.6,0.7,4.2,2.2,4.2c1.5,0,2.1-0.2,3-0.2 c0.8,0,1.4,0.2,3,0.2S60.9,51.3,59,48.7z M52.1,49.4c-0.4,0.1-0.7,0.6-0.9,1c-0.2,0.4-0.8,0.6-1.1,0.1c-0.3-0.5,0-1.5,0.8-2.1 C51.9,47.6,52.9,49.1,52.1,49.4z M57.6,50.6c-0.3,0.5-0.9,0.2-1.1-0.1s-0.5-0.9-0.9-1c-0.8-0.3,0.1-1.8,1.3-1 C57.6,49.1,57.9,50.1,57.6,50.6z"></path> <g> <path class="st27" d="M32.8,61.5c1.8-1.1,3.8-1.4,5.6-1c0.4-0.6,0.8-1.1,1.2-1.6c-1.4-3.7-4.3-5.9-7.6-6.4c-0.9,1-1.5,2.2-1.9,3.4 c-0.9,2.6-0.7,5.4,0.4,7.9C31,62.9,31.8,62.1,32.8,61.5z"></path> <path class="st27" d="M39.9,69.2c-0.3-1.8-1.1-5-3.9-7.2c-3.5,0.2-6.1,4.8-5.8,8.3c1,0.9,2.1,1.7,3.1,2.2c1.9,1,3.8,1.2,5.7,0.7 c0.6-0.1,1-0.3,1.4-0.5l-2.5-3.7L39.9,69.2z"></path> <path class="st27" d="M71.6,62c-2.8,2.2-3.7,5.4-3.9,7.2l2-0.2l-2.5,3.7c0.4,0.2,0.8,0.4,1.4,0.5c1.9,0.5,3.8,0.2,5.7-0.7 c1-0.5,2.1-1.2,3.1-2.2C77.7,66.8,75.1,62.2,71.6,62z"></path> </g> <g> <path class="st27" d="M68.8,24.2c-1.3,0-3.1,0.3-4.8,1.5c-0.3,0.2-0.5,0.4-0.7,0.6c2.4-0.7,4.8,1.4,3.8,7.2c0.7-1.8,0.7-4,0.7-5 c0-1,0.3-2.6,0.8-3.8C68.7,24.5,68.8,24.3,68.8,24.2z"></path> </g> <g> <path class="st2" d="M45.3,51.7c0.2,0.9,0.4,1.8,0.7,2.5c0.5-0.4,1-0.8,1.5-1.1l-2.5-3.5C45.1,50.2,45.2,50.9,45.3,51.7z"></path> <path class="st2" d="M60.1,53c0.5,0.3,1,0.7,1.5,1.1c0.3-0.7,0.5-1.6,0.7-2.5c0.1-0.7,0.2-1.5,0.3-2.2L60.1,53z"></path> </g> </g> </svg> 