<?xml version="1.0" standalone="no"?>
<!DOCTYPE svg PUBLIC "-//W3C//DTD SVG 20010904//EN"
 "http://www.w3.org/TR/2001/REC-SVG-20010904/DTD/svg10.dtd">
<svg version="1.0" xmlns="http://www.w3.org/2000/svg"
 width="120.000000pt" height="120.000000pt" viewBox="0 0 120.000000 120.000000"
 preserveAspectRatio="xMidYMid meet">
<metadata>
Created by potrace 1.14, written by Peter Selinger 2001-2017
</metadata>
<g transform="translate(0.000000,120.000000) scale(0.100000,-0.100000)"
fill="#000000" stroke="none">
<path d="M620 975 c-336 -68 -596 -318 -560 -539 21 -133 108 -203 280 -228
286 -42 683 159 770 390 60 159 25 277 -100 339 -110 53 -247 67 -390 38z
m192 -67 c21 -6 52 -27 68 -45 25 -28 30 -42 30 -86 0 -97 -79 -186 -226 -258
-184 -90 -376 -91 -453 -4 -102 116 70 319 329 389 67 18 199 20 252 4z m228
-47 c14 -27 13 -54 -4 -77 -19 -25 -22 -20 -29 44 -5 41 -3 52 8 52 8 0 19 -9
25 -19z m-50 -196 c0 -21 -38 -70 -97 -126 -70 -66 -196 -139 -295 -173 -69
-23 -176 -38 -195 -28 -23 13 -7 20 105 48 166 41 329 134 418 237 34 40 64
60 64 42z m-816 -223 c11 -13 42 -35 69 -48 53 -27 61 -44 20 -44 -40 1 -106
33 -131 65 -24 31 -38 86 -27 112 5 15 10 10 27 -22 11 -22 30 -51 42 -63z"/>
<path d="M555 871 c-84 -24 -179 -77 -242 -135 -64 -58 -83 -91 -83 -145 0
-92 133 -135 298 -96 144 34 295 133 336 220 22 45 21 108 -2 128 -54 49 -192
62 -307 28z"/>
</g>
</svg>
